{"glyphs":{"0":{"ha":916,"x_min":70,"x_max":846,"o":"m 458 -14 q 172 122 274 -14 q 70 505 70 258 q 172 887 70 750 q 458 1024 275 1024 q 744 887 642 1024 q 846 505 846 750 q 744 122 846 258 q 458 -14 642 -14 m 458 138 q 611 234 557 138 q 664 505 664 330 q 611 777 664 680 q 458 873 557 873 q 306 776 359 873 q 252 505 252 680 q 306 234 252 330 q 458 138 359 138 z "},"1":{"ha":587,"x_min":64,"x_max":486,"o":"m 486 1010 l 486 0 l 307 0 l 307 849 l 300 849 l 64 680 l 64 852 l 286 1010 l 486 1010 z "},"2":{"ha":865,"x_min":85,"x_max":782,"o":"m 91 0 l 91 130 l 441 475 q 554 604 515 551 q 593 722 593 658 q 545 835 593 793 q 425 876 497 876 q 304 831 349 876 q 258 708 258 786 l 85 708 q 129 875 85 804 q 250 985 173 946 q 427 1024 328 1024 q 605 986 528 1024 q 724 882 682 948 q 767 731 767 816 q 746 621 767 675 q 670 500 724 567 q 517 338 616 433 l 342 159 l 342 151 l 782 151 l 782 0 l 91 0 z "},"3":{"ha":884,"x_min":73,"x_max":814,"o":"m 441 -14 q 253 23 335 -14 q 123 124 170 59 q 73 274 75 189 l 255 274 q 312 175 259 212 q 441 138 365 138 q 575 180 523 138 q 627 290 627 222 q 573 402 627 359 q 423 446 519 446 l 334 446 l 334 586 l 423 586 q 551 627 502 586 q 601 734 601 667 q 558 837 601 798 q 444 876 515 876 q 322 840 374 876 q 268 739 270 803 l 94 739 q 142 887 95 823 q 268 988 189 951 q 445 1024 347 1024 q 621 986 546 1024 q 736 885 695 948 q 777 745 777 821 q 727 602 777 659 q 595 526 677 544 l 595 517 q 757 439 701 503 q 814 280 814 375 q 766 129 814 195 q 633 24 718 62 q 441 -14 549 -14 z "},"4":{"ha":925,"x_min":73,"x_max":857,"o":"m 73 188 l 73 332 l 502 1010 l 727 1010 l 727 337 l 857 337 l 857 188 l 727 188 l 727 0 l 553 0 l 553 188 l 73 188 m 557 337 l 557 804 l 549 804 l 258 345 l 258 337 l 557 337 z "},"5":{"ha":850,"x_min":71,"x_max":781,"o":"m 419 -14 q 242 24 320 -14 q 119 126 165 61 q 71 274 74 191 l 248 274 q 300 173 251 212 q 419 134 350 134 q 552 188 500 134 q 605 328 605 242 q 551 470 605 414 q 414 526 497 526 q 324 508 368 526 q 254 463 280 491 l 90 490 l 143 1010 l 728 1010 l 728 859 l 293 859 l 264 590 l 270 590 q 350 645 298 623 q 462 666 401 666 q 626 623 553 666 q 739 504 698 580 q 781 332 781 429 q 734 153 781 231 q 607 31 688 75 q 419 -14 526 -14 z "},"6":{"ha":888,"x_min":70,"x_max":819,"o":"m 455 -14 q 314 11 382 -14 q 190 92 245 36 q 102 243 135 149 q 70 476 70 337 q 118 771 70 649 q 256 959 167 894 q 466 1024 345 1024 q 633 987 560 1024 q 752 885 707 949 q 809 739 798 821 l 631 739 q 574 832 617 796 q 466 867 532 867 q 303 776 360 867 q 246 524 246 684 l 254 524 q 357 626 290 589 q 505 663 424 663 q 665 621 594 663 q 777 504 736 578 q 819 334 819 429 q 773 156 819 234 q 646 32 728 77 q 455 -14 564 -14 m 454 134 q 551 160 508 134 q 618 230 593 186 q 643 330 643 275 q 619 429 643 385 q 552 498 595 473 q 456 524 510 524 q 360 497 403 524 q 292 426 317 471 q 267 330 267 382 q 291 232 267 276 q 358 160 315 187 q 454 134 400 134 z "},"7":{"ha":800,"x_min":56,"x_max":744,"o":"m 125 0 l 555 852 l 555 859 l 56 859 l 56 1010 l 744 1010 l 744 854 l 314 0 l 125 0 z "},"8":{"ha":889,"x_min":70,"x_max":819,"o":"m 444 -14 q 250 23 334 -14 q 118 124 165 60 q 70 271 70 189 q 98 387 70 334 q 173 477 125 441 q 281 523 221 513 l 281 529 q 155 609 203 547 q 106 753 106 671 q 150 892 106 831 q 270 989 194 954 q 444 1024 347 1024 q 617 989 541 1024 q 738 892 694 954 q 782 753 782 831 q 733 609 782 671 q 608 529 685 547 l 608 523 q 714 477 667 513 q 791 387 762 441 q 819 271 819 334 q 771 124 819 189 q 638 23 723 60 q 444 -14 553 -14 m 444 126 q 581 170 530 126 q 632 283 632 213 q 578 403 632 356 q 444 450 525 450 q 309 403 362 450 q 256 283 256 356 q 307 170 256 213 q 444 126 358 126 m 444 587 q 559 628 514 587 q 605 736 605 669 q 560 842 605 802 q 444 882 515 882 q 328 842 372 882 q 283 736 283 802 q 329 628 283 670 q 444 587 374 587 z "},"9":{"ha":888,"x_min":70,"x_max":819,"o":"m 424 -14 q 255 23 329 -14 q 136 125 181 60 q 79 273 90 191 l 258 273 q 315 179 272 215 q 424 142 357 142 q 586 234 529 142 q 643 488 643 326 l 636 488 q 533 386 600 423 q 384 348 466 348 q 224 390 295 348 q 112 507 153 433 q 70 677 70 582 q 116 856 70 777 q 244 981 161 935 q 435 1025 326 1026 q 575 999 507 1024 q 699 918 644 975 q 786 768 753 862 q 819 535 819 674 q 770 239 819 361 q 633 51 722 116 q 424 -14 545 -14 m 432 487 q 529 514 486 487 q 598 585 572 541 q 623 683 623 630 q 599 779 623 734 q 532 850 574 823 q 435 877 489 877 q 338 851 381 877 q 271 780 296 825 q 246 681 246 736 q 270 582 246 626 q 336 513 294 538 q 432 487 378 487 z "},"\u0000":{"ha":814,"x_min":0,"x_max":0,"o":""},"A":{"ha":1010,"x_min":34,"x_max":977,"o":"m 34 0 l 387 1010 l 616 1010 l 977 0 l 779 0 l 692 250 l 315 250 l 232 0 l 34 0 m 363 396 l 643 396 l 599 525 q 552 680 576 595 q 500 869 528 764 q 450 678 473 764 q 406 525 427 592 l 363 396 z "},"Ä":{"ha":1010,"x_min":34,"x_max":977,"o":"m 34 0 l 387 1010 l 616 1010 l 977 0 l 779 0 l 692 250 l 315 250 l 232 0 l 34 0 m 363 396 l 643 396 l 599 525 q 552 680 576 595 q 500 869 528 764 q 450 678 473 764 q 406 525 427 592 l 363 396 m 357 1122 q 290 1149 317 1122 q 262 1215 262 1176 q 290 1280 262 1253 q 357 1307 317 1307 q 423 1280 395 1307 q 451 1215 451 1253 q 423 1149 451 1176 q 357 1122 395 1122 m 652 1122 q 585 1149 613 1122 q 557 1215 557 1176 q 585 1280 557 1253 q 652 1307 613 1307 q 719 1280 691 1307 q 747 1215 747 1253 q 719 1149 747 1176 q 652 1122 691 1122 z "},"Ã":{"ha":1010,"x_min":34,"x_max":977,"o":"m 34 0 l 387 1010 l 616 1010 l 977 0 l 779 0 l 692 250 l 315 250 l 232 0 l 34 0 m 363 396 l 643 396 l 599 525 q 552 680 576 595 q 500 869 528 764 q 450 678 473 764 q 406 525 427 592 l 363 396 m 597 1128 q 526 1145 557 1128 q 470 1178 494 1162 q 426 1194 446 1194 q 395 1176 406 1194 q 384 1133 385 1158 l 281 1133 q 317 1254 283 1210 q 412 1299 352 1299 q 483 1282 453 1299 q 536 1250 512 1266 q 583 1234 559 1234 q 626 1296 621 1234 l 727 1296 q 689 1173 725 1217 q 597 1128 654 1128 z "},"À":{"ha":1010,"x_min":34,"x_max":977,"o":"m 34 0 l 387 1010 l 616 1010 l 977 0 l 779 0 l 692 250 l 315 250 l 232 0 l 34 0 m 363 396 l 643 396 l 599 525 q 552 680 576 595 q 500 869 528 764 q 450 678 473 764 q 406 525 427 592 l 363 396 m 441 1107 l 304 1315 l 476 1315 l 570 1107 l 441 1107 z "},"Á":{"ha":1010,"x_min":34,"x_max":977,"o":"m 34 0 l 387 1010 l 616 1010 l 977 0 l 779 0 l 692 250 l 315 250 l 232 0 l 34 0 m 363 396 l 643 396 l 599 525 q 552 680 576 595 q 500 869 528 764 q 450 678 473 764 q 406 525 427 592 l 363 396 m 437 1107 l 532 1315 l 703 1315 l 566 1107 l 437 1107 z "},"Â":{"ha":1010,"x_min":34,"x_max":977,"o":"m 34 0 l 387 1010 l 616 1010 l 977 0 l 779 0 l 692 250 l 315 250 l 232 0 l 34 0 m 363 396 l 643 396 l 599 525 q 552 680 576 595 q 500 869 528 764 q 450 678 473 764 q 406 525 427 592 l 363 396 m 407 1116 l 249 1116 l 249 1121 l 433 1315 l 575 1315 l 759 1121 l 759 1116 l 600 1116 l 504 1232 l 407 1116 z "},"Å":{"ha":1010,"x_min":34,"x_max":977,"o":"m 34 0 l 387 1010 l 616 1010 l 977 0 l 779 0 l 692 250 l 315 250 l 232 0 l 34 0 m 363 396 l 643 396 l 599 525 q 552 680 576 595 q 500 869 528 764 q 450 678 473 764 q 406 525 427 592 l 363 396 m 505 1047 q 373 1096 425 1047 q 321 1215 321 1144 q 373 1333 321 1284 q 505 1381 425 1381 q 636 1333 584 1381 q 688 1215 688 1284 q 636 1096 688 1144 q 505 1047 584 1047 m 505 1135 q 563 1157 539 1135 q 586 1215 586 1180 q 563 1271 586 1249 q 505 1294 540 1294 q 446 1271 469 1294 q 422 1215 422 1249 q 446 1157 422 1180 q 505 1135 469 1135 z "},"Ǻ":{"ha":1010,"x_min":34,"x_max":977,"o":"m 34 0 l 387 1010 l 616 1010 l 977 0 l 779 0 l 692 250 l 315 250 l 232 0 l 34 0 m 363 396 l 643 396 l 599 525 q 552 680 576 595 q 500 869 528 764 q 450 678 473 764 q 406 525 427 592 l 363 396 m 505 1046 q 373 1094 425 1046 q 321 1211 321 1141 q 373 1327 321 1280 q 505 1375 425 1375 q 636 1327 584 1375 q 688 1211 688 1280 q 636 1094 688 1141 q 505 1046 584 1046 m 505 1133 q 563 1155 539 1133 q 586 1211 586 1177 q 563 1267 586 1244 q 505 1289 540 1289 q 446 1267 469 1289 q 422 1211 422 1244 q 446 1155 422 1177 q 505 1133 469 1133 m 444 1409 l 543 1543 l 697 1543 l 562 1409 l 444 1409 z "},"":{"ha":1010,"x_min":34,"x_max":1015,"o":"m 34 0 l 387 1010 l 616 1010 l 977 0 l 779 0 l 692 250 l 315 250 l 232 0 l 34 0 m 363 396 l 643 396 l 599 525 q 552 680 576 595 q 500 869 528 764 q 450 678 473 764 q 406 525 427 592 l 363 396 m 505 1047 q 373 1096 425 1047 q 321 1215 321 1144 q 373 1333 321 1284 q 505 1381 425 1381 q 636 1333 584 1381 q 688 1215 688 1284 q 636 1096 688 1144 q 505 1047 584 1047 m 505 1135 q 563 1157 539 1135 q 586 1215 586 1180 q 563 1271 586 1249 q 505 1294 540 1294 q 446 1271 469 1294 q 422 1215 422 1249 q 446 1157 422 1180 q 505 1135 469 1135 m 876 -293 q 748 -256 800 -293 q 696 -152 696 -218 q 724 -63 696 -104 q 796 11 751 -21 l 977 0 q 896 -57 926 -28 q 865 -125 865 -87 q 917 -176 865 -176 q 947 -171 933 -176 q 972 -159 961 -166 l 1015 -259 q 955 -283 992 -273 q 876 -293 917 -293 z "},"Ā":{"ha":1010,"x_min":34,"x_max":977,"o":"m 34 0 l 387 1010 l 616 1010 l 977 0 l 779 0 l 692 250 l 315 250 l 232 0 l 34 0 m 363 396 l 643 396 l 599 525 q 552 680 576 595 q 500 869 528 764 q 450 678 473 764 q 406 525 427 592 l 363 396 m 698 1274 l 698 1155 l 311 1155 l 311 1274 l 698 1274 z "},"Ă":{"ha":1010,"x_min":34,"x_max":977,"o":"m 34 0 l 387 1010 l 616 1010 l 977 0 l 779 0 l 692 250 l 315 250 l 232 0 l 34 0 m 363 396 l 643 396 l 599 525 q 552 680 576 595 q 500 869 528 764 q 450 678 473 764 q 406 525 427 592 l 363 396 m 505 1108 q 392 1136 442 1108 q 312 1209 342 1163 q 283 1313 283 1255 l 392 1313 q 424 1240 392 1269 q 505 1212 456 1212 q 585 1240 553 1212 q 616 1313 616 1269 l 726 1313 q 696 1210 726 1256 q 617 1136 667 1163 q 505 1108 567 1108 z "},"Ą":{"ha":1010,"x_min":34,"x_max":1015,"o":"m 34 0 l 387 1010 l 616 1010 l 977 0 l 779 0 l 692 250 l 315 250 l 232 0 l 34 0 m 363 396 l 643 396 l 599 525 q 552 680 576 595 q 500 869 528 764 q 450 678 473 764 q 406 525 427 592 l 363 396 m 876 -293 q 748 -256 800 -293 q 696 -152 696 -218 q 724 -63 696 -104 q 796 11 751 -21 l 977 0 q 896 -57 926 -28 q 865 -125 865 -87 q 917 -176 865 -176 q 947 -171 933 -176 q 972 -159 961 -166 l 1015 -259 q 955 -283 992 -273 q 876 -293 917 -293 z "},"Ǎ":{"ha":1010,"x_min":34,"x_max":977,"o":"m 34 0 l 387 1010 l 616 1010 l 977 0 l 779 0 l 692 250 l 315 250 l 232 0 l 34 0 m 363 396 l 643 396 l 599 525 q 552 680 576 595 q 500 869 528 764 q 450 678 473 764 q 406 525 427 592 l 363 396 m 407 1315 l 504 1198 l 600 1315 l 759 1315 l 759 1310 l 575 1116 l 433 1116 l 249 1310 l 249 1315 l 407 1315 z "},"Ǟ":{"ha":1010,"x_min":34,"x_max":977,"o":"m 34 0 l 387 1010 l 616 1010 l 977 0 l 779 0 l 692 250 l 315 250 l 232 0 l 34 0 m 363 396 l 643 396 l 599 525 q 552 680 576 595 q 500 869 528 764 q 450 678 473 764 q 406 525 427 592 l 363 396 m 698 1479 l 698 1378 l 311 1378 l 311 1479 l 698 1479 m 359 1103 q 292 1131 319 1103 q 264 1196 264 1158 q 292 1261 264 1234 q 359 1289 319 1289 q 425 1261 397 1289 q 453 1196 453 1234 q 425 1131 453 1158 q 359 1103 397 1103 m 654 1103 q 587 1131 615 1103 q 559 1196 559 1158 q 587 1261 559 1234 q 654 1289 615 1289 q 721 1261 693 1289 q 749 1196 749 1234 q 721 1131 749 1158 q 654 1103 693 1103 z "},"Ǡ":{"ha":1010,"x_min":34,"x_max":977,"o":"m 34 0 l 387 1010 l 616 1010 l 977 0 l 779 0 l 692 250 l 315 250 l 232 0 l 34 0 m 363 396 l 643 396 l 599 525 q 552 680 576 595 q 500 869 528 764 q 450 678 473 764 q 406 525 427 592 l 363 396 m 699 1479 l 699 1378 l 311 1378 l 311 1479 l 699 1479 m 505 1100 q 433 1128 463 1100 q 403 1196 403 1156 q 433 1264 403 1236 q 505 1293 463 1293 q 578 1264 548 1293 q 608 1196 608 1236 q 578 1128 608 1156 q 505 1100 548 1100 z "},"Ȁ":{"ha":1010,"x_min":34,"x_max":977,"o":"m 34 0 l 387 1010 l 616 1010 l 977 0 l 779 0 l 692 250 l 315 250 l 232 0 l 34 0 m 363 396 l 643 396 l 599 525 q 552 680 576 595 q 500 869 528 764 q 450 678 473 764 q 406 525 427 592 l 363 396 m 324 1107 l 165 1315 l 340 1315 l 454 1107 l 324 1107 m 557 1107 l 444 1315 l 610 1315 l 685 1107 l 557 1107 z "},"Ȃ":{"ha":1010,"x_min":34,"x_max":977,"o":"m 34 0 l 387 1010 l 616 1010 l 977 0 l 779 0 l 692 250 l 315 250 l 232 0 l 34 0 m 363 396 l 643 396 l 599 525 q 552 680 576 595 q 500 869 528 764 q 450 678 473 764 q 406 525 427 592 l 363 396 m 504 1328 q 621 1299 569 1328 q 702 1223 673 1271 q 732 1116 732 1175 l 623 1116 q 587 1192 623 1162 q 504 1222 552 1222 q 420 1192 456 1222 q 385 1116 385 1162 l 276 1116 q 306 1223 276 1175 q 387 1299 336 1271 q 504 1328 439 1328 z "},"Ȧ":{"ha":1010,"x_min":34,"x_max":977,"o":"m 34 0 l 387 1010 l 616 1010 l 977 0 l 779 0 l 692 250 l 315 250 l 232 0 l 34 0 m 363 396 l 643 396 l 599 525 q 552 680 576 595 q 500 869 528 764 q 450 678 473 764 q 406 525 427 592 l 363 396 m 504 1118 q 432 1146 462 1118 q 401 1215 401 1174 q 432 1283 401 1255 q 504 1311 462 1311 q 577 1283 547 1311 q 607 1215 607 1255 q 577 1146 607 1174 q 504 1118 547 1118 z "},"Ḁ":{"ha":1010,"x_min":34,"x_max":977,"o":"m 34 0 l 387 1010 l 616 1010 l 977 0 l 779 0 l 692 250 l 315 250 l 232 0 l 34 0 m 363 396 l 643 396 l 599 525 q 552 680 576 595 q 500 869 528 764 q 450 678 473 764 q 406 525 427 592 l 363 396 m 505 -359 q 417 -338 456 -359 q 354 -282 377 -317 q 330 -203 330 -247 q 354 -125 330 -160 q 417 -69 377 -90 q 505 -48 456 -48 q 592 -69 553 -48 q 656 -125 632 -90 q 680 -203 680 -160 q 656 -282 680 -247 q 592 -338 632 -317 q 505 -359 553 -359 m 505 -278 q 561 -256 538 -278 q 583 -203 583 -235 q 561 -151 583 -173 q 505 -130 538 -130 q 449 -151 472 -130 q 427 -203 427 -173 q 449 -256 427 -235 q 505 -278 472 -278 z "},"Ạ":{"ha":1010,"x_min":34,"x_max":977,"o":"m 34 0 l 387 1010 l 616 1010 l 977 0 l 779 0 l 692 250 l 315 250 l 232 0 l 34 0 m 363 396 l 643 396 l 599 525 q 552 680 576 595 q 500 869 528 764 q 450 678 473 764 q 406 525 427 592 l 363 396 m 505 -300 q 433 -272 463 -300 q 403 -203 403 -244 q 433 -135 403 -163 q 505 -107 463 -107 q 578 -135 548 -107 q 608 -203 608 -163 q 578 -272 608 -244 q 505 -300 548 -300 z "},"Ả":{"ha":1010,"x_min":34,"x_max":977,"o":"m 34 0 l 387 1010 l 616 1010 l 977 0 l 779 0 l 692 250 l 315 250 l 232 0 l 34 0 m 363 396 l 643 396 l 599 525 q 552 680 576 595 q 500 869 528 764 q 450 678 473 764 q 406 525 427 592 l 363 396 m 554 1107 l 443 1107 l 494 1200 q 484 1219 503 1219 l 380 1219 l 380 1315 l 484 1315 q 585 1292 553 1315 q 617 1233 617 1268 q 592 1160 618 1197 l 554 1107 z "},"Ấ":{"ha":1010,"x_min":34,"x_max":977,"o":"m 34 0 l 387 1010 l 616 1010 l 977 0 l 779 0 l 692 250 l 315 250 l 232 0 l 34 0 m 363 396 l 643 396 l 599 525 q 552 680 576 595 q 500 869 528 764 q 450 678 473 764 q 406 525 427 592 l 363 396 m 410 1097 l 252 1097 l 252 1102 l 436 1296 l 578 1296 l 762 1102 l 762 1097 l 604 1097 l 507 1213 l 410 1097 m 606 1352 l 694 1535 l 848 1535 l 722 1352 l 606 1352 z "},"Ầ":{"ha":1010,"x_min":34,"x_max":977,"o":"m 34 0 l 387 1010 l 616 1010 l 977 0 l 779 0 l 692 250 l 315 250 l 232 0 l 34 0 m 363 396 l 643 396 l 599 525 q 552 680 576 595 q 500 869 528 764 q 450 678 473 764 q 406 525 427 592 l 363 396 m 410 1097 l 252 1097 l 252 1102 l 436 1296 l 578 1296 l 762 1102 l 762 1097 l 604 1097 l 507 1213 l 410 1097 m 657 1352 l 531 1535 l 686 1535 l 773 1352 l 657 1352 z "},"Ẩ":{"ha":1010,"x_min":34,"x_max":977,"o":"m 34 0 l 387 1010 l 616 1010 l 977 0 l 779 0 l 692 250 l 315 250 l 232 0 l 34 0 m 363 396 l 643 396 l 599 525 q 552 680 576 595 q 500 869 528 764 q 450 678 473 764 q 406 525 427 592 l 363 396 m 410 1097 l 252 1097 l 252 1102 l 436 1296 l 578 1296 l 762 1102 l 762 1097 l 604 1097 l 507 1213 l 410 1097 m 705 1352 l 605 1352 l 648 1430 q 637 1448 658 1448 l 543 1448 l 543 1535 l 637 1535 q 730 1514 701 1535 q 761 1460 760 1493 q 737 1394 762 1428 l 705 1352 z "},"Ẫ":{"ha":1010,"x_min":34,"x_max":977,"o":"m 34 0 l 387 1010 l 616 1010 l 977 0 l 779 0 l 692 250 l 315 250 l 232 0 l 34 0 m 363 396 l 643 396 l 599 525 q 552 680 576 595 q 500 869 528 764 q 450 678 473 764 q 406 525 427 592 l 363 396 m 410 1097 l 252 1097 l 252 1102 l 436 1296 l 578 1296 l 762 1102 l 762 1097 l 604 1097 l 507 1213 l 410 1097 m 600 1362 q 528 1377 559 1362 q 473 1407 497 1392 q 428 1422 448 1422 q 398 1406 408 1422 q 387 1365 388 1389 l 283 1365 q 320 1478 286 1436 q 414 1519 354 1519 q 485 1504 455 1519 q 538 1473 515 1489 q 585 1458 562 1458 q 628 1516 623 1458 l 730 1516 q 692 1403 728 1444 q 600 1362 656 1362 z "},"Ậ":{"ha":1010,"x_min":34,"x_max":977,"o":"m 34 0 l 387 1010 l 616 1010 l 977 0 l 779 0 l 692 250 l 315 250 l 232 0 l 34 0 m 363 396 l 643 396 l 599 525 q 552 680 576 595 q 500 869 528 764 q 450 678 473 764 q 406 525 427 592 l 363 396 m 407 1116 l 249 1116 l 249 1121 l 433 1315 l 575 1315 l 759 1121 l 759 1116 l 600 1116 l 504 1232 l 407 1116 m 505 -300 q 433 -272 463 -300 q 403 -203 403 -244 q 433 -135 403 -163 q 505 -107 463 -107 q 578 -135 548 -107 q 608 -203 608 -163 q 578 -272 608 -244 q 505 -300 548 -300 z "},"Ắ":{"ha":1010,"x_min":34,"x_max":977,"o":"m 34 0 l 387 1010 l 616 1010 l 977 0 l 779 0 l 692 250 l 315 250 l 232 0 l 34 0 m 363 396 l 643 396 l 599 525 q 552 680 576 595 q 500 869 528 764 q 450 678 473 764 q 406 525 427 592 l 363 396 m 507 1090 q 394 1117 444 1090 q 314 1191 344 1144 q 285 1294 285 1237 l 394 1294 q 426 1221 394 1250 q 507 1193 458 1193 q 587 1221 555 1193 q 618 1294 618 1250 l 728 1294 q 699 1191 728 1237 q 619 1117 669 1144 q 507 1090 569 1090 m 448 1352 l 536 1535 l 690 1535 l 563 1352 l 448 1352 z "},"Ằ":{"ha":1010,"x_min":34,"x_max":977,"o":"m 34 0 l 387 1010 l 616 1010 l 977 0 l 779 0 l 692 250 l 315 250 l 232 0 l 34 0 m 363 396 l 643 396 l 599 525 q 552 680 576 595 q 500 869 528 764 q 450 678 473 764 q 406 525 427 592 l 363 396 m 502 1090 q 389 1117 439 1090 q 310 1191 339 1144 q 281 1294 281 1237 l 390 1294 q 422 1221 390 1250 q 502 1193 454 1193 q 583 1221 551 1193 q 614 1294 614 1250 l 724 1294 q 694 1191 724 1237 q 615 1117 665 1144 q 502 1090 565 1090 m 561 1352 l 446 1352 l 319 1535 l 473 1535 l 561 1352 z "},"Ẳ":{"ha":1010,"x_min":34,"x_max":977,"o":"m 34 0 l 387 1010 l 616 1010 l 977 0 l 779 0 l 692 250 l 315 250 l 232 0 l 34 0 m 363 396 l 643 396 l 599 525 q 552 680 576 595 q 500 869 528 764 q 450 678 473 764 q 406 525 427 592 l 363 396 m 507 1090 q 394 1117 444 1090 q 314 1191 344 1144 q 285 1294 285 1237 l 394 1294 q 426 1221 394 1250 q 507 1193 458 1193 q 587 1221 555 1193 q 618 1294 618 1250 l 728 1294 q 699 1191 728 1237 q 619 1117 669 1144 q 507 1090 569 1090 m 557 1352 l 456 1352 l 499 1430 q 489 1448 509 1448 l 394 1448 l 394 1535 l 489 1535 q 582 1514 551 1535 q 612 1460 612 1493 q 588 1394 613 1428 l 557 1352 z "},"Ẵ":{"ha":1010,"x_min":34,"x_max":977,"o":"m 34 0 l 387 1010 l 616 1010 l 977 0 l 779 0 l 692 250 l 315 250 l 232 0 l 34 0 m 363 396 l 643 396 l 599 525 q 552 680 576 595 q 500 869 528 764 q 450 678 473 764 q 406 525 427 592 l 363 396 m 505 1093 q 393 1120 442 1093 q 314 1193 343 1147 q 285 1295 285 1238 l 392 1295 q 424 1222 392 1251 q 505 1194 456 1194 q 584 1222 553 1194 q 616 1295 616 1251 l 724 1295 q 695 1193 724 1238 q 616 1120 666 1147 q 505 1093 566 1093 m 604 1362 q 533 1377 564 1362 q 477 1407 502 1392 q 433 1422 452 1422 q 402 1406 412 1422 q 391 1365 392 1389 l 288 1365 q 324 1477 290 1436 q 418 1518 359 1518 q 489 1503 460 1518 q 543 1473 519 1488 q 589 1458 566 1458 q 633 1516 627 1458 l 734 1516 q 696 1402 732 1443 q 604 1362 661 1362 z "},"Ặ":{"ha":1010,"x_min":34,"x_max":977,"o":"m 34 0 l 387 1010 l 616 1010 l 977 0 l 779 0 l 692 250 l 315 250 l 232 0 l 34 0 m 363 396 l 643 396 l 599 525 q 552 680 576 595 q 500 869 528 764 q 450 678 473 764 q 406 525 427 592 l 363 396 m 505 1108 q 392 1136 442 1108 q 312 1209 342 1163 q 283 1313 283 1255 l 392 1313 q 424 1240 392 1269 q 505 1212 456 1212 q 585 1240 553 1212 q 616 1313 616 1269 l 726 1313 q 696 1210 726 1256 q 617 1136 667 1163 q 505 1108 567 1108 m 505 -300 q 433 -272 463 -300 q 403 -203 403 -244 q 433 -135 403 -163 q 505 -107 463 -107 q 578 -135 548 -107 q 608 -203 608 -163 q 578 -272 608 -244 q 505 -300 548 -300 z "},"Α":{"ha":1010,"x_min":34,"x_max":977,"o":"m 34 0 l 387 1010 l 616 1010 l 977 0 l 779 0 l 692 250 l 315 250 l 232 0 l 34 0 m 363 396 l 643 396 l 599 525 q 552 680 576 595 q 500 869 528 764 q 450 678 473 764 q 406 525 427 592 l 363 396 z "},"Ά":{"ha":1010,"x_min":34,"x_max":977,"o":"m 34 0 l 387 1010 l 616 1010 l 977 0 l 779 0 l 692 250 l 315 250 l 232 0 l 34 0 m 363 396 l 643 396 l 599 525 q 552 680 576 595 q 500 869 528 764 q 450 678 473 764 q 406 525 427 592 l 363 396 m 47 803 l 70 1010 l 236 1010 l 156 803 l 47 803 z "},"Ἀ":{"ha":1040,"x_min":62,"x_max":1006,"o":"m 63 0 l 416 1010 l 646 1010 l 1006 0 l 808 0 l 722 250 l 344 250 l 261 0 l 63 0 m 392 396 l 672 396 l 628 525 q 582 680 606 595 q 529 869 557 764 q 479 678 502 764 q 435 525 456 592 l 392 396 m 90 810 l 81 810 l 81 863 l 90 863 q 161 908 161 863 q 94 948 161 948 l 62 948 l 62 1034 l 90 1034 q 263 923 263 1034 q 90 810 263 810 z "},"Ἁ":{"ha":1048,"x_min":58,"x_max":1015,"o":"m 71 0 l 424 1010 l 654 1010 l 1015 0 l 816 0 l 730 250 l 352 250 l 269 0 l 71 0 m 400 396 l 680 396 l 636 525 q 590 680 614 595 q 537 869 566 764 q 487 678 510 764 q 443 525 464 592 l 400 396 m 231 792 q 58 905 58 792 q 231 1017 58 1017 l 260 1017 l 260 930 l 228 930 q 160 890 160 930 q 231 846 160 846 l 240 846 l 240 792 l 231 792 z "},"Ἂ":{"ha":1282,"x_min":56,"x_max":1249,"o":"m 306 0 l 659 1010 l 888 1010 l 1249 0 l 1050 0 l 964 250 l 587 250 l 504 0 l 306 0 m 635 396 l 915 396 l 871 525 q 824 680 848 595 q 772 869 800 764 q 722 678 745 764 q 677 525 699 592 l 635 396 m 85 792 l 76 792 l 76 846 l 85 846 q 156 890 156 846 q 88 930 156 930 l 56 930 l 56 1017 l 85 1017 q 258 905 258 1017 q 85 792 258 792 m 464 800 l 362 800 l 288 1010 l 443 1010 l 464 800 z "},"Ἃ":{"ha":1305,"x_min":56,"x_max":1272,"o":"m 328 0 l 681 1010 l 911 1010 l 1272 0 l 1073 0 l 987 250 l 609 250 l 526 0 l 328 0 m 657 396 l 937 396 l 893 525 q 847 680 871 595 q 794 869 823 764 q 744 678 767 764 q 700 525 721 592 l 657 396 m 229 792 q 56 905 56 792 q 229 1017 56 1017 l 258 1017 l 258 930 l 226 930 q 158 890 158 930 q 229 846 158 846 l 238 846 l 238 792 l 229 792 m 486 800 l 385 800 l 310 1010 l 465 1010 l 486 800 z "},"Ἄ":{"ha":1289,"x_min":56,"x_max":1255,"o":"m 311 0 l 664 1010 l 894 1010 l 1255 0 l 1056 0 l 970 250 l 592 250 l 509 0 l 311 0 m 640 396 l 920 396 l 876 525 q 830 680 854 595 q 777 869 806 764 q 727 678 750 764 q 683 525 704 592 l 640 396 m 85 792 l 76 792 l 76 846 l 85 846 q 156 890 156 846 q 88 930 156 930 l 56 930 l 56 1017 l 85 1017 q 258 905 258 1017 q 85 792 258 792 m 342 800 l 363 1010 l 518 1010 l 444 800 l 342 800 z "},"Ἅ":{"ha":1303,"x_min":56,"x_max":1270,"o":"m 327 0 l 680 1010 l 909 1010 l 1270 0 l 1072 0 l 985 250 l 608 250 l 525 0 l 327 0 m 656 396 l 936 396 l 892 525 q 845 680 869 595 q 793 869 821 764 q 743 678 766 764 q 699 525 720 592 l 656 396 m 229 792 q 56 905 56 792 q 229 1017 56 1017 l 258 1017 l 258 930 l 226 930 q 158 890 158 930 q 229 846 158 846 l 238 846 l 238 792 l 229 792 m 353 800 l 375 1010 l 530 1010 l 455 800 l 353 800 z "},"Ἆ":{"ha":1162,"x_min":56,"x_max":1128,"o":"m 184 0 l 537 1010 l 767 1010 l 1128 0 l 929 0 l 843 250 l 465 250 l 382 0 l 184 0 m 513 396 l 793 396 l 749 525 q 703 680 727 595 q 650 869 679 764 q 600 678 623 764 q 556 525 577 592 l 513 396 m 372 1093 q 301 1109 332 1093 q 245 1140 270 1124 q 201 1156 221 1156 q 171 1139 181 1156 q 159 1097 161 1122 l 56 1097 q 93 1213 58 1171 q 187 1256 127 1256 q 258 1240 228 1256 q 311 1208 288 1224 q 357 1193 335 1193 q 401 1253 396 1193 l 503 1253 q 465 1136 500 1178 q 372 1093 429 1093 m 207 804 l 198 804 l 198 858 l 207 858 q 278 903 278 858 q 210 943 278 943 l 178 943 l 178 1029 l 207 1029 q 380 918 380 1029 q 207 804 380 804 z "},"Ἇ":{"ha":1173,"x_min":56,"x_max":1139,"o":"m 195 0 l 548 1010 l 778 1010 l 1139 0 l 940 0 l 854 250 l 476 250 l 393 0 l 195 0 m 524 396 l 804 396 l 760 525 q 714 680 738 595 q 661 869 690 764 q 611 678 634 764 q 567 525 588 592 l 524 396 m 372 1078 q 301 1094 332 1078 q 245 1125 270 1109 q 201 1141 221 1141 q 171 1124 181 1141 q 159 1082 161 1107 l 56 1082 q 93 1198 58 1156 q 187 1241 127 1241 q 258 1225 228 1241 q 311 1194 288 1209 q 357 1178 335 1178 q 401 1238 396 1178 l 503 1238 q 465 1121 500 1163 q 372 1078 429 1078 m 351 789 q 178 903 178 789 q 351 1014 178 1014 l 380 1014 l 380 928 l 348 928 q 280 888 280 928 q 351 843 280 843 l 360 843 l 360 789 l 351 789 z "},"Ᾰ":{"ha":1010,"x_min":34,"x_max":977,"o":"m 34 0 l 387 1010 l 616 1010 l 977 0 l 779 0 l 692 250 l 315 250 l 232 0 l 34 0 m 363 396 l 643 396 l 599 525 q 552 680 576 595 q 500 869 528 764 q 450 678 473 764 q 406 525 427 592 l 363 396 m 505 1108 q 392 1136 442 1108 q 312 1209 342 1163 q 283 1313 283 1255 l 392 1313 q 424 1240 392 1269 q 505 1212 456 1212 q 585 1240 553 1212 q 616 1313 616 1269 l 726 1313 q 696 1210 726 1256 q 617 1136 667 1163 q 505 1108 567 1108 z "},"Ᾱ":{"ha":1010,"x_min":34,"x_max":977,"o":"m 34 0 l 387 1010 l 616 1010 l 977 0 l 779 0 l 692 250 l 315 250 l 232 0 l 34 0 m 363 396 l 643 396 l 599 525 q 552 680 576 595 q 500 869 528 764 q 450 678 473 764 q 406 525 427 592 l 363 396 m 698 1274 l 698 1155 l 311 1155 l 311 1274 l 698 1274 z "},"Ὰ":{"ha":1010,"x_min":-34,"x_max":977,"o":"m 34 0 l 387 1010 l 616 1010 l 977 0 l 779 0 l 692 250 l 315 250 l 232 0 l 34 0 m 363 396 l 643 396 l 599 525 q 552 680 576 595 q 500 869 528 764 q 450 678 473 764 q 406 525 427 592 l 363 396 m 155 851 l 45 851 l -34 1059 l 132 1059 l 155 851 z "},"Ⱥ":{"ha":1010,"x_min":34,"x_max":977,"o":"m 780 1138 l 679 837 l 977 0 l 779 0 l 692 250 l 481 250 l 354 -129 l 262 -129 l 390 250 l 315 250 l 232 0 l 34 0 l 387 1010 l 616 1010 l 631 968 l 688 1138 l 780 1138 m 439 396 l 544 708 q 523 786 534 745 q 500 869 512 826 q 450 678 473 764 q 406 525 427 592 l 363 396 l 439 396 m 587 564 l 530 396 l 643 396 l 599 525 q 587 564 593 543 z "},"Ά":{"ha":1053,"x_min":77,"x_max":1020,"o":"m 77 0 l 429 1010 l 659 1010 l 1020 0 l 821 0 l 735 250 l 357 250 l 275 0 l 77 0 m 406 396 l 686 396 l 642 525 q 595 680 619 595 q 543 869 571 764 q 492 678 515 764 q 448 525 469 592 l 406 396 m 90 803 l 113 1010 l 279 1010 l 199 803 l 90 803 z "},"А":{"ha":1010,"x_min":34,"x_max":977,"o":"m 34 0 l 387 1010 l 616 1010 l 977 0 l 779 0 l 692 250 l 315 250 l 232 0 l 34 0 m 363 396 l 643 396 l 599 525 q 552 680 576 595 q 500 869 528 764 q 450 678 473 764 q 406 525 427 592 l 363 396 z "},"Ӑ":{"ha":1010,"x_min":34,"x_max":977,"o":"m 34 0 l 387 1010 l 616 1010 l 977 0 l 779 0 l 692 250 l 315 250 l 232 0 l 34 0 m 363 396 l 643 396 l 599 525 q 552 680 576 595 q 500 869 528 764 q 450 678 473 764 q 406 525 427 592 l 363 396 m 505 1108 q 392 1136 442 1108 q 312 1209 342 1163 q 283 1313 283 1255 l 392 1313 q 424 1240 392 1269 q 505 1212 456 1212 q 585 1240 553 1212 q 616 1313 616 1269 l 726 1313 q 696 1210 726 1256 q 617 1136 667 1163 q 505 1108 567 1108 z "},"Ӓ":{"ha":1010,"x_min":34,"x_max":977,"o":"m 34 0 l 387 1010 l 616 1010 l 977 0 l 779 0 l 692 250 l 315 250 l 232 0 l 34 0 m 363 396 l 643 396 l 599 525 q 552 680 576 595 q 500 869 528 764 q 450 678 473 764 q 406 525 427 592 l 363 396 m 357 1122 q 290 1149 317 1122 q 262 1215 262 1176 q 290 1280 262 1253 q 357 1307 317 1307 q 423 1280 395 1307 q 451 1215 451 1253 q 423 1149 451 1176 q 357 1122 395 1122 m 652 1122 q 585 1149 613 1122 q 557 1215 557 1176 q 585 1280 557 1253 q 652 1307 613 1307 q 719 1280 691 1307 q 747 1215 747 1253 q 719 1149 747 1176 q 652 1122 691 1122 z "},"ᾈ":{"ha":1040,"x_min":62,"x_max":1006,"o":"m 63 0 l 416 1010 l 646 1010 l 1006 0 l 808 0 l 722 250 l 344 250 l 261 0 l 63 0 m 392 396 l 672 396 l 628 525 q 582 680 606 595 q 529 869 557 764 q 479 678 502 764 q 435 525 456 592 l 392 396 m 589 -335 q 465 -208 465 -335 l 465 -80 l 602 -80 l 602 -203 q 609 -238 602 -228 q 638 -248 616 -248 q 668 -246 651 -248 l 668 -326 q 631 -333 654 -330 q 589 -335 608 -335 m 90 810 l 81 810 l 81 863 l 90 863 q 161 908 161 863 q 94 948 161 948 l 62 948 l 62 1034 l 90 1034 q 263 923 263 1034 q 90 810 263 810 z "},"ᾉ":{"ha":1048,"x_min":58,"x_max":1015,"o":"m 71 0 l 424 1010 l 654 1010 l 1015 0 l 816 0 l 730 250 l 352 250 l 269 0 l 71 0 m 400 396 l 680 396 l 636 525 q 590 680 614 595 q 537 869 566 764 q 487 678 510 764 q 443 525 464 592 l 400 396 m 597 -335 q 473 -208 473 -335 l 473 -80 l 610 -80 l 610 -203 q 617 -238 610 -228 q 646 -248 624 -248 q 676 -246 659 -248 l 676 -326 q 639 -333 662 -330 q 597 -335 616 -335 m 231 792 q 58 905 58 792 q 231 1017 58 1017 l 260 1017 l 260 930 l 228 930 q 160 890 160 930 q 231 846 160 846 l 240 846 l 240 792 l 231 792 z "},"ᾊ":{"ha":1282,"x_min":56,"x_max":1249,"o":"m 306 0 l 659 1010 l 888 1010 l 1249 0 l 1050 0 l 964 250 l 587 250 l 504 0 l 306 0 m 635 396 l 915 396 l 871 525 q 824 680 848 595 q 772 869 800 764 q 722 678 745 764 q 677 525 699 592 l 635 396 m 831 -335 q 707 -208 707 -335 l 707 -80 l 844 -80 l 844 -203 q 851 -238 844 -228 q 880 -248 858 -248 q 910 -246 893 -248 l 910 -326 q 873 -333 896 -330 q 831 -335 850 -335 m 85 792 l 76 792 l 76 846 l 85 846 q 156 890 156 846 q 88 930 156 930 l 56 930 l 56 1017 l 85 1017 q 258 905 258 1017 q 85 792 258 792 m 464 800 l 362 800 l 288 1010 l 443 1010 l 464 800 z "},"ᾋ":{"ha":1305,"x_min":56,"x_max":1272,"o":"m 328 0 l 681 1010 l 911 1010 l 1272 0 l 1073 0 l 987 250 l 609 250 l 526 0 l 328 0 m 657 396 l 937 396 l 893 525 q 847 680 871 595 q 794 869 823 764 q 744 678 767 764 q 700 525 721 592 l 657 396 m 854 -335 q 730 -208 730 -335 l 730 -80 l 867 -80 l 867 -203 q 873 -238 867 -228 q 903 -248 880 -248 q 932 -246 916 -248 l 932 -326 q 895 -333 918 -330 q 854 -335 872 -335 m 229 792 q 56 905 56 792 q 229 1017 56 1017 l 258 1017 l 258 930 l 226 930 q 158 890 158 930 q 229 846 158 846 l 238 846 l 238 792 l 229 792 m 486 800 l 385 800 l 310 1010 l 465 1010 l 486 800 z "},"ᾌ":{"ha":1289,"x_min":56,"x_max":1255,"o":"m 311 0 l 664 1010 l 894 1010 l 1255 0 l 1056 0 l 970 250 l 592 250 l 509 0 l 311 0 m 640 396 l 920 396 l 876 525 q 830 680 854 595 q 777 869 806 764 q 727 678 750 764 q 683 525 704 592 l 640 396 m 85 792 l 76 792 l 76 846 l 85 846 q 156 890 156 846 q 88 930 156 930 l 56 930 l 56 1017 l 85 1017 q 258 905 258 1017 q 85 792 258 792 m 342 800 l 363 1010 l 518 1010 l 444 800 l 342 800 m 838 -335 q 713 -208 713 -335 l 713 -80 l 850 -80 l 850 -203 q 857 -238 850 -228 q 886 -248 864 -248 q 916 -246 899 -248 l 916 -326 q 879 -333 902 -330 q 838 -335 856 -335 z "},"ᾍ":{"ha":1303,"x_min":56,"x_max":1270,"o":"m 327 0 l 680 1010 l 909 1010 l 1270 0 l 1072 0 l 985 250 l 608 250 l 525 0 l 327 0 m 656 396 l 936 396 l 892 525 q 845 680 869 595 q 793 869 821 764 q 743 678 766 764 q 699 525 720 592 l 656 396 m 852 -335 q 728 -208 728 -335 l 728 -80 l 865 -80 l 865 -203 q 872 -238 865 -228 q 901 -248 879 -248 q 931 -246 914 -248 l 931 -326 q 894 -333 917 -330 q 852 -335 871 -335 m 229 792 q 56 905 56 792 q 229 1017 56 1017 l 258 1017 l 258 930 l 226 930 q 158 890 158 930 q 229 846 158 846 l 238 846 l 238 792 l 229 792 m 353 800 l 375 1010 l 530 1010 l 455 800 l 353 800 z "},"ᾎ":{"ha":1162,"x_min":56,"x_max":1128,"o":"m 184 0 l 537 1010 l 767 1010 l 1128 0 l 929 0 l 843 250 l 465 250 l 382 0 l 184 0 m 513 396 l 793 396 l 749 525 q 703 680 727 595 q 650 869 679 764 q 600 678 623 764 q 556 525 577 592 l 513 396 m 372 1093 q 301 1109 332 1093 q 245 1140 270 1124 q 201 1156 221 1156 q 171 1139 181 1156 q 159 1097 161 1122 l 56 1097 q 93 1213 58 1171 q 187 1256 127 1256 q 258 1240 228 1256 q 311 1208 288 1224 q 357 1193 335 1193 q 401 1253 396 1193 l 503 1253 q 465 1136 500 1178 q 372 1093 429 1093 m 207 804 l 198 804 l 198 858 l 207 858 q 278 903 278 858 q 210 943 278 943 l 178 943 l 178 1029 l 207 1029 q 380 918 380 1029 q 207 804 380 804 m 711 -335 q 587 -208 587 -335 l 587 -80 l 724 -80 l 724 -203 q 730 -238 724 -228 q 760 -248 737 -248 q 789 -246 772 -248 l 789 -326 q 752 -333 775 -330 q 711 -335 729 -335 z "},"ᾏ":{"ha":1173,"x_min":56,"x_max":1139,"o":"m 195 0 l 548 1010 l 778 1010 l 1139 0 l 940 0 l 854 250 l 476 250 l 393 0 l 195 0 m 524 396 l 804 396 l 760 525 q 714 680 738 595 q 661 869 690 764 q 611 678 634 764 q 567 525 588 592 l 524 396 m 722 -335 q 597 -208 597 -335 l 597 -80 l 734 -80 l 734 -203 q 741 -238 734 -228 q 770 -248 748 -248 q 800 -246 783 -248 l 800 -326 q 763 -333 786 -330 q 722 -335 740 -335 m 372 1078 q 301 1094 332 1078 q 245 1125 270 1109 q 201 1141 221 1141 q 171 1124 181 1141 q 159 1082 161 1107 l 56 1082 q 93 1198 58 1156 q 187 1241 127 1241 q 258 1225 228 1241 q 311 1194 288 1209 q 357 1178 335 1178 q 401 1238 396 1178 l 503 1238 q 465 1121 500 1163 q 372 1078 429 1078 m 351 789 q 178 903 178 789 q 351 1014 178 1014 l 380 1014 l 380 928 l 348 928 q 280 888 280 928 q 351 843 280 843 l 360 843 l 360 789 l 351 789 z "},"ᾼ":{"ha":1010,"x_min":34,"x_max":977,"o":"m 34 0 l 387 1010 l 616 1010 l 977 0 l 779 0 l 692 250 l 315 250 l 232 0 l 34 0 m 363 396 l 643 396 l 599 525 q 552 680 576 595 q 500 869 528 764 q 450 678 473 764 q 406 525 427 592 l 363 396 m 560 -335 q 436 -208 436 -335 l 436 -80 l 573 -80 l 573 -203 q 580 -238 573 -228 q 609 -248 587 -248 q 639 -246 622 -248 l 639 -326 q 602 -333 625 -330 q 560 -335 578 -335 z "},"Λ":{"ha":1010,"x_min":34,"x_max":977,"o":"m 34 0 l 387 1010 l 616 1010 l 977 0 l 779 0 l 599 525 q 552 680 576 595 q 500 869 528 764 q 450 678 473 764 q 406 525 427 592 l 232 0 l 34 0 z "},"Æ":{"ha":1407,"x_min":34,"x_max":1327,"o":"m 34 0 l 487 1010 l 1323 1010 l 1323 858 l 849 858 l 849 583 l 1290 583 l 1290 433 l 849 433 l 849 153 l 1327 153 l 1327 0 l 675 0 l 675 254 l 343 254 l 233 0 l 34 0 m 401 389 l 675 389 l 675 895 l 620 895 l 401 389 z "},"Ǣ":{"ha":1407,"x_min":34,"x_max":1327,"o":"m 34 0 l 487 1010 l 1323 1010 l 1323 858 l 849 858 l 849 583 l 1290 583 l 1290 433 l 849 433 l 849 153 l 1327 153 l 1327 0 l 675 0 l 675 254 l 343 254 l 233 0 l 34 0 m 401 389 l 675 389 l 675 895 l 620 895 l 401 389 m 1099 1274 l 1099 1155 l 712 1155 l 712 1274 l 1099 1274 z "},"Ǽ":{"ha":1407,"x_min":34,"x_max":1327,"o":"m 34 0 l 487 1010 l 1323 1010 l 1323 858 l 849 858 l 849 583 l 1290 583 l 1290 433 l 849 433 l 849 153 l 1327 153 l 1327 0 l 675 0 l 675 254 l 343 254 l 233 0 l 34 0 m 401 389 l 675 389 l 675 895 l 620 895 l 401 389 m 839 1107 l 933 1315 l 1104 1315 l 967 1107 l 839 1107 z "},"Ӕ":{"ha":1407,"x_min":34,"x_max":1327,"o":"m 34 0 l 487 1010 l 1323 1010 l 1323 858 l 849 858 l 849 583 l 1290 583 l 1290 433 l 849 433 l 849 153 l 1327 153 l 1327 0 l 675 0 l 675 254 l 343 254 l 233 0 l 34 0 m 401 389 l 675 389 l 675 895 l 620 895 l 401 389 z "},"B":{"ha":916,"x_min":102,"x_max":854,"o":"m 102 0 l 102 1010 l 488 1010 q 670 976 597 1010 q 778 883 742 942 q 814 748 814 823 q 763 603 814 656 q 638 533 712 550 l 638 523 q 741 490 692 520 q 822 406 791 460 q 854 275 854 352 q 816 134 854 197 q 702 36 778 72 q 509 0 625 0 l 102 0 m 283 151 l 481 151 q 626 190 581 151 q 670 289 670 229 q 621 403 670 357 q 487 449 571 449 l 283 449 l 283 151 m 283 580 l 465 580 q 585 619 537 580 q 633 725 633 658 q 592 822 633 784 q 469 860 551 860 l 283 860 l 283 580 z "},"Ḃ":{"ha":916,"x_min":102,"x_max":854,"o":"m 102 0 l 102 1010 l 488 1010 q 670 976 597 1010 q 778 883 742 942 q 814 748 814 823 q 763 603 814 656 q 638 533 712 550 l 638 523 q 741 490 692 520 q 822 406 791 460 q 854 275 854 352 q 816 134 854 197 q 702 36 778 72 q 509 0 625 0 l 102 0 m 283 151 l 481 151 q 626 190 581 151 q 670 289 670 229 q 621 403 670 357 q 487 449 571 449 l 283 449 l 283 151 m 283 580 l 465 580 q 585 619 537 580 q 633 725 633 658 q 592 822 633 784 q 469 860 551 860 l 283 860 l 283 580 m 441 1118 q 369 1146 399 1118 q 339 1215 339 1174 q 369 1283 339 1255 q 441 1311 399 1311 q 514 1283 484 1311 q 545 1215 545 1255 q 514 1146 545 1174 q 441 1118 484 1118 z "},"Ḅ":{"ha":916,"x_min":102,"x_max":854,"o":"m 102 0 l 102 1010 l 488 1010 q 670 976 597 1010 q 778 883 742 942 q 814 748 814 823 q 763 603 814 656 q 638 533 712 550 l 638 523 q 741 490 692 520 q 822 406 791 460 q 854 275 854 352 q 816 134 854 197 q 702 36 778 72 q 509 0 625 0 l 102 0 m 283 151 l 481 151 q 626 190 581 151 q 670 289 670 229 q 621 403 670 357 q 487 449 571 449 l 283 449 l 283 151 m 283 580 l 465 580 q 585 619 537 580 q 633 725 633 658 q 592 822 633 784 q 469 860 551 860 l 283 860 l 283 580 m 446 -300 q 373 -272 404 -300 q 343 -203 343 -244 q 373 -135 343 -163 q 446 -107 404 -107 q 518 -135 488 -107 q 549 -203 549 -163 q 518 -272 549 -244 q 446 -300 488 -300 z "},"Ḇ":{"ha":916,"x_min":102,"x_max":854,"o":"m 102 0 l 102 1010 l 488 1010 q 670 976 597 1010 q 778 883 742 942 q 814 748 814 823 q 763 603 814 656 q 638 533 712 550 l 638 523 q 741 490 692 520 q 822 406 791 460 q 854 275 854 352 q 816 134 854 197 q 702 36 778 72 q 509 0 625 0 l 102 0 m 283 151 l 481 151 q 626 190 581 151 q 670 289 670 229 q 621 403 670 357 q 487 449 571 449 l 283 449 l 283 151 m 283 580 l 465 580 q 585 619 537 580 q 633 725 633 658 q 592 822 633 784 q 469 860 551 860 l 283 860 l 283 580 m 639 -144 l 639 -263 l 252 -263 l 252 -144 l 639 -144 z "},"Ƀ":{"ha":935,"x_min":12,"x_max":873,"o":"m 121 0 l 121 1010 l 508 1010 q 689 976 617 1010 q 798 883 762 942 q 834 748 834 823 q 783 603 834 656 q 658 533 732 550 l 658 523 q 761 490 711 520 q 842 406 810 460 q 873 275 873 352 q 836 134 873 197 q 721 36 798 72 q 529 0 645 0 l 121 0 m 302 151 l 500 151 q 645 190 601 151 q 690 289 690 229 q 640 403 690 357 q 507 449 591 449 l 302 449 l 302 151 m 302 580 l 485 580 q 605 619 557 580 q 653 725 653 658 q 612 822 653 784 q 489 860 570 860 l 302 860 l 302 580 m 12 258 l 12 343 l 483 343 l 483 258 l 12 258 z "},"Ɓ":{"ha":1154,"x_min":37,"x_max":1093,"o":"m 37 734 l 37 783 q 100 955 37 899 q 295 1010 163 1010 l 727 1010 q 908 976 836 1010 q 1017 883 981 942 q 1053 748 1053 823 q 1002 603 1053 656 q 877 533 951 550 l 877 523 q 980 490 930 520 q 1061 406 1029 460 q 1093 275 1093 352 q 1055 134 1093 197 q 940 36 1017 72 q 748 0 864 0 l 340 0 l 340 859 l 292 859 q 200 772 200 859 l 200 734 l 37 734 m 522 151 l 720 151 q 864 190 820 151 q 909 289 909 229 q 859 403 909 357 q 726 449 810 449 l 522 449 l 522 151 m 522 580 l 704 580 q 824 619 776 580 q 872 725 872 658 q 831 822 872 784 q 708 860 789 860 l 522 860 l 522 580 z "},"В":{"ha":916,"x_min":102,"x_max":854,"o":"m 102 0 l 102 1010 l 488 1010 q 670 976 597 1010 q 778 883 742 942 q 814 748 814 823 q 763 603 814 656 q 638 533 712 550 l 638 523 q 741 490 692 520 q 822 406 791 460 q 854 275 854 352 q 816 134 854 197 q 702 36 778 72 q 509 0 625 0 l 102 0 m 283 151 l 481 151 q 626 190 581 151 q 670 289 670 229 q 621 403 670 357 q 487 449 571 449 l 283 449 l 283 151 m 283 580 l 465 580 q 585 619 537 580 q 633 725 633 658 q 592 822 633 784 q 469 860 551 860 l 283 860 l 283 580 z "},"Β":{"ha":916,"x_min":102,"x_max":854,"o":"m 102 0 l 102 1010 l 488 1010 q 670 976 597 1010 q 778 883 742 942 q 814 748 814 823 q 763 603 814 656 q 638 533 712 550 l 638 523 q 741 490 692 520 q 822 406 791 460 q 854 275 854 352 q 816 134 854 197 q 702 36 778 72 q 509 0 625 0 l 102 0 m 283 151 l 481 151 q 626 190 581 151 q 670 289 670 229 q 621 403 670 357 q 487 449 571 449 l 283 449 l 283 151 m 283 580 l 465 580 q 585 619 537 580 q 633 725 633 658 q 592 822 633 784 q 469 860 551 860 l 283 860 l 283 580 z "},"C":{"ha":1023,"x_min":70,"x_max":959,"o":"m 532 -14 q 295 48 399 -14 q 130 226 191 110 q 70 505 70 342 q 131 784 70 668 q 296 962 191 901 q 532 1024 400 1024 q 733 983 643 1024 q 883 863 824 941 q 958 674 942 785 l 776 674 q 692 813 759 764 q 535 862 626 862 q 331 769 411 862 q 252 505 252 677 q 332 239 252 330 q 534 149 412 149 q 692 198 625 149 q 776 336 759 247 l 959 336 q 889 160 945 239 q 743 34 833 81 q 532 -14 652 -14 z "},"Ƈ":{"ha":1023,"x_min":70,"x_max":1108,"o":"m 532 -14 q 295 48 399 -14 q 130 226 191 110 q 70 505 70 342 q 131 784 70 668 q 296 962 191 901 q 532 1024 400 1024 q 785 954 678 1024 q 1015 1146 791 1146 q 1108 1137 1071 1146 l 1108 1005 q 1055 1009 1079 1009 q 981 994 1004 1009 q 958 946 958 979 l 958 674 l 776 674 q 692 813 759 764 q 535 862 626 862 q 331 769 411 862 q 252 505 252 677 q 332 239 252 330 q 534 149 412 149 q 692 198 625 149 q 776 336 759 247 l 959 336 q 889 160 945 239 q 743 34 833 81 q 532 -14 652 -14 z "},"Ç":{"ha":1023,"x_min":70,"x_max":959,"o":"m 532 -14 q 295 48 399 -14 q 130 226 191 110 q 70 505 70 342 q 131 784 70 668 q 296 962 191 901 q 532 1024 400 1024 q 733 983 643 1024 q 883 863 824 941 q 958 674 942 785 l 776 674 q 692 813 759 764 q 535 862 626 862 q 331 769 411 862 q 252 505 252 677 q 332 239 252 330 q 534 149 412 149 q 692 198 625 149 q 776 336 759 247 l 959 336 q 889 160 945 239 q 743 34 833 81 q 532 -14 652 -14 m 447 -287 l 447 -210 l 531 -210 q 579 -200 565 -210 q 593 -167 593 -190 q 579 -134 593 -143 q 531 -124 565 -124 l 471 -124 l 494 27 l 568 27 l 568 -3 l 566 -62 q 697 -170 697 -60 q 659 -259 697 -232 q 537 -287 621 -287 l 447 -287 z "},"Ć":{"ha":1023,"x_min":70,"x_max":959,"o":"m 532 -14 q 295 48 399 -14 q 130 226 191 110 q 70 505 70 342 q 131 784 70 668 q 296 962 191 901 q 532 1024 400 1024 q 733 983 643 1024 q 883 863 824 941 q 958 674 942 785 l 776 674 q 692 813 759 764 q 535 862 626 862 q 331 769 411 862 q 252 505 252 677 q 332 239 252 330 q 534 149 412 149 q 692 198 625 149 q 776 336 759 247 l 959 336 q 889 160 945 239 q 743 34 833 81 q 532 -14 652 -14 m 465 1107 l 559 1315 l 730 1315 l 593 1107 l 465 1107 z "},"Ĉ":{"ha":1023,"x_min":70,"x_max":959,"o":"m 532 -14 q 295 48 399 -14 q 130 226 191 110 q 70 505 70 342 q 131 784 70 668 q 296 962 191 901 q 532 1024 400 1024 q 733 983 643 1024 q 883 863 824 941 q 958 674 942 785 l 776 674 q 692 813 759 764 q 535 862 626 862 q 331 769 411 862 q 252 505 252 677 q 332 239 252 330 q 534 149 412 149 q 692 198 625 149 q 776 336 759 247 l 959 336 q 889 160 945 239 q 743 34 833 81 q 532 -14 652 -14 m 435 1116 l 277 1116 l 277 1121 l 461 1315 l 604 1315 l 787 1121 l 787 1116 l 629 1116 l 532 1232 l 435 1116 z "},"Ċ":{"ha":1023,"x_min":70,"x_max":959,"o":"m 532 -14 q 295 48 399 -14 q 130 226 191 110 q 70 505 70 342 q 131 784 70 668 q 296 962 191 901 q 532 1024 400 1024 q 733 983 643 1024 q 883 863 824 941 q 958 674 942 785 l 776 674 q 692 813 759 764 q 535 862 626 862 q 331 769 411 862 q 252 505 252 677 q 332 239 252 330 q 534 149 412 149 q 692 198 625 149 q 776 336 759 247 l 959 336 q 889 160 945 239 q 743 34 833 81 q 532 -14 652 -14 m 532 1118 q 459 1146 490 1118 q 429 1215 429 1174 q 459 1283 429 1255 q 532 1311 490 1311 q 605 1283 574 1311 q 635 1215 635 1255 q 605 1146 635 1174 q 532 1118 574 1118 z "},"Č":{"ha":1023,"x_min":70,"x_max":959,"o":"m 532 -14 q 295 48 399 -14 q 130 226 191 110 q 70 505 70 342 q 131 784 70 668 q 296 962 191 901 q 532 1024 400 1024 q 733 983 643 1024 q 883 863 824 941 q 958 674 942 785 l 776 674 q 692 813 759 764 q 535 862 626 862 q 331 769 411 862 q 252 505 252 677 q 332 239 252 330 q 534 149 412 149 q 692 198 625 149 q 776 336 759 247 l 959 336 q 889 160 945 239 q 743 34 833 81 q 532 -14 652 -14 m 435 1315 l 532 1198 l 629 1315 l 787 1315 l 787 1310 l 604 1116 l 461 1116 l 277 1310 l 277 1315 l 435 1315 z "},"Ḉ":{"ha":1023,"x_min":70,"x_max":959,"o":"m 532 -14 q 295 48 399 -14 q 130 226 191 110 q 70 505 70 342 q 131 784 70 668 q 296 962 191 901 q 532 1024 400 1024 q 733 983 643 1024 q 883 863 824 941 q 958 674 942 785 l 776 674 q 692 813 759 764 q 535 862 626 862 q 331 769 411 862 q 252 505 252 677 q 332 239 252 330 q 534 149 412 149 q 692 198 625 149 q 776 336 759 247 l 959 336 q 889 160 945 239 q 743 34 833 81 q 532 -14 652 -14 m 447 -287 l 447 -210 l 531 -210 q 579 -200 565 -210 q 593 -167 593 -190 q 579 -134 593 -143 q 531 -124 565 -124 l 471 -124 l 494 27 l 568 27 l 568 -3 l 566 -62 q 697 -170 697 -60 q 659 -259 697 -232 q 537 -287 621 -287 l 447 -287 m 465 1107 l 559 1315 l 730 1315 l 593 1107 l 465 1107 z "},"Ȼ":{"ha":1023,"x_min":70,"x_max":959,"o":"m 245 -129 l 303 43 q 133 221 197 103 q 70 505 70 338 q 131 784 70 668 q 296 962 191 901 q 532 1024 400 1024 q 629 1015 583 1024 l 670 1138 l 793 1138 l 740 980 q 885 860 827 938 q 958 674 943 783 l 776 674 q 744 758 767 722 q 686 818 720 793 l 464 157 q 534 149 498 149 q 692 198 625 149 q 776 336 759 247 l 959 336 q 889 160 945 239 q 743 34 833 81 q 532 -14 652 -14 q 411 1 469 -14 l 368 -129 l 245 -129 m 359 211 l 576 859 q 535 862 556 862 q 331 769 411 862 q 252 505 252 677 q 280 329 252 403 q 359 211 309 255 z "},"Ɔ":{"ha":1023,"x_min":64,"x_max":953,"o":"m 491 1024 q 728 962 624 1024 q 893 785 833 901 q 953 506 953 669 q 892 226 953 342 q 727 48 832 110 q 491 -14 623 -14 q 289 28 380 -14 q 140 148 199 69 q 65 336 81 226 l 248 336 q 331 198 264 247 q 488 149 397 149 q 692 241 612 149 q 771 506 771 334 q 691 771 771 680 q 488 862 612 862 q 331 813 398 862 q 247 674 264 764 l 64 674 q 134 850 78 771 q 280 977 189 930 q 491 1024 372 1024 z "},"Ϲ":{"ha":1023,"x_min":70,"x_max":959,"o":"m 532 -14 q 295 48 399 -14 q 130 226 191 110 q 70 505 70 342 q 131 784 70 668 q 296 962 191 901 q 532 1024 400 1024 q 733 983 643 1024 q 883 863 824 941 q 958 674 942 785 l 776 674 q 692 813 759 764 q 535 862 626 862 q 331 769 411 862 q 252 505 252 677 q 332 239 252 330 q 534 149 412 149 q 692 198 625 149 q 776 336 759 247 l 959 336 q 889 160 945 239 q 743 34 833 81 q 532 -14 652 -14 z "},"D":{"ha":1003,"x_min":102,"x_max":932,"o":"m 444 0 l 102 0 l 102 1010 l 450 1010 q 709 950 601 1010 q 875 776 817 889 q 932 507 932 663 q 874 235 932 349 q 707 61 817 121 q 444 0 597 0 m 283 157 l 435 157 q 754 507 754 157 q 439 854 754 854 l 283 854 l 283 157 z "},"Ɗ":{"ha":1242,"x_min":37,"x_max":1171,"o":"m 37 734 l 37 783 q 100 955 37 899 q 295 1010 163 1010 l 689 1010 q 948 950 840 1010 q 1114 776 1056 889 q 1171 507 1171 663 q 1113 235 1171 349 q 946 61 1055 121 q 682 0 836 0 l 340 0 l 340 859 l 292 859 q 200 772 200 859 l 200 734 l 37 734 m 522 157 l 673 157 q 993 507 993 157 q 678 854 993 854 l 522 854 l 522 157 z "},"Ď":{"ha":1003,"x_min":102,"x_max":932,"o":"m 444 0 l 102 0 l 102 1010 l 450 1010 q 709 950 601 1010 q 875 776 817 889 q 932 507 932 663 q 874 235 932 349 q 707 61 817 121 q 444 0 597 0 m 283 157 l 435 157 q 754 507 754 157 q 439 854 754 854 l 283 854 l 283 157 m 317 1315 l 414 1198 l 510 1315 l 669 1315 l 669 1310 l 485 1116 l 342 1116 l 159 1310 l 159 1315 l 317 1315 z "},"Ḋ":{"ha":1003,"x_min":102,"x_max":932,"o":"m 444 0 l 102 0 l 102 1010 l 450 1010 q 709 950 601 1010 q 875 776 817 889 q 932 507 932 663 q 874 235 932 349 q 707 61 817 121 q 444 0 597 0 m 283 157 l 435 157 q 754 507 754 157 q 439 854 754 854 l 283 854 l 283 157 m 414 1118 q 341 1146 372 1118 q 311 1215 311 1174 q 341 1283 311 1255 q 414 1311 372 1311 q 487 1283 456 1311 q 517 1215 517 1255 q 487 1146 517 1174 q 414 1118 456 1118 z "},"Ḍ":{"ha":1003,"x_min":102,"x_max":932,"o":"m 444 0 l 102 0 l 102 1010 l 450 1010 q 709 950 601 1010 q 875 776 817 889 q 932 507 932 663 q 874 235 932 349 q 707 61 817 121 q 444 0 597 0 m 283 157 l 435 157 q 754 507 754 157 q 439 854 754 854 l 283 854 l 283 157 m 438 -300 q 366 -272 396 -300 q 336 -203 336 -244 q 366 -135 336 -163 q 438 -107 396 -107 q 511 -135 481 -107 q 541 -203 541 -163 q 511 -272 541 -244 q 438 -300 481 -300 z "},"Ḏ":{"ha":1003,"x_min":102,"x_max":932,"o":"m 444 0 l 102 0 l 102 1010 l 450 1010 q 709 950 601 1010 q 875 776 817 889 q 932 507 932 663 q 874 235 932 349 q 707 61 817 121 q 444 0 597 0 m 283 157 l 435 157 q 754 507 754 157 q 439 854 754 854 l 283 854 l 283 157 m 631 -144 l 631 -263 l 243 -263 l 243 -144 l 631 -144 z "},"Ḑ":{"ha":1003,"x_min":102,"x_max":932,"o":"m 444 0 l 102 0 l 102 1010 l 450 1010 q 709 950 601 1010 q 875 776 817 889 q 932 507 932 663 q 874 235 932 349 q 707 61 817 121 q 444 0 597 0 m 283 157 l 435 157 q 754 507 754 157 q 439 854 754 854 l 283 854 l 283 157 m 294 -328 l 353 -80 l 521 -80 l 421 -328 l 294 -328 z "},"Ḓ":{"ha":1003,"x_min":102,"x_max":932,"o":"m 444 0 l 102 0 l 102 1010 l 450 1010 q 709 950 601 1010 q 875 776 817 889 q 932 507 932 663 q 874 235 932 349 q 707 61 817 121 q 444 0 597 0 m 283 157 l 435 157 q 754 507 754 157 q 439 854 754 854 l 283 854 l 283 157 m 343 -303 l 185 -303 l 185 -298 l 369 -104 l 511 -104 l 695 -298 l 695 -303 l 536 -303 l 440 -187 l 343 -303 z "},"Ɖ":{"ha":1044,"x_min":14,"x_max":973,"o":"m 484 0 l 142 0 l 142 1010 l 491 1010 q 750 950 642 1010 q 916 776 858 889 q 973 507 973 663 q 915 235 973 349 q 748 61 857 121 q 484 0 638 0 m 323 157 l 475 157 q 795 507 795 157 q 480 854 795 854 l 323 854 l 323 157 m 14 441 l 14 569 l 556 569 l 556 441 l 14 441 z "},"ǲ":{"ha":1788,"x_min":102,"x_max":1706,"o":"m 444 0 l 102 0 l 102 1010 l 450 1010 q 709 950 601 1010 q 875 776 817 889 q 932 507 932 663 q 874 235 932 349 q 707 61 817 121 q 444 0 597 0 m 283 157 l 435 157 q 754 507 754 157 q 439 854 754 854 l 283 854 l 283 157 m 1086 0 l 1086 113 l 1477 605 l 1477 611 l 1098 611 l 1098 758 l 1693 758 l 1693 636 l 1320 153 l 1320 147 l 1706 147 l 1706 0 l 1086 0 z "},"ǅ":{"ha":1788,"x_min":102,"x_max":1706,"o":"m 444 0 l 102 0 l 102 1010 l 450 1010 q 709 950 601 1010 q 875 776 817 889 q 932 507 932 663 q 874 235 932 349 q 707 61 817 121 q 444 0 597 0 m 283 157 l 435 157 q 754 507 754 157 q 439 854 754 854 l 283 854 l 283 157 m 1086 0 l 1086 113 l 1477 605 l 1477 611 l 1098 611 l 1098 758 l 1693 758 l 1693 636 l 1320 153 l 1320 147 l 1706 147 l 1706 0 l 1086 0 m 1295 1063 l 1392 946 l 1488 1063 l 1647 1063 l 1647 1057 l 1463 863 l 1320 863 l 1137 1057 l 1137 1063 l 1295 1063 z "},"E":{"ha":841,"x_min":102,"x_max":761,"o":"m 102 0 l 102 1010 l 758 1010 l 758 858 l 283 858 l 283 585 l 723 585 l 723 435 l 283 435 l 283 153 l 761 153 l 761 0 l 102 0 z "},"È":{"ha":841,"x_min":102,"x_max":761,"o":"m 102 0 l 102 1010 l 758 1010 l 758 858 l 283 858 l 283 585 l 723 585 l 723 435 l 283 435 l 283 153 l 761 153 l 761 0 l 102 0 m 369 1107 l 232 1315 l 404 1315 l 498 1107 l 369 1107 z "},"É":{"ha":841,"x_min":102,"x_max":761,"o":"m 102 0 l 102 1010 l 758 1010 l 758 858 l 283 858 l 283 585 l 723 585 l 723 435 l 283 435 l 283 153 l 761 153 l 761 0 l 102 0 m 365 1107 l 459 1315 l 630 1315 l 493 1107 l 365 1107 z "},"Ê":{"ha":841,"x_min":102,"x_max":761,"o":"m 102 0 l 102 1010 l 758 1010 l 758 858 l 283 858 l 283 585 l 723 585 l 723 435 l 283 435 l 283 153 l 761 153 l 761 0 l 102 0 m 335 1116 l 177 1116 l 177 1121 l 361 1315 l 503 1315 l 687 1121 l 687 1116 l 528 1116 l 432 1232 l 335 1116 z "},"Ë":{"ha":841,"x_min":102,"x_max":761,"o":"m 102 0 l 102 1010 l 758 1010 l 758 858 l 283 858 l 283 585 l 723 585 l 723 435 l 283 435 l 283 153 l 761 153 l 761 0 l 102 0 m 284 1122 q 217 1149 245 1122 q 190 1215 190 1176 q 217 1280 190 1253 q 284 1307 245 1307 q 351 1280 323 1307 q 378 1215 378 1253 q 351 1149 378 1176 q 284 1122 323 1122 m 580 1122 q 513 1149 541 1122 q 485 1215 485 1176 q 513 1280 485 1253 q 580 1307 541 1307 q 646 1280 618 1307 q 674 1215 674 1253 q 646 1149 674 1176 q 580 1122 618 1122 z "},"Ē":{"ha":841,"x_min":102,"x_max":761,"o":"m 102 0 l 102 1010 l 758 1010 l 758 858 l 283 858 l 283 585 l 723 585 l 723 435 l 283 435 l 283 153 l 761 153 l 761 0 l 102 0 m 625 1274 l 625 1155 l 238 1155 l 238 1274 l 625 1274 z "},"Ĕ":{"ha":841,"x_min":102,"x_max":761,"o":"m 102 0 l 102 1010 l 758 1010 l 758 858 l 283 858 l 283 585 l 723 585 l 723 435 l 283 435 l 283 153 l 761 153 l 761 0 l 102 0 m 432 1108 q 319 1136 370 1108 q 240 1209 269 1163 q 210 1313 210 1255 l 319 1313 q 351 1240 319 1269 q 432 1212 383 1212 q 512 1240 480 1212 q 544 1313 544 1269 l 653 1313 q 624 1210 653 1256 q 545 1136 595 1163 q 432 1108 494 1108 z "},"Ė":{"ha":841,"x_min":102,"x_max":761,"o":"m 102 0 l 102 1010 l 758 1010 l 758 858 l 283 858 l 283 585 l 723 585 l 723 435 l 283 435 l 283 153 l 761 153 l 761 0 l 102 0 m 432 1118 q 360 1146 390 1118 q 330 1215 330 1174 q 360 1283 330 1255 q 432 1311 390 1311 q 505 1283 475 1311 q 535 1215 535 1255 q 505 1146 535 1174 q 432 1118 475 1118 z "},"Ę":{"ha":841,"x_min":102,"x_max":799,"o":"m 102 0 l 102 1010 l 758 1010 l 758 858 l 283 858 l 283 585 l 723 585 l 723 435 l 283 435 l 283 153 l 761 153 l 761 0 l 102 0 m 663 -293 q 539 -257 588 -293 q 490 -154 490 -220 q 517 -63 490 -106 q 592 14 545 -20 l 761 0 q 680 -57 710 -27 q 649 -125 649 -87 q 701 -176 649 -176 q 731 -171 717 -176 q 757 -159 745 -166 l 799 -259 q 740 -283 776 -273 q 663 -293 705 -293 z "},"Ě":{"ha":841,"x_min":102,"x_max":761,"o":"m 102 0 l 102 1010 l 758 1010 l 758 858 l 283 858 l 283 585 l 723 585 l 723 435 l 283 435 l 283 153 l 761 153 l 761 0 l 102 0 m 335 1315 l 432 1198 l 528 1315 l 687 1315 l 687 1310 l 503 1116 l 361 1116 l 177 1310 l 177 1315 l 335 1315 z "},"Ȅ":{"ha":841,"x_min":92,"x_max":761,"o":"m 102 0 l 102 1010 l 758 1010 l 758 858 l 283 858 l 283 585 l 723 585 l 723 435 l 283 435 l 283 153 l 761 153 l 761 0 l 102 0 m 252 1107 l 92 1315 l 267 1315 l 382 1107 l 252 1107 m 484 1107 l 371 1315 l 538 1315 l 612 1107 l 484 1107 z "},"Ȇ":{"ha":841,"x_min":102,"x_max":761,"o":"m 102 0 l 102 1010 l 758 1010 l 758 858 l 283 858 l 283 585 l 723 585 l 723 435 l 283 435 l 283 153 l 761 153 l 761 0 l 102 0 m 432 1328 q 549 1299 497 1328 q 630 1223 601 1271 q 660 1116 660 1175 l 551 1116 q 515 1192 551 1162 q 432 1222 480 1222 q 349 1192 384 1222 q 313 1116 313 1162 l 204 1116 q 234 1223 204 1175 q 315 1299 264 1271 q 432 1328 367 1328 z "},"Ȩ":{"ha":841,"x_min":102,"x_max":761,"o":"m 102 0 l 102 1010 l 758 1010 l 758 858 l 283 858 l 283 585 l 723 585 l 723 435 l 283 435 l 283 153 l 761 153 l 761 0 l 102 0 m 349 -283 l 349 -206 l 433 -206 q 481 -196 467 -206 q 496 -163 496 -186 q 481 -130 496 -140 q 433 -121 467 -121 l 374 -121 l 397 31 l 471 31 l 471 0 l 468 -59 q 600 -167 600 -57 q 562 -256 600 -229 q 439 -283 524 -283 l 349 -283 z "},"Ḕ":{"ha":841,"x_min":102,"x_max":761,"o":"m 102 0 l 102 1010 l 758 1010 l 758 858 l 283 858 l 283 585 l 723 585 l 723 435 l 283 435 l 283 153 l 761 153 l 761 0 l 102 0 m 626 1255 l 626 1137 l 239 1137 l 239 1255 l 626 1255 m 382 1352 l 256 1535 l 410 1535 l 498 1352 l 382 1352 z "},"Ḗ":{"ha":841,"x_min":102,"x_max":761,"o":"m 102 0 l 102 1010 l 758 1010 l 758 858 l 283 858 l 283 585 l 723 585 l 723 435 l 283 435 l 283 153 l 761 153 l 761 0 l 102 0 m 626 1255 l 626 1137 l 239 1137 l 239 1255 l 626 1255 m 376 1352 l 464 1535 l 618 1535 l 492 1352 l 376 1352 z "},"Ḙ":{"ha":841,"x_min":102,"x_max":761,"o":"m 102 0 l 102 1010 l 758 1010 l 758 858 l 283 858 l 283 585 l 723 585 l 723 435 l 283 435 l 283 153 l 761 153 l 761 0 l 102 0 m 338 -303 l 180 -303 l 180 -298 l 363 -104 l 506 -104 l 690 -298 l 690 -303 l 531 -303 l 435 -187 l 338 -303 z "},"Ḛ":{"ha":841,"x_min":102,"x_max":761,"o":"m 102 0 l 102 1010 l 758 1010 l 758 858 l 283 858 l 283 585 l 723 585 l 723 435 l 283 435 l 283 153 l 761 153 l 761 0 l 102 0 m 527 -290 q 456 -273 487 -290 q 400 -240 425 -256 q 356 -224 376 -224 q 326 -242 336 -224 q 314 -286 315 -260 l 211 -286 q 248 -164 213 -208 q 342 -119 282 -119 q 413 -136 383 -119 q 466 -168 442 -152 q 513 -184 490 -184 q 556 -122 551 -184 l 657 -122 q 620 -245 655 -201 q 527 -290 584 -290 z "},"Ḝ":{"ha":841,"x_min":102,"x_max":761,"o":"m 102 0 l 102 1010 l 758 1010 l 758 858 l 283 858 l 283 585 l 723 585 l 723 435 l 283 435 l 283 153 l 761 153 l 761 0 l 102 0 m 349 -283 l 349 -206 l 433 -206 q 481 -196 467 -206 q 496 -163 496 -186 q 481 -130 496 -140 q 433 -121 467 -121 l 374 -121 l 397 31 l 471 31 l 471 0 l 468 -59 q 600 -167 600 -57 q 562 -256 600 -229 q 439 -283 524 -283 l 349 -283 m 432 1108 q 319 1136 370 1108 q 240 1209 269 1163 q 210 1313 210 1255 l 319 1313 q 351 1240 319 1269 q 432 1212 383 1212 q 512 1240 480 1212 q 544 1313 544 1269 l 653 1313 q 624 1210 653 1256 q 545 1136 595 1163 q 432 1108 494 1108 z "},"Ẹ":{"ha":841,"x_min":102,"x_max":761,"o":"m 102 0 l 102 1010 l 758 1010 l 758 858 l 283 858 l 283 585 l 723 585 l 723 435 l 283 435 l 283 153 l 761 153 l 761 0 l 102 0 m 433 -300 q 360 -272 391 -300 q 330 -203 330 -244 q 360 -135 330 -163 q 433 -107 391 -107 q 506 -135 475 -107 q 536 -203 536 -163 q 506 -272 536 -244 q 433 -300 475 -300 z "},"Ẻ":{"ha":841,"x_min":102,"x_max":761,"o":"m 102 0 l 102 1010 l 758 1010 l 758 858 l 283 858 l 283 585 l 723 585 l 723 435 l 283 435 l 283 153 l 761 153 l 761 0 l 102 0 m 481 1107 l 370 1107 l 421 1200 q 411 1219 431 1219 l 307 1219 l 307 1315 l 411 1315 q 512 1292 480 1315 q 545 1233 545 1268 q 519 1160 545 1197 l 481 1107 z "},"Ẽ":{"ha":841,"x_min":102,"x_max":761,"o":"m 102 0 l 102 1010 l 758 1010 l 758 858 l 283 858 l 283 585 l 723 585 l 723 435 l 283 435 l 283 153 l 761 153 l 761 0 l 102 0 m 525 1128 q 454 1145 485 1128 q 398 1178 422 1162 q 354 1194 374 1194 q 323 1176 334 1194 q 312 1133 313 1158 l 209 1133 q 245 1254 211 1210 q 340 1299 280 1299 q 411 1282 381 1299 q 464 1250 440 1266 q 511 1234 488 1234 q 554 1296 549 1234 l 655 1296 q 617 1173 653 1217 q 525 1128 582 1128 z "},"Ế":{"ha":841,"x_min":102,"x_max":776,"o":"m 102 0 l 102 1010 l 758 1010 l 758 858 l 283 858 l 283 585 l 723 585 l 723 435 l 283 435 l 283 153 l 761 153 l 761 0 l 102 0 m 338 1097 l 180 1097 l 180 1102 l 363 1296 l 506 1296 l 690 1102 l 690 1097 l 531 1097 l 435 1213 l 338 1097 m 534 1352 l 622 1535 l 776 1535 l 649 1352 l 534 1352 z "},"Ề":{"ha":841,"x_min":102,"x_max":761,"o":"m 102 0 l 102 1010 l 758 1010 l 758 858 l 283 858 l 283 585 l 723 585 l 723 435 l 283 435 l 283 153 l 761 153 l 761 0 l 102 0 m 338 1097 l 180 1097 l 180 1102 l 363 1296 l 506 1296 l 690 1102 l 690 1097 l 531 1097 l 435 1213 l 338 1097 m 585 1352 l 458 1535 l 613 1535 l 701 1352 l 585 1352 z "},"Ể":{"ha":841,"x_min":102,"x_max":761,"o":"m 102 0 l 102 1010 l 758 1010 l 758 858 l 283 858 l 283 585 l 723 585 l 723 435 l 283 435 l 283 153 l 761 153 l 761 0 l 102 0 m 338 1097 l 180 1097 l 180 1102 l 363 1296 l 506 1296 l 690 1102 l 690 1097 l 531 1097 l 435 1213 l 338 1097 m 633 1352 l 532 1352 l 576 1430 q 565 1448 585 1448 l 471 1448 l 471 1535 l 565 1535 q 658 1514 628 1535 q 688 1460 688 1493 q 665 1394 689 1428 l 633 1352 z "},"Ễ":{"ha":841,"x_min":102,"x_max":761,"o":"m 102 0 l 102 1010 l 758 1010 l 758 858 l 283 858 l 283 585 l 723 585 l 723 435 l 283 435 l 283 153 l 761 153 l 761 0 l 102 0 m 338 1097 l 180 1097 l 180 1102 l 363 1296 l 506 1296 l 690 1102 l 690 1097 l 531 1097 l 435 1213 l 338 1097 m 527 1362 q 456 1377 487 1362 q 400 1407 425 1392 q 355 1422 376 1422 q 326 1406 336 1422 q 314 1365 315 1389 l 211 1365 q 247 1478 213 1436 q 342 1519 281 1519 q 412 1504 382 1519 q 466 1473 442 1489 q 512 1458 490 1458 q 555 1516 551 1458 l 657 1516 q 620 1403 655 1444 q 527 1362 584 1362 z "},"Ệ":{"ha":841,"x_min":102,"x_max":761,"o":"m 102 0 l 102 1010 l 758 1010 l 758 858 l 283 858 l 283 585 l 723 585 l 723 435 l 283 435 l 283 153 l 761 153 l 761 0 l 102 0 m 335 1116 l 177 1116 l 177 1121 l 361 1315 l 503 1315 l 687 1121 l 687 1116 l 528 1116 l 432 1232 l 335 1116 m 433 -300 q 360 -272 391 -300 q 330 -203 330 -244 q 360 -135 330 -163 q 433 -107 391 -107 q 506 -135 475 -107 q 536 -203 536 -163 q 506 -272 536 -244 q 433 -300 475 -300 z "},"Ɇ":{"ha":841,"x_min":102,"x_max":761,"o":"m 218 -129 l 256 0 l 102 0 l 102 1010 l 548 1010 l 585 1138 l 696 1138 l 659 1010 l 758 1010 l 758 858 l 615 858 l 536 585 l 723 585 l 723 435 l 493 435 l 412 153 l 761 153 l 761 0 l 368 0 l 331 -129 l 218 -129 m 425 585 l 504 858 l 283 858 l 283 585 l 425 585 m 300 153 l 381 435 l 283 435 l 283 153 l 300 153 z "},"Ǝ":{"ha":841,"x_min":80,"x_max":739,"o":"m 739 1010 l 739 0 l 83 0 l 83 153 l 558 153 l 558 425 l 118 425 l 118 576 l 558 576 l 558 858 l 80 858 l 80 1010 l 739 1010 z "},"Ε":{"ha":841,"x_min":102,"x_max":761,"o":"m 102 0 l 102 1010 l 758 1010 l 758 858 l 283 858 l 283 585 l 723 585 l 723 435 l 283 435 l 283 153 l 761 153 l 761 0 l 102 0 z "},"Έ":{"ha":1078,"x_min":56,"x_max":998,"o":"m 339 0 l 339 1010 l 996 1010 l 996 858 l 520 858 l 520 585 l 960 585 l 960 435 l 520 435 l 520 153 l 998 153 l 998 0 l 339 0 m 56 803 l 79 1010 l 245 1010 l 165 803 l 56 803 z "},"Ἐ":{"ha":1093,"x_min":56,"x_max":1013,"o":"m 354 0 l 354 1010 l 1010 1010 l 1010 858 l 535 858 l 535 585 l 975 585 l 975 435 l 535 435 l 535 153 l 1013 153 l 1013 0 l 354 0 m 85 810 l 76 810 l 76 863 l 85 863 q 156 908 156 863 q 88 948 156 948 l 56 948 l 56 1034 l 85 1034 q 258 923 258 1034 q 85 810 258 810 z "},"Ἑ":{"ha":1105,"x_min":56,"x_max":1025,"o":"m 366 0 l 366 1010 l 1022 1010 l 1022 858 l 547 858 l 547 585 l 987 585 l 987 435 l 547 435 l 547 153 l 1025 153 l 1025 0 l 366 0 m 229 792 q 56 905 56 792 q 229 1017 56 1017 l 258 1017 l 258 930 l 226 930 q 158 890 158 930 q 229 846 158 846 l 238 846 l 238 792 l 229 792 z "},"Ἒ":{"ha":1341,"x_min":56,"x_max":1261,"o":"m 602 0 l 602 1010 l 1259 1010 l 1259 858 l 783 858 l 783 585 l 1223 585 l 1223 435 l 783 435 l 783 153 l 1261 153 l 1261 0 l 602 0 m 85 792 l 76 792 l 76 846 l 85 846 q 156 890 156 846 q 88 930 156 930 l 56 930 l 56 1017 l 85 1017 q 258 905 258 1017 q 85 792 258 792 m 464 800 l 362 800 l 288 1010 l 443 1010 l 464 800 z "},"Ἓ":{"ha":1363,"x_min":56,"x_max":1284,"o":"m 625 0 l 625 1010 l 1281 1010 l 1281 858 l 806 858 l 806 585 l 1246 585 l 1246 435 l 806 435 l 806 153 l 1284 153 l 1284 0 l 625 0 m 229 792 q 56 905 56 792 q 229 1017 56 1017 l 258 1017 l 258 930 l 226 930 q 158 890 158 930 q 229 846 158 846 l 238 846 l 238 792 l 229 792 m 486 800 l 385 800 l 310 1010 l 465 1010 l 486 800 z "},"Ἔ":{"ha":1347,"x_min":56,"x_max":1267,"o":"m 608 0 l 608 1010 l 1264 1010 l 1264 858 l 789 858 l 789 585 l 1229 585 l 1229 435 l 789 435 l 789 153 l 1267 153 l 1267 0 l 608 0 m 85 792 l 76 792 l 76 846 l 85 846 q 156 890 156 846 q 88 930 156 930 l 56 930 l 56 1017 l 85 1017 q 258 905 258 1017 q 85 792 258 792 m 342 800 l 363 1010 l 518 1010 l 444 800 l 342 800 z "},"Ἕ":{"ha":1362,"x_min":56,"x_max":1282,"o":"m 623 0 l 623 1010 l 1280 1010 l 1280 858 l 804 858 l 804 585 l 1244 585 l 1244 435 l 804 435 l 804 153 l 1282 153 l 1282 0 l 623 0 m 229 792 q 56 905 56 792 q 229 1017 56 1017 l 258 1017 l 258 930 l 226 930 q 158 890 158 930 q 229 846 158 846 l 238 846 l 238 792 l 229 792 m 353 800 l 375 1010 l 530 1010 l 455 800 l 353 800 z "},"Ὲ":{"ha":1029,"x_min":-75,"x_max":949,"o":"m 290 0 l 290 1010 l 946 1010 l 946 858 l 471 858 l 471 585 l 911 585 l 911 435 l 471 435 l 471 153 l 949 153 l 949 0 l 290 0 m 114 851 l 5 851 l -75 1059 l 91 1059 l 114 851 z "},"Έ":{"ha":1078,"x_min":56,"x_max":998,"o":"m 339 0 l 339 1010 l 996 1010 l 996 858 l 520 858 l 520 585 l 960 585 l 960 435 l 520 435 l 520 153 l 998 153 l 998 0 l 339 0 m 56 803 l 79 1010 l 245 1010 l 165 803 l 56 803 z "},"Е":{"ha":841,"x_min":102,"x_max":761,"o":"m 102 0 l 102 1010 l 758 1010 l 758 858 l 283 858 l 283 585 l 723 585 l 723 435 l 283 435 l 283 153 l 761 153 l 761 0 l 102 0 z "},"Ѐ":{"ha":841,"x_min":102,"x_max":761,"o":"m 102 0 l 102 1010 l 758 1010 l 758 858 l 283 858 l 283 585 l 723 585 l 723 435 l 283 435 l 283 153 l 761 153 l 761 0 l 102 0 m 369 1107 l 232 1315 l 404 1315 l 498 1107 l 369 1107 z "},"Ё":{"ha":841,"x_min":102,"x_max":761,"o":"m 102 0 l 102 1010 l 758 1010 l 758 858 l 283 858 l 283 585 l 723 585 l 723 435 l 283 435 l 283 153 l 761 153 l 761 0 l 102 0 m 284 1122 q 217 1149 245 1122 q 190 1215 190 1176 q 217 1280 190 1253 q 284 1307 245 1307 q 351 1280 323 1307 q 378 1215 378 1253 q 351 1149 378 1176 q 284 1122 323 1122 m 580 1122 q 513 1149 541 1122 q 485 1215 485 1176 q 513 1280 485 1253 q 580 1307 541 1307 q 646 1280 618 1307 q 674 1215 674 1253 q 646 1149 674 1176 q 580 1122 618 1122 z "},"Ӗ":{"ha":841,"x_min":102,"x_max":761,"o":"m 102 0 l 102 1010 l 758 1010 l 758 858 l 283 858 l 283 585 l 723 585 l 723 435 l 283 435 l 283 153 l 761 153 l 761 0 l 102 0 m 432 1108 q 319 1136 370 1108 q 240 1209 269 1163 q 210 1313 210 1255 l 319 1313 q 351 1240 319 1269 q 432 1212 383 1212 q 512 1240 480 1212 q 544 1313 544 1269 l 653 1313 q 624 1210 653 1256 q 545 1136 595 1163 q 432 1108 494 1108 z "},"F":{"ha":817,"x_min":102,"x_max":749,"o":"m 102 0 l 102 1010 l 749 1010 l 749 858 l 283 858 l 283 555 l 703 555 l 703 404 l 283 404 l 283 0 l 102 0 z "},"Ƒ":{"ha":817,"x_min":-41,"x_max":749,"o":"m -41 -283 l -41 -142 q 13 -146 -12 -146 q 83 -131 64 -146 q 102 -83 102 -116 l 102 1010 l 749 1010 l 749 858 l 283 858 l 283 555 l 703 555 l 703 404 l 283 404 l 283 -92 q 53 -293 283 -293 q -41 -283 -3 -293 z "},"Ḟ":{"ha":817,"x_min":102,"x_max":749,"o":"m 102 0 l 102 1010 l 749 1010 l 749 858 l 283 858 l 283 555 l 703 555 l 703 404 l 283 404 l 283 0 l 102 0 m 425 1118 q 353 1146 383 1118 q 323 1215 323 1174 q 353 1283 323 1255 q 425 1311 383 1311 q 498 1283 468 1311 q 528 1215 528 1255 q 498 1146 528 1174 q 425 1118 468 1118 z "},"Ⅎ":{"ha":817,"x_min":68,"x_max":715,"o":"m 715 1010 l 715 0 l 68 0 l 68 153 l 534 153 l 534 456 l 113 456 l 113 606 l 534 606 l 534 1010 l 715 1010 z "},"G":{"ha":1040,"x_min":70,"x_max":966,"o":"m 538 -14 q 293 49 398 -14 q 129 228 188 112 q 70 504 70 345 q 131 783 70 667 q 296 962 191 899 q 532 1024 400 1024 q 734 981 644 1024 q 883 863 825 939 q 958 688 942 787 l 772 688 q 687 815 748 768 q 534 862 627 862 q 389 821 453 862 q 288 700 325 779 q 252 505 252 620 q 331 241 252 334 q 538 149 411 149 q 720 213 652 149 q 791 386 788 277 l 557 386 l 557 528 l 966 528 l 966 407 q 911 183 966 277 q 759 37 856 88 q 538 -14 663 -14 z "},"Ǥ":{"ha":1040,"x_min":70,"x_max":1029,"o":"m 538 -14 q 293 49 398 -14 q 129 228 188 112 q 70 504 70 345 q 131 783 70 667 q 296 962 191 899 q 532 1024 400 1024 q 734 981 644 1024 q 883 863 825 939 q 958 688 942 787 l 772 688 q 687 815 748 768 q 534 862 627 862 q 389 821 453 862 q 288 700 325 779 q 252 505 252 620 q 331 241 252 334 q 538 149 411 149 q 720 213 652 149 q 791 386 788 277 l 557 386 l 557 528 l 966 528 l 966 407 q 911 183 966 277 q 759 37 856 88 q 538 -14 663 -14 m 557 235 l 557 316 l 1029 316 l 1029 235 l 557 235 z "},"Ɠ":{"ha":1040,"x_min":70,"x_max":1107,"o":"m 538 -14 q 293 49 398 -14 q 129 228 188 112 q 70 504 70 345 q 131 783 70 667 q 296 962 191 899 q 532 1024 400 1024 q 668 1005 604 1024 q 785 953 732 987 q 1014 1142 791 1142 q 1107 1133 1070 1142 l 1107 1001 q 1054 1005 1078 1005 q 980 990 1003 1005 q 958 941 958 975 l 958 688 l 772 688 q 687 815 748 768 q 534 862 627 862 q 389 821 453 862 q 288 700 325 779 q 252 505 252 620 q 331 241 252 334 q 538 149 411 149 q 720 213 652 149 q 791 386 788 277 l 557 386 l 557 528 l 966 528 l 966 407 q 911 183 966 277 q 759 37 856 88 q 538 -14 663 -14 z "},"Ĝ":{"ha":1040,"x_min":70,"x_max":966,"o":"m 538 -14 q 293 49 398 -14 q 129 228 188 112 q 70 504 70 345 q 131 783 70 667 q 296 962 191 899 q 532 1024 400 1024 q 734 981 644 1024 q 883 863 825 939 q 958 688 942 787 l 772 688 q 687 815 748 768 q 534 862 627 862 q 389 821 453 862 q 288 700 325 779 q 252 505 252 620 q 331 241 252 334 q 538 149 411 149 q 720 213 652 149 q 791 386 788 277 l 557 386 l 557 528 l 966 528 l 966 407 q 911 183 966 277 q 759 37 856 88 q 538 -14 663 -14 m 432 1116 l 274 1116 l 274 1121 l 458 1315 l 600 1315 l 784 1121 l 784 1116 l 625 1116 l 529 1232 l 432 1116 z "},"Ğ":{"ha":1040,"x_min":70,"x_max":966,"o":"m 538 -14 q 293 49 398 -14 q 129 228 188 112 q 70 504 70 345 q 131 783 70 667 q 296 962 191 899 q 532 1024 400 1024 q 734 981 644 1024 q 883 863 825 939 q 958 688 942 787 l 772 688 q 687 815 748 768 q 534 862 627 862 q 389 821 453 862 q 288 700 325 779 q 252 505 252 620 q 331 241 252 334 q 538 149 411 149 q 720 213 652 149 q 791 386 788 277 l 557 386 l 557 528 l 966 528 l 966 407 q 911 183 966 277 q 759 37 856 88 q 538 -14 663 -14 m 529 1108 q 416 1136 467 1108 q 337 1209 366 1163 q 307 1313 307 1255 l 416 1313 q 448 1240 416 1269 q 529 1212 480 1212 q 609 1240 577 1212 q 641 1313 641 1269 l 750 1313 q 721 1210 750 1256 q 642 1136 692 1163 q 529 1108 591 1108 z "},"Ġ":{"ha":1040,"x_min":70,"x_max":966,"o":"m 538 -14 q 293 49 398 -14 q 129 228 188 112 q 70 504 70 345 q 131 783 70 667 q 296 962 191 899 q 532 1024 400 1024 q 734 981 644 1024 q 883 863 825 939 q 958 688 942 787 l 772 688 q 687 815 748 768 q 534 862 627 862 q 389 821 453 862 q 288 700 325 779 q 252 505 252 620 q 331 241 252 334 q 538 149 411 149 q 720 213 652 149 q 791 386 788 277 l 557 386 l 557 528 l 966 528 l 966 407 q 911 183 966 277 q 759 37 856 88 q 538 -14 663 -14 m 529 1118 q 457 1146 487 1118 q 427 1215 427 1174 q 457 1283 427 1255 q 529 1311 487 1311 q 602 1283 572 1311 q 632 1215 632 1255 q 602 1146 632 1174 q 529 1118 572 1118 z "},"Ģ":{"ha":1040,"x_min":70,"x_max":966,"o":"m 538 -14 q 293 49 398 -14 q 129 228 188 112 q 70 504 70 345 q 131 783 70 667 q 296 962 191 899 q 532 1024 400 1024 q 734 981 644 1024 q 883 863 825 939 q 958 688 942 787 l 772 688 q 687 815 748 768 q 534 862 627 862 q 389 821 453 862 q 288 700 325 779 q 252 505 252 620 q 331 241 252 334 q 538 149 411 149 q 720 213 652 149 q 791 386 788 277 l 557 386 l 557 528 l 966 528 l 966 407 q 911 183 966 277 q 759 37 856 88 q 538 -14 663 -14 m 384 -328 l 443 -80 l 610 -80 l 511 -328 l 384 -328 z "},"Ǧ":{"ha":1040,"x_min":70,"x_max":966,"o":"m 538 -14 q 293 49 398 -14 q 129 228 188 112 q 70 504 70 345 q 131 783 70 667 q 296 962 191 899 q 532 1024 400 1024 q 734 981 644 1024 q 883 863 825 939 q 958 688 942 787 l 772 688 q 687 815 748 768 q 534 862 627 862 q 389 821 453 862 q 288 700 325 779 q 252 505 252 620 q 331 241 252 334 q 538 149 411 149 q 720 213 652 149 q 791 386 788 277 l 557 386 l 557 528 l 966 528 l 966 407 q 911 183 966 277 q 759 37 856 88 q 538 -14 663 -14 m 432 1315 l 529 1198 l 625 1315 l 784 1315 l 784 1310 l 600 1116 l 458 1116 l 274 1310 l 274 1315 l 432 1315 z "},"Ǵ":{"ha":1040,"x_min":70,"x_max":966,"o":"m 538 -14 q 293 49 398 -14 q 129 228 188 112 q 70 504 70 345 q 131 783 70 667 q 296 962 191 899 q 532 1024 400 1024 q 734 981 644 1024 q 883 863 825 939 q 958 688 942 787 l 772 688 q 687 815 748 768 q 534 862 627 862 q 389 821 453 862 q 288 700 325 779 q 252 505 252 620 q 331 241 252 334 q 538 149 411 149 q 720 213 652 149 q 791 386 788 277 l 557 386 l 557 528 l 966 528 l 966 407 q 911 183 966 277 q 759 37 856 88 q 538 -14 663 -14 m 463 1107 l 557 1315 l 728 1315 l 591 1107 l 463 1107 z "},"Ḡ":{"ha":1040,"x_min":70,"x_max":966,"o":"m 538 -14 q 293 49 398 -14 q 129 228 188 112 q 70 504 70 345 q 131 783 70 667 q 296 962 191 899 q 532 1024 400 1024 q 734 981 644 1024 q 883 863 825 939 q 958 688 942 787 l 772 688 q 687 815 748 768 q 534 862 627 862 q 389 821 453 862 q 288 700 325 779 q 252 505 252 620 q 331 241 252 334 q 538 149 411 149 q 720 213 652 149 q 791 386 788 277 l 557 386 l 557 528 l 966 528 l 966 407 q 911 183 966 277 q 759 37 856 88 q 538 -14 663 -14 m 723 1274 l 723 1155 l 336 1155 l 336 1274 l 723 1274 z "},"":{"ha":1054,"x_min":70,"x_max":966,"o":"m 519 -14 q 289 49 391 -14 q 129 228 188 112 q 70 504 70 345 q 131 783 70 667 q 296 962 191 899 q 532 1024 400 1024 q 734 981 644 1024 q 883 863 825 939 q 958 688 942 787 l 772 688 q 687 815 748 768 q 534 862 627 862 q 389 821 453 862 q 288 700 325 779 q 252 505 252 620 q 332 241 252 334 q 541 149 412 149 q 719 212 653 149 q 791 386 785 276 l 557 386 l 557 528 l 966 528 l 966 0 l 841 0 l 819 221 q 770 103 805 156 q 673 18 735 50 q 519 -14 612 -14 z "},"":{"ha":1054,"x_min":70,"x_max":1029,"o":"m 519 -14 q 289 49 391 -14 q 129 228 188 112 q 70 504 70 345 q 131 783 70 667 q 296 962 191 899 q 532 1024 400 1024 q 734 981 644 1024 q 883 863 825 939 q 958 688 942 787 l 772 688 q 687 815 748 768 q 534 862 627 862 q 389 821 453 862 q 288 700 325 779 q 252 505 252 620 q 332 241 252 334 q 541 149 412 149 q 719 212 653 149 q 791 386 785 276 l 557 386 l 557 528 l 966 528 l 966 0 l 841 0 l 819 221 q 770 103 805 156 q 673 18 735 50 q 519 -14 612 -14 m 557 235 l 557 316 l 1029 316 l 1029 235 l 557 235 z "},"":{"ha":1054,"x_min":70,"x_max":1107,"o":"m 519 -14 q 289 49 391 -14 q 129 228 188 112 q 70 504 70 345 q 131 783 70 667 q 296 962 191 899 q 532 1024 400 1024 q 668 1005 604 1024 q 785 953 732 987 q 1014 1142 791 1142 q 1107 1133 1070 1142 l 1107 1001 q 1054 1005 1078 1005 q 980 990 1003 1005 q 958 941 958 975 l 958 688 l 772 688 q 687 815 748 768 q 534 862 627 862 q 389 821 453 862 q 288 700 325 779 q 252 505 252 620 q 332 241 252 334 q 541 149 412 149 q 719 212 653 149 q 791 386 785 276 l 557 386 l 557 528 l 966 528 l 966 0 l 841 0 l 819 221 q 770 103 805 156 q 673 18 735 50 q 519 -14 612 -14 z "},"":{"ha":1054,"x_min":70,"x_max":966,"o":"m 519 -14 q 289 49 391 -14 q 129 228 188 112 q 70 504 70 345 q 131 783 70 667 q 296 962 191 899 q 532 1024 400 1024 q 734 981 644 1024 q 883 863 825 939 q 958 688 942 787 l 772 688 q 687 815 748 768 q 534 862 627 862 q 389 821 453 862 q 288 700 325 779 q 252 505 252 620 q 332 241 252 334 q 541 149 412 149 q 719 212 653 149 q 791 386 785 276 l 557 386 l 557 528 l 966 528 l 966 0 l 841 0 l 819 221 q 770 103 805 156 q 673 18 735 50 q 519 -14 612 -14 m 432 1116 l 274 1116 l 274 1121 l 458 1315 l 600 1315 l 784 1121 l 784 1116 l 625 1116 l 529 1232 l 432 1116 z "},"":{"ha":1054,"x_min":70,"x_max":966,"o":"m 519 -14 q 289 49 391 -14 q 129 228 188 112 q 70 504 70 345 q 131 783 70 667 q 296 962 191 899 q 532 1024 400 1024 q 734 981 644 1024 q 883 863 825 939 q 958 688 942 787 l 772 688 q 687 815 748 768 q 534 862 627 862 q 389 821 453 862 q 288 700 325 779 q 252 505 252 620 q 332 241 252 334 q 541 149 412 149 q 719 212 653 149 q 791 386 785 276 l 557 386 l 557 528 l 966 528 l 966 0 l 841 0 l 819 221 q 770 103 805 156 q 673 18 735 50 q 519 -14 612 -14 m 529 1108 q 416 1136 467 1108 q 337 1209 366 1163 q 307 1313 307 1255 l 416 1313 q 448 1240 416 1269 q 529 1212 480 1212 q 609 1240 577 1212 q 641 1313 641 1269 l 750 1313 q 721 1210 750 1256 q 642 1136 692 1163 q 529 1108 591 1108 z "},"":{"ha":1054,"x_min":70,"x_max":966,"o":"m 519 -14 q 289 49 391 -14 q 129 228 188 112 q 70 504 70 345 q 131 783 70 667 q 296 962 191 899 q 532 1024 400 1024 q 734 981 644 1024 q 883 863 825 939 q 958 688 942 787 l 772 688 q 687 815 748 768 q 534 862 627 862 q 389 821 453 862 q 288 700 325 779 q 252 505 252 620 q 332 241 252 334 q 541 149 412 149 q 719 212 653 149 q 791 386 785 276 l 557 386 l 557 528 l 966 528 l 966 0 l 841 0 l 819 221 q 770 103 805 156 q 673 18 735 50 q 519 -14 612 -14 m 529 1118 q 457 1146 487 1118 q 427 1215 427 1174 q 457 1283 427 1255 q 529 1311 487 1311 q 602 1283 572 1311 q 632 1215 632 1255 q 602 1146 632 1174 q 529 1118 572 1118 z "},"":{"ha":1054,"x_min":70,"x_max":966,"o":"m 519 -14 q 289 49 391 -14 q 129 228 188 112 q 70 504 70 345 q 131 783 70 667 q 296 962 191 899 q 532 1024 400 1024 q 734 981 644 1024 q 883 863 825 939 q 958 688 942 787 l 772 688 q 687 815 748 768 q 534 862 627 862 q 389 821 453 862 q 288 700 325 779 q 252 505 252 620 q 332 241 252 334 q 541 149 412 149 q 719 212 653 149 q 791 386 785 276 l 557 386 l 557 528 l 966 528 l 966 0 l 841 0 l 819 221 q 770 103 805 156 q 673 18 735 50 q 519 -14 612 -14 m 384 -328 l 443 -80 l 610 -80 l 511 -328 l 384 -328 z "},"":{"ha":1054,"x_min":70,"x_max":966,"o":"m 519 -14 q 289 49 391 -14 q 129 228 188 112 q 70 504 70 345 q 131 783 70 667 q 296 962 191 899 q 532 1024 400 1024 q 734 981 644 1024 q 883 863 825 939 q 958 688 942 787 l 772 688 q 687 815 748 768 q 534 862 627 862 q 389 821 453 862 q 288 700 325 779 q 252 505 252 620 q 332 241 252 334 q 541 149 412 149 q 719 212 653 149 q 791 386 785 276 l 557 386 l 557 528 l 966 528 l 966 0 l 841 0 l 819 221 q 770 103 805 156 q 673 18 735 50 q 519 -14 612 -14 m 432 1315 l 529 1198 l 625 1315 l 784 1315 l 784 1310 l 600 1116 l 458 1116 l 274 1310 l 274 1315 l 432 1315 z "},"":{"ha":1054,"x_min":70,"x_max":966,"o":"m 519 -14 q 289 49 391 -14 q 129 228 188 112 q 70 504 70 345 q 131 783 70 667 q 296 962 191 899 q 532 1024 400 1024 q 734 981 644 1024 q 883 863 825 939 q 958 688 942 787 l 772 688 q 687 815 748 768 q 534 862 627 862 q 389 821 453 862 q 288 700 325 779 q 252 505 252 620 q 332 241 252 334 q 541 149 412 149 q 719 212 653 149 q 791 386 785 276 l 557 386 l 557 528 l 966 528 l 966 0 l 841 0 l 819 221 q 770 103 805 156 q 673 18 735 50 q 519 -14 612 -14 m 463 1107 l 557 1315 l 728 1315 l 591 1107 l 463 1107 z "},"":{"ha":1054,"x_min":70,"x_max":966,"o":"m 519 -14 q 289 49 391 -14 q 129 228 188 112 q 70 504 70 345 q 131 783 70 667 q 296 962 191 899 q 532 1024 400 1024 q 734 981 644 1024 q 883 863 825 939 q 958 688 942 787 l 772 688 q 687 815 748 768 q 534 862 627 862 q 389 821 453 862 q 288 700 325 779 q 252 505 252 620 q 332 241 252 334 q 541 149 412 149 q 719 212 653 149 q 791 386 785 276 l 557 386 l 557 528 l 966 528 l 966 0 l 841 0 l 819 221 q 770 103 805 156 q 673 18 735 50 q 519 -14 612 -14 m 723 1274 l 723 1155 l 336 1155 l 336 1274 l 723 1274 z "},"H":{"ha":1036,"x_min":102,"x_max":934,"o":"m 102 0 l 102 1010 l 283 1010 l 283 593 l 753 593 l 753 1010 l 934 1010 l 934 0 l 753 0 l 753 440 l 283 440 l 283 0 l 102 0 z "},"Ḩ":{"ha":1036,"x_min":102,"x_max":934,"o":"m 102 0 l 102 1010 l 283 1010 l 283 593 l 753 593 l 753 1010 l 934 1010 l 934 0 l 753 0 l 753 440 l 283 440 l 283 0 l 102 0 m 109 -283 l 109 -205 l 193 -205 q 241 -196 227 -205 q 256 -163 256 -186 q 241 -130 256 -139 q 193 -120 227 -120 l 134 -120 l 157 31 l 231 31 l 231 1 l 228 -58 q 359 -166 359 -56 q 321 -255 359 -228 q 199 -283 283 -283 l 109 -283 z "},"Ĥ":{"ha":1036,"x_min":102,"x_max":934,"o":"m 102 0 l 102 1010 l 283 1010 l 283 593 l 753 593 l 753 1010 l 934 1010 l 934 0 l 753 0 l 753 440 l 283 440 l 283 0 l 102 0 m 420 1116 l 262 1116 l 262 1121 l 446 1315 l 589 1315 l 772 1121 l 772 1116 l 614 1116 l 517 1232 l 420 1116 z "},"Ȟ":{"ha":1036,"x_min":102,"x_max":934,"o":"m 102 0 l 102 1010 l 283 1010 l 283 593 l 753 593 l 753 1010 l 934 1010 l 934 0 l 753 0 l 753 440 l 283 440 l 283 0 l 102 0 m 420 1315 l 517 1198 l 614 1315 l 772 1315 l 772 1310 l 589 1116 l 446 1116 l 262 1310 l 262 1315 l 420 1315 z "},"Ḣ":{"ha":1036,"x_min":102,"x_max":934,"o":"m 102 0 l 102 1010 l 283 1010 l 283 593 l 753 593 l 753 1010 l 934 1010 l 934 0 l 753 0 l 753 440 l 283 440 l 283 0 l 102 0 m 517 1118 q 445 1146 475 1118 q 415 1215 415 1174 q 445 1283 415 1255 q 517 1311 475 1311 q 590 1283 560 1311 q 621 1215 621 1255 q 590 1146 621 1174 q 517 1118 560 1118 z "},"Ḥ":{"ha":1036,"x_min":102,"x_max":934,"o":"m 102 0 l 102 1010 l 283 1010 l 283 593 l 753 593 l 753 1010 l 934 1010 l 934 0 l 753 0 l 753 440 l 283 440 l 283 0 l 102 0 m 518 -300 q 446 -272 476 -300 q 416 -203 416 -244 q 446 -135 416 -163 q 518 -107 476 -107 q 591 -135 561 -107 q 621 -203 621 -163 q 591 -272 621 -244 q 518 -300 561 -300 z "},"Ḧ":{"ha":1036,"x_min":102,"x_max":934,"o":"m 102 0 l 102 1010 l 283 1010 l 283 593 l 753 593 l 753 1010 l 934 1010 l 934 0 l 753 0 l 753 440 l 283 440 l 283 0 l 102 0 m 370 1122 q 303 1149 330 1122 q 275 1215 275 1176 q 303 1280 275 1253 q 370 1307 330 1307 q 436 1280 408 1307 q 464 1215 464 1253 q 436 1149 464 1176 q 370 1122 408 1122 m 665 1122 q 598 1149 626 1122 q 570 1215 570 1176 q 598 1280 570 1253 q 665 1307 626 1307 q 732 1280 704 1307 q 760 1215 760 1253 q 732 1149 760 1176 q 665 1122 704 1122 z "},"Ḫ":{"ha":1036,"x_min":102,"x_max":934,"o":"m 102 0 l 102 1010 l 283 1010 l 283 593 l 753 593 l 753 1010 l 934 1010 l 934 0 l 753 0 l 753 440 l 283 440 l 283 0 l 102 0 m 519 -311 q 407 -283 457 -311 q 327 -210 357 -256 q 298 -106 298 -163 l 407 -106 q 439 -178 407 -150 q 519 -207 471 -207 q 600 -178 568 -207 q 631 -106 631 -150 l 741 -106 q 711 -209 741 -163 q 632 -283 682 -256 q 519 -311 582 -311 z "},"Ħ":{"ha":1107,"x_min":56,"x_max":1050,"o":"m 1050 820 l 1050 707 l 971 707 l 971 0 l 790 0 l 790 440 l 319 440 l 319 0 l 138 0 l 138 707 l 56 707 l 56 820 l 138 820 l 138 1010 l 319 1010 l 319 820 l 790 820 l 790 1010 l 971 1010 l 971 820 l 1050 820 m 790 707 l 319 707 l 319 593 l 790 593 l 790 707 z "},"Ӈ":{"ha":1036,"x_min":102,"x_max":934,"o":"m 611 -283 l 611 -142 q 665 -146 640 -146 q 734 -131 715 -146 q 753 -83 753 -116 l 753 440 l 283 440 l 283 0 l 102 0 l 102 1010 l 283 1010 l 283 593 l 753 593 l 753 1010 l 934 1010 l 934 -92 q 704 -293 934 -293 q 611 -283 648 -293 z "},"Ң":{"ha":1068,"x_min":102,"x_max":1040,"o":"m 102 0 l 102 1010 l 283 1010 l 283 593 l 753 593 l 753 1010 l 934 1010 l 934 0 l 753 0 l 753 440 l 283 440 l 283 0 l 102 0 m 861 -217 l 861 0 l 805 0 l 805 145 l 1040 145 l 1034 -217 l 861 -217 z "},"Ӊ":{"ha":1036,"x_min":102,"x_max":1064,"o":"m 102 0 l 102 1010 l 283 1010 l 283 593 l 753 593 l 753 1010 l 934 1010 l 934 0 l 753 0 l 753 440 l 283 440 l 283 0 l 102 0 m 786 -217 l 852 0 l 801 0 l 801 145 l 1064 145 l 952 -217 l 786 -217 z "},"Ҥ":{"ha":1386,"x_min":102,"x_max":1330,"o":"m 1330 1010 l 1330 861 l 934 861 l 934 0 l 753 0 l 753 440 l 283 440 l 283 0 l 102 0 l 102 1010 l 283 1010 l 283 593 l 753 593 l 753 1010 l 1330 1010 z "},"Ƕ":{"ha":1558,"x_min":102,"x_max":1465,"o":"m 1112 -14 q 851 76 949 -14 q 753 333 753 166 l 753 429 l 283 429 l 283 0 l 102 0 l 102 1010 l 283 1010 l 283 582 l 753 582 l 753 1010 l 935 1010 l 935 333 q 982 190 935 237 q 1112 142 1028 142 q 1239 190 1194 142 q 1284 333 1284 237 l 1284 745 l 1465 745 l 1465 333 q 1368 75 1465 164 q 1112 -14 1272 -14 z "},"Η":{"ha":1036,"x_min":102,"x_max":934,"o":"m 102 0 l 102 1010 l 283 1010 l 283 593 l 753 593 l 753 1010 l 934 1010 l 934 0 l 753 0 l 753 440 l 283 440 l 283 0 l 102 0 z "},"Ή":{"ha":1273,"x_min":56,"x_max":1171,"o":"m 339 0 l 339 1010 l 520 1010 l 520 593 l 990 593 l 990 1010 l 1171 1010 l 1171 0 l 990 0 l 990 440 l 520 440 l 520 0 l 339 0 m 56 803 l 79 1010 l 245 1010 l 165 803 l 56 803 z "},"Ἠ":{"ha":1288,"x_min":56,"x_max":1186,"o":"m 354 0 l 354 1010 l 535 1010 l 535 593 l 1005 593 l 1005 1010 l 1186 1010 l 1186 0 l 1005 0 l 1005 440 l 535 440 l 535 0 l 354 0 m 85 810 l 76 810 l 76 863 l 85 863 q 156 908 156 863 q 88 948 156 948 l 56 948 l 56 1034 l 85 1034 q 258 923 258 1034 q 85 810 258 810 z "},"Ἡ":{"ha":1299,"x_min":56,"x_max":1198,"o":"m 366 0 l 366 1010 l 547 1010 l 547 593 l 1017 593 l 1017 1010 l 1198 1010 l 1198 0 l 1017 0 l 1017 440 l 547 440 l 547 0 l 366 0 m 229 792 q 56 905 56 792 q 229 1017 56 1017 l 258 1017 l 258 930 l 226 930 q 158 890 158 930 q 229 846 158 846 l 238 846 l 238 792 l 229 792 z "},"Ἢ":{"ha":1536,"x_min":56,"x_max":1434,"o":"m 602 0 l 602 1010 l 783 1010 l 783 593 l 1253 593 l 1253 1010 l 1434 1010 l 1434 0 l 1253 0 l 1253 440 l 783 440 l 783 0 l 602 0 m 85 792 l 76 792 l 76 846 l 85 846 q 156 890 156 846 q 88 930 156 930 l 56 930 l 56 1017 l 85 1017 q 258 905 258 1017 q 85 792 258 792 m 464 800 l 362 800 l 288 1010 l 443 1010 l 464 800 z "},"Ἣ":{"ha":1558,"x_min":56,"x_max":1457,"o":"m 625 0 l 625 1010 l 806 1010 l 806 593 l 1276 593 l 1276 1010 l 1457 1010 l 1457 0 l 1276 0 l 1276 440 l 806 440 l 806 0 l 625 0 m 229 792 q 56 905 56 792 q 229 1017 56 1017 l 258 1017 l 258 930 l 226 930 q 158 890 158 930 q 229 846 158 846 l 238 846 l 238 792 l 229 792 m 486 800 l 385 800 l 310 1010 l 465 1010 l 486 800 z "},"Ἤ":{"ha":1541,"x_min":56,"x_max":1440,"o":"m 608 0 l 608 1010 l 789 1010 l 789 593 l 1259 593 l 1259 1010 l 1440 1010 l 1440 0 l 1259 0 l 1259 440 l 789 440 l 789 0 l 608 0 m 85 792 l 76 792 l 76 846 l 85 846 q 156 890 156 846 q 88 930 156 930 l 56 930 l 56 1017 l 85 1017 q 258 905 258 1017 q 85 792 258 792 m 342 800 l 363 1010 l 518 1010 l 444 800 l 342 800 z "},"Ἥ":{"ha":1557,"x_min":56,"x_max":1455,"o":"m 623 0 l 623 1010 l 804 1010 l 804 593 l 1274 593 l 1274 1010 l 1455 1010 l 1455 0 l 1274 0 l 1274 440 l 804 440 l 804 0 l 623 0 m 229 792 q 56 905 56 792 q 229 1017 56 1017 l 258 1017 l 258 930 l 226 930 q 158 890 158 930 q 229 846 158 846 l 238 846 l 238 792 l 229 792 m 353 800 l 375 1010 l 530 1010 l 455 800 l 353 800 z "},"Ἦ":{"ha":1415,"x_min":56,"x_max":1313,"o":"m 481 0 l 481 1010 l 662 1010 l 662 593 l 1132 593 l 1132 1010 l 1313 1010 l 1313 0 l 1132 0 l 1132 440 l 662 440 l 662 0 l 481 0 m 372 1093 q 301 1109 332 1093 q 245 1140 270 1124 q 201 1156 221 1156 q 171 1139 181 1156 q 159 1097 161 1122 l 56 1097 q 93 1213 58 1171 q 187 1256 127 1256 q 258 1240 228 1256 q 311 1208 288 1224 q 357 1193 335 1193 q 401 1253 396 1193 l 503 1253 q 465 1136 500 1178 q 372 1093 429 1093 m 207 804 l 198 804 l 198 858 l 207 858 q 278 903 278 858 q 210 943 278 943 l 178 943 l 178 1029 l 207 1029 q 380 918 380 1029 q 207 804 380 804 z "},"Ἧ":{"ha":1426,"x_min":56,"x_max":1324,"o":"m 492 0 l 492 1010 l 673 1010 l 673 593 l 1143 593 l 1143 1010 l 1324 1010 l 1324 0 l 1143 0 l 1143 440 l 673 440 l 673 0 l 492 0 m 372 1078 q 301 1094 332 1078 q 245 1125 270 1109 q 201 1141 221 1141 q 171 1124 181 1141 q 159 1082 161 1107 l 56 1082 q 93 1198 58 1156 q 187 1241 127 1241 q 258 1225 228 1241 q 311 1194 288 1209 q 357 1178 335 1178 q 401 1238 396 1178 l 503 1238 q 465 1121 500 1163 q 372 1078 429 1078 m 351 789 q 178 903 178 789 q 351 1014 178 1014 l 380 1014 l 380 928 l 348 928 q 280 888 280 928 q 351 843 280 843 l 360 843 l 360 789 l 351 789 z "},"Ὴ":{"ha":1223,"x_min":-75,"x_max":1122,"o":"m 290 0 l 290 1010 l 471 1010 l 471 593 l 941 593 l 941 1010 l 1122 1010 l 1122 0 l 941 0 l 941 440 l 471 440 l 471 0 l 290 0 m 114 851 l 5 851 l -75 1059 l 91 1059 l 114 851 z "},"Ή":{"ha":1273,"x_min":56,"x_max":1171,"o":"m 339 0 l 339 1010 l 520 1010 l 520 593 l 990 593 l 990 1010 l 1171 1010 l 1171 0 l 990 0 l 990 440 l 520 440 l 520 0 l 339 0 m 56 803 l 79 1010 l 245 1010 l 165 803 l 56 803 z "},"Н":{"ha":1036,"x_min":102,"x_max":934,"o":"m 102 0 l 102 1010 l 283 1010 l 283 593 l 753 593 l 753 1010 l 934 1010 l 934 0 l 753 0 l 753 440 l 283 440 l 283 0 l 102 0 z "},"ᾘ":{"ha":1288,"x_min":56,"x_max":1186,"o":"m 354 0 l 354 1010 l 535 1010 l 535 593 l 1005 593 l 1005 1010 l 1186 1010 l 1186 0 l 1005 0 l 1005 440 l 535 440 l 535 0 l 354 0 m 825 -335 q 701 -208 701 -335 l 701 -80 l 838 -80 l 838 -203 q 845 -238 838 -228 q 874 -248 852 -248 q 904 -246 887 -248 l 904 -326 q 867 -333 890 -330 q 825 -335 844 -335 m 85 810 l 76 810 l 76 863 l 85 863 q 156 908 156 863 q 88 948 156 948 l 56 948 l 56 1034 l 85 1034 q 258 923 258 1034 q 85 810 258 810 z "},"ᾙ":{"ha":1299,"x_min":56,"x_max":1198,"o":"m 366 0 l 366 1010 l 547 1010 l 547 593 l 1017 593 l 1017 1010 l 1198 1010 l 1198 0 l 1017 0 l 1017 440 l 547 440 l 547 0 l 366 0 m 837 -335 q 713 -208 713 -335 l 713 -80 l 850 -80 l 850 -203 q 857 -238 850 -228 q 886 -248 863 -248 q 916 -246 899 -248 l 916 -326 q 878 -333 901 -330 q 837 -335 855 -335 m 229 792 q 56 905 56 792 q 229 1017 56 1017 l 258 1017 l 258 930 l 226 930 q 158 890 158 930 q 229 846 158 846 l 238 846 l 238 792 l 229 792 z "},"ᾚ":{"ha":1536,"x_min":56,"x_max":1434,"o":"m 602 0 l 602 1010 l 783 1010 l 783 593 l 1253 593 l 1253 1010 l 1434 1010 l 1434 0 l 1253 0 l 1253 440 l 783 440 l 783 0 l 602 0 m 1074 -335 q 949 -208 949 -335 l 949 -80 l 1086 -80 l 1086 -203 q 1093 -238 1086 -228 q 1122 -248 1100 -248 q 1152 -246 1135 -248 l 1152 -326 q 1115 -333 1138 -330 q 1074 -335 1092 -335 m 85 792 l 76 792 l 76 846 l 85 846 q 156 890 156 846 q 88 930 156 930 l 56 930 l 56 1017 l 85 1017 q 258 905 258 1017 q 85 792 258 792 m 464 800 l 362 800 l 288 1010 l 443 1010 l 464 800 z "},"ᾛ":{"ha":1558,"x_min":56,"x_max":1457,"o":"m 625 0 l 625 1010 l 806 1010 l 806 593 l 1276 593 l 1276 1010 l 1457 1010 l 1457 0 l 1276 0 l 1276 440 l 806 440 l 806 0 l 625 0 m 1096 -335 q 972 -208 972 -335 l 972 -80 l 1109 -80 l 1109 -203 q 1116 -238 1109 -228 q 1145 -248 1122 -248 q 1175 -246 1158 -248 l 1175 -326 q 1137 -333 1160 -330 q 1096 -335 1114 -335 m 229 792 q 56 905 56 792 q 229 1017 56 1017 l 258 1017 l 258 930 l 226 930 q 158 890 158 930 q 229 846 158 846 l 238 846 l 238 792 l 229 792 m 486 800 l 385 800 l 310 1010 l 465 1010 l 486 800 z "},"ᾜ":{"ha":1541,"x_min":56,"x_max":1440,"o":"m 608 0 l 608 1010 l 789 1010 l 789 593 l 1259 593 l 1259 1010 l 1440 1010 l 1440 0 l 1259 0 l 1259 440 l 789 440 l 789 0 l 608 0 m 1079 -335 q 955 -208 955 -335 l 955 -80 l 1092 -80 l 1092 -203 q 1099 -238 1092 -228 q 1128 -248 1105 -248 q 1158 -246 1141 -248 l 1158 -326 q 1120 -333 1143 -330 q 1079 -335 1097 -335 m 85 792 l 76 792 l 76 846 l 85 846 q 156 890 156 846 q 88 930 156 930 l 56 930 l 56 1017 l 85 1017 q 258 905 258 1017 q 85 792 258 792 m 342 800 l 363 1010 l 518 1010 l 444 800 l 342 800 z "},"ᾝ":{"ha":1557,"x_min":56,"x_max":1455,"o":"m 623 0 l 623 1010 l 804 1010 l 804 593 l 1274 593 l 1274 1010 l 1455 1010 l 1455 0 l 1274 0 l 1274 440 l 804 440 l 804 0 l 623 0 m 1095 -335 q 970 -208 970 -335 l 970 -80 l 1107 -80 l 1107 -203 q 1114 -238 1107 -228 q 1143 -248 1121 -248 q 1173 -246 1156 -248 l 1173 -326 q 1136 -333 1159 -330 q 1095 -335 1113 -335 m 229 792 q 56 905 56 792 q 229 1017 56 1017 l 258 1017 l 258 930 l 226 930 q 158 890 158 930 q 229 846 158 846 l 238 846 l 238 792 l 229 792 m 353 800 l 375 1010 l 530 1010 l 455 800 l 353 800 z "},"ᾞ":{"ha":1415,"x_min":56,"x_max":1313,"o":"m 481 0 l 481 1010 l 662 1010 l 662 593 l 1132 593 l 1132 1010 l 1313 1010 l 1313 0 l 1132 0 l 1132 440 l 662 440 l 662 0 l 481 0 m 952 -335 q 828 -208 828 -335 l 828 -80 l 965 -80 l 965 -203 q 972 -238 965 -228 q 1001 -248 979 -248 q 1031 -246 1014 -248 l 1031 -326 q 994 -333 1017 -330 q 952 -335 970 -335 m 372 1093 q 301 1109 332 1093 q 245 1140 270 1124 q 201 1156 221 1156 q 171 1139 181 1156 q 159 1097 161 1122 l 56 1097 q 93 1213 58 1171 q 187 1256 127 1256 q 258 1240 228 1256 q 311 1208 288 1224 q 357 1193 335 1193 q 401 1253 396 1193 l 503 1253 q 465 1136 500 1178 q 372 1093 429 1093 m 207 804 l 198 804 l 198 858 l 207 858 q 278 903 278 858 q 210 943 278 943 l 178 943 l 178 1029 l 207 1029 q 380 918 380 1029 q 207 804 380 804 z "},"ᾟ":{"ha":1426,"x_min":56,"x_max":1324,"o":"m 492 0 l 492 1010 l 673 1010 l 673 593 l 1143 593 l 1143 1010 l 1324 1010 l 1324 0 l 1143 0 l 1143 440 l 673 440 l 673 0 l 492 0 m 963 -335 q 839 -208 839 -335 l 839 -80 l 976 -80 l 976 -203 q 983 -238 976 -228 q 1012 -248 989 -248 q 1042 -246 1025 -248 l 1042 -326 q 1004 -333 1027 -330 q 963 -335 981 -335 m 372 1078 q 301 1094 332 1078 q 245 1125 270 1109 q 201 1141 221 1141 q 171 1124 181 1141 q 159 1082 161 1107 l 56 1082 q 93 1198 58 1156 q 187 1241 127 1241 q 258 1225 228 1241 q 311 1194 288 1209 q 357 1178 335 1178 q 401 1238 396 1178 l 503 1238 q 465 1121 500 1163 q 372 1078 429 1078 m 351 789 q 178 903 178 789 q 351 1014 178 1014 l 380 1014 l 380 928 l 348 928 q 280 888 280 928 q 351 843 280 843 l 360 843 l 360 789 l 351 789 z "},"ῌ":{"ha":1036,"x_min":102,"x_max":934,"o":"m 102 0 l 102 1010 l 283 1010 l 283 593 l 753 593 l 753 1010 l 934 1010 l 934 0 l 753 0 l 753 440 l 283 440 l 283 0 l 102 0 m 573 -335 q 449 -208 449 -335 l 449 -80 l 586 -80 l 586 -203 q 593 -238 586 -228 q 622 -248 600 -248 q 652 -246 635 -248 l 652 -326 q 614 -333 637 -330 q 573 -335 591 -335 z "},"I":{"ha":385,"x_min":102,"x_max":283,"o":"m 283 1010 l 283 0 l 102 0 l 102 1010 l 283 1010 z "},"":{"ha":768,"x_min":102,"x_max":667,"o":"m 283 1010 l 283 0 l 102 0 l 102 1010 l 283 1010 m 667 1010 l 667 0 l 486 0 l 486 1010 l 667 1010 z "},"Ï":{"ha":385,"x_min":-50,"x_max":435,"o":"m 283 1010 l 283 0 l 102 0 l 102 1010 l 283 1010 m 45 1122 q -22 1149 5 1122 q -50 1215 -50 1176 q -22 1280 -50 1253 q 45 1307 5 1307 q 111 1280 83 1307 q 139 1215 139 1253 q 111 1149 139 1176 q 45 1122 83 1122 m 340 1122 q 273 1149 301 1122 q 245 1215 245 1176 q 273 1280 245 1253 q 340 1307 301 1307 q 407 1280 379 1307 q 435 1215 435 1253 q 407 1149 435 1176 q 340 1122 379 1122 z "},"Ḯ":{"ha":385,"x_min":-47,"x_max":437,"o":"m 283 1010 l 283 0 l 102 0 l 102 1010 l 283 1010 m 47 1103 q -19 1131 8 1103 q -47 1196 -47 1158 q -19 1261 -47 1234 q 47 1289 8 1289 q 114 1261 86 1289 q 142 1196 142 1234 q 114 1131 142 1158 q 47 1103 86 1103 m 343 1103 q 276 1131 304 1103 q 248 1196 248 1158 q 276 1261 248 1234 q 343 1289 304 1289 q 410 1261 382 1289 q 437 1196 437 1234 q 410 1131 437 1158 q 343 1103 382 1103 m 134 1352 l 221 1535 l 376 1535 l 249 1352 l 134 1352 z "},"Ɨ":{"ha":494,"x_min":11,"x_max":482,"o":"m 338 1010 l 338 0 l 157 0 l 157 1010 l 338 1010 m 11 484 l 11 569 l 482 569 l 482 484 l 11 484 z "},"Ḭ":{"ha":385,"x_min":-29,"x_max":417,"o":"m 283 1010 l 283 0 l 102 0 l 102 1010 l 283 1010 m 287 -290 q 216 -273 247 -290 q 160 -240 184 -256 q 116 -224 136 -224 q 85 -242 96 -224 q 74 -286 75 -260 l -29 -286 q 7 -164 -27 -208 q 102 -119 42 -119 q 173 -136 143 -119 q 226 -168 202 -152 q 273 -184 250 -184 q 316 -122 311 -184 l 417 -122 q 379 -245 415 -201 q 287 -290 344 -290 z "},"Ì":{"ha":385,"x_min":-7,"x_max":283,"o":"m 283 1010 l 283 0 l 102 0 l 102 1010 l 283 1010 m 130 1107 l -7 1315 l 165 1315 l 259 1107 l 130 1107 z "},"Í":{"ha":385,"x_min":102,"x_max":391,"o":"m 283 1010 l 283 0 l 102 0 l 102 1010 l 283 1010 m 125 1107 l 220 1315 l 391 1315 l 254 1107 l 125 1107 z "},"Î":{"ha":385,"x_min":-62,"x_max":448,"o":"m 283 1010 l 283 0 l 102 0 l 102 1010 l 283 1010 m 96 1116 l -62 1116 l -62 1121 l 121 1315 l 264 1315 l 448 1121 l 448 1116 l 289 1116 l 193 1232 l 96 1116 z "},"Ĩ":{"ha":385,"x_min":-31,"x_max":416,"o":"m 283 1010 l 283 0 l 102 0 l 102 1010 l 283 1010 m 286 1128 q 214 1145 245 1128 q 159 1178 183 1162 q 115 1194 134 1194 q 84 1176 94 1194 q 73 1133 74 1158 l -31 1133 q 6 1254 -28 1210 q 100 1299 41 1299 q 171 1282 142 1299 q 224 1250 201 1266 q 271 1234 248 1234 q 315 1296 309 1234 l 416 1296 q 378 1173 414 1217 q 286 1128 342 1128 z "},"Ī":{"ha":385,"x_min":-1,"x_max":386,"o":"m 283 1010 l 283 0 l 102 0 l 102 1010 l 283 1010 m 386 1274 l 386 1155 l -1 1155 l -1 1274 l 386 1274 z "},"Ĭ":{"ha":385,"x_min":-29,"x_max":414,"o":"m 283 1010 l 283 0 l 102 0 l 102 1010 l 283 1010 m 193 1108 q 80 1136 130 1108 q 0 1209 30 1163 q -29 1313 -29 1255 l 80 1313 q 112 1240 80 1269 q 193 1212 144 1212 q 273 1240 241 1212 q 304 1313 304 1269 l 414 1313 q 385 1210 414 1256 q 305 1136 355 1163 q 193 1108 255 1108 z "},"Į":{"ha":385,"x_min":12,"x_max":320,"o":"m 283 1010 l 283 0 l 102 0 l 102 1010 l 283 1010 m 184 -293 q 60 -257 109 -293 q 12 -154 12 -220 q 39 -63 12 -106 q 113 14 66 -20 l 282 0 q 201 -57 231 -27 q 170 -125 170 -87 q 222 -176 170 -176 q 252 -171 238 -176 q 278 -159 266 -166 l 320 -259 q 261 -283 297 -273 q 184 -293 226 -293 z "},"İ":{"ha":385,"x_min":90,"x_max":296,"o":"m 283 1010 l 283 0 l 102 0 l 102 1010 l 283 1010 m 193 1118 q 120 1146 151 1118 q 90 1215 90 1174 q 120 1283 90 1255 q 193 1311 151 1311 q 266 1283 235 1311 q 296 1215 296 1255 q 266 1146 296 1174 q 193 1118 235 1118 z "},"Ǐ":{"ha":385,"x_min":-62,"x_max":448,"o":"m 283 1010 l 283 0 l 102 0 l 102 1010 l 283 1010 m 96 1315 l 193 1198 l 289 1315 l 448 1315 l 448 1310 l 264 1116 l 121 1116 l -62 1310 l -62 1315 l 96 1315 z "},"Ȉ":{"ha":385,"x_min":-147,"x_max":373,"o":"m 283 1010 l 283 0 l 102 0 l 102 1010 l 283 1010 m 12 1107 l -147 1315 l 28 1315 l 142 1107 l 12 1107 m 245 1107 l 132 1315 l 298 1315 l 373 1107 l 245 1107 z "},"Ȋ":{"ha":385,"x_min":-35,"x_max":420,"o":"m 283 1010 l 283 0 l 102 0 l 102 1010 l 283 1010 m 193 1328 q 310 1299 258 1328 q 391 1223 361 1271 q 420 1116 420 1175 l 311 1116 q 276 1192 311 1162 q 193 1222 241 1222 q 109 1192 144 1222 q 74 1116 74 1162 l -35 1116 q -5 1223 -35 1175 q 76 1299 24 1271 q 193 1328 127 1328 z "},"Ỉ":{"ha":385,"x_min":68,"x_max":306,"o":"m 283 1010 l 283 0 l 102 0 l 102 1010 l 283 1010 m 242 1107 l 131 1107 l 182 1200 q 172 1219 191 1219 l 68 1219 l 68 1315 l 172 1315 q 273 1292 241 1315 q 306 1233 305 1268 q 280 1160 306 1197 l 242 1107 z "},"Ị":{"ha":385,"x_min":90,"x_max":296,"o":"m 283 1010 l 283 0 l 102 0 l 102 1010 l 283 1010 m 193 -300 q 120 -272 151 -300 q 90 -203 90 -244 q 120 -135 90 -163 q 193 -107 151 -107 q 266 -135 235 -107 q 296 -203 296 -163 q 266 -272 296 -244 q 193 -300 235 -300 z "},"Ɩ":{"ha":414,"x_min":94,"x_max":401,"o":"m 300 -5 q 144 44 195 -5 q 94 187 94 92 l 94 1010 l 270 1010 l 270 216 q 282 156 270 174 q 328 138 295 138 q 355 140 346 138 q 372 143 364 141 l 401 9 q 359 0 385 5 q 300 -5 332 -5 z "},"Ι":{"ha":385,"x_min":102,"x_max":283,"o":"m 283 1010 l 283 0 l 102 0 l 102 1010 l 283 1010 z "},"Ί":{"ha":621,"x_min":56,"x_max":520,"o":"m 520 1010 l 520 0 l 339 0 l 339 1010 l 520 1010 m 56 803 l 79 1010 l 245 1010 l 165 803 l 56 803 z "},"Ϊ":{"ha":385,"x_min":-50,"x_max":435,"o":"m 283 1010 l 283 0 l 102 0 l 102 1010 l 283 1010 m 45 1122 q -22 1149 5 1122 q -50 1215 -50 1176 q -22 1280 -50 1253 q 45 1307 5 1307 q 111 1280 83 1307 q 139 1215 139 1253 q 111 1149 139 1176 q 45 1122 83 1122 m 340 1122 q 273 1149 301 1122 q 245 1215 245 1176 q 273 1280 245 1253 q 340 1307 301 1307 q 407 1280 379 1307 q 435 1215 435 1253 q 407 1149 435 1176 q 340 1122 379 1122 z "},"Ἰ":{"ha":637,"x_min":56,"x_max":535,"o":"m 535 1010 l 535 0 l 354 0 l 354 1010 l 535 1010 m 85 810 l 76 810 l 76 863 l 85 863 q 156 908 156 863 q 88 948 156 948 l 56 948 l 56 1034 l 85 1034 q 258 923 258 1034 q 85 810 258 810 z "},"Ἱ":{"ha":648,"x_min":56,"x_max":547,"o":"m 547 1010 l 547 0 l 366 0 l 366 1010 l 547 1010 m 229 792 q 56 905 56 792 q 229 1017 56 1017 l 258 1017 l 258 930 l 226 930 q 158 890 158 930 q 229 846 158 846 l 238 846 l 238 792 l 229 792 z "},"Ἲ":{"ha":885,"x_min":56,"x_max":783,"o":"m 783 1010 l 783 0 l 602 0 l 602 1010 l 783 1010 m 85 792 l 76 792 l 76 846 l 85 846 q 156 890 156 846 q 88 930 156 930 l 56 930 l 56 1017 l 85 1017 q 258 905 258 1017 q 85 792 258 792 m 464 800 l 362 800 l 288 1010 l 443 1010 l 464 800 z "},"Ἳ":{"ha":907,"x_min":56,"x_max":806,"o":"m 806 1010 l 806 0 l 625 0 l 625 1010 l 806 1010 m 229 792 q 56 905 56 792 q 229 1017 56 1017 l 258 1017 l 258 930 l 226 930 q 158 890 158 930 q 229 846 158 846 l 238 846 l 238 792 l 229 792 m 486 800 l 385 800 l 310 1010 l 465 1010 l 486 800 z "},"Ἴ":{"ha":890,"x_min":56,"x_max":789,"o":"m 789 1010 l 789 0 l 608 0 l 608 1010 l 789 1010 m 85 792 l 76 792 l 76 846 l 85 846 q 156 890 156 846 q 88 930 156 930 l 56 930 l 56 1017 l 85 1017 q 258 905 258 1017 q 85 792 258 792 m 342 800 l 363 1010 l 518 1010 l 444 800 l 342 800 z "},"Ἵ":{"ha":905,"x_min":56,"x_max":804,"o":"m 804 1010 l 804 0 l 623 0 l 623 1010 l 804 1010 m 229 792 q 56 905 56 792 q 229 1017 56 1017 l 258 1017 l 258 930 l 226 930 q 158 890 158 930 q 229 846 158 846 l 238 846 l 238 792 l 229 792 m 353 800 l 375 1010 l 530 1010 l 455 800 l 353 800 z "},"Ἶ":{"ha":764,"x_min":56,"x_max":662,"o":"m 662 1010 l 662 0 l 481 0 l 481 1010 l 662 1010 m 372 1093 q 301 1109 332 1093 q 245 1140 270 1124 q 201 1156 221 1156 q 171 1139 181 1156 q 159 1097 161 1122 l 56 1097 q 93 1213 58 1171 q 187 1256 127 1256 q 258 1240 228 1256 q 311 1208 288 1224 q 357 1193 335 1193 q 401 1253 396 1193 l 503 1253 q 465 1136 500 1178 q 372 1093 429 1093 m 207 804 l 198 804 l 198 858 l 207 858 q 278 903 278 858 q 210 943 278 943 l 178 943 l 178 1029 l 207 1029 q 380 918 380 1029 q 207 804 380 804 z "},"Ἷ":{"ha":774,"x_min":56,"x_max":673,"o":"m 673 1010 l 673 0 l 492 0 l 492 1010 l 673 1010 m 372 1078 q 301 1094 332 1078 q 245 1125 270 1109 q 201 1141 221 1141 q 171 1124 181 1141 q 159 1082 161 1107 l 56 1082 q 93 1198 58 1156 q 187 1241 127 1241 q 258 1225 228 1241 q 311 1194 288 1209 q 357 1178 335 1178 q 401 1238 396 1178 l 503 1238 q 465 1121 500 1163 q 372 1078 429 1078 m 351 789 q 178 903 178 789 q 351 1014 178 1014 l 380 1014 l 380 928 l 348 928 q 280 888 280 928 q 351 843 280 843 l 360 843 l 360 789 l 351 789 z "},"Ῐ":{"ha":385,"x_min":-29,"x_max":414,"o":"m 283 1010 l 283 0 l 102 0 l 102 1010 l 283 1010 m 193 1108 q 80 1136 130 1108 q 0 1209 30 1163 q -29 1313 -29 1255 l 80 1313 q 112 1240 80 1269 q 193 1212 144 1212 q 273 1240 241 1212 q 304 1313 304 1269 l 414 1313 q 385 1210 414 1256 q 305 1136 355 1163 q 193 1108 255 1108 z "},"Ῑ":{"ha":385,"x_min":-1,"x_max":386,"o":"m 283 1010 l 283 0 l 102 0 l 102 1010 l 283 1010 m 386 1274 l 386 1155 l -1 1155 l -1 1274 l 386 1274 z "},"Ὶ":{"ha":572,"x_min":-75,"x_max":471,"o":"m 471 1010 l 471 0 l 290 0 l 290 1010 l 471 1010 m 114 851 l 5 851 l -75 1059 l 91 1059 l 114 851 z "},"Ί":{"ha":621,"x_min":56,"x_max":520,"o":"m 520 1010 l 520 0 l 339 0 l 339 1010 l 520 1010 m 56 803 l 79 1010 l 245 1010 l 165 803 l 56 803 z "},"І":{"ha":385,"x_min":102,"x_max":283,"o":"m 283 1010 l 283 0 l 102 0 l 102 1010 l 283 1010 z "},"Ї":{"ha":385,"x_min":-50,"x_max":435,"o":"m 283 1010 l 283 0 l 102 0 l 102 1010 l 283 1010 m 45 1122 q -22 1149 5 1122 q -50 1215 -50 1176 q -22 1280 -50 1253 q 45 1307 5 1307 q 111 1280 83 1307 q 139 1215 139 1253 q 111 1149 139 1176 q 45 1122 83 1122 m 340 1122 q 273 1149 301 1122 q 245 1215 245 1176 q 273 1280 245 1253 q 340 1307 301 1307 q 407 1280 379 1307 q 435 1215 435 1253 q 407 1149 435 1176 q 340 1122 379 1122 z "},"":{"ha":646,"x_min":54,"x_max":591,"o":"m 54 0 l 54 153 l 233 153 l 233 858 l 54 858 l 54 1010 l 591 1010 l 591 858 l 414 858 l 414 153 l 591 153 l 591 0 l 54 0 z "},"":{"ha":646,"x_min":54,"x_max":591,"o":"m 54 0 l 54 153 l 233 153 l 233 858 l 54 858 l 54 1010 l 591 1010 l 591 858 l 414 858 l 414 153 l 591 153 l 591 0 l 54 0 m 176 1122 q 109 1149 136 1122 q 81 1215 81 1176 q 109 1280 81 1253 q 176 1307 136 1307 q 242 1280 214 1307 q 270 1215 270 1253 q 242 1149 270 1176 q 176 1122 214 1122 m 471 1122 q 404 1149 432 1122 q 376 1215 376 1176 q 404 1280 376 1253 q 471 1307 432 1307 q 538 1280 510 1307 q 566 1215 566 1253 q 538 1149 566 1176 q 471 1122 510 1122 z "},"":{"ha":646,"x_min":54,"x_max":591,"o":"m 54 0 l 54 153 l 233 153 l 233 858 l 54 858 l 54 1010 l 591 1010 l 591 858 l 414 858 l 414 153 l 591 153 l 591 0 l 54 0 m 178 1103 q 111 1131 138 1103 q 83 1196 83 1158 q 111 1261 83 1234 q 178 1289 138 1289 q 244 1261 216 1289 q 272 1196 272 1234 q 244 1131 272 1158 q 178 1103 216 1103 m 473 1103 q 406 1131 434 1103 q 378 1196 378 1158 q 406 1261 378 1234 q 473 1289 434 1289 q 540 1261 512 1289 q 568 1196 568 1234 q 540 1131 568 1158 q 473 1103 512 1103 m 264 1352 l 351 1535 l 506 1535 l 379 1352 l 264 1352 z "},"":{"ha":646,"x_min":54,"x_max":591,"o":"m 54 0 l 54 153 l 233 153 l 233 858 l 54 858 l 54 1010 l 591 1010 l 591 858 l 414 858 l 414 153 l 591 153 l 591 0 l 54 0 m 87 484 l 87 569 l 558 569 l 558 484 l 87 484 z "},"":{"ha":646,"x_min":54,"x_max":591,"o":"m 54 0 l 54 153 l 233 153 l 233 858 l 54 858 l 54 1010 l 591 1010 l 591 858 l 414 858 l 414 153 l 591 153 l 591 0 l 54 0 m 418 -290 q 347 -273 378 -290 q 291 -240 315 -256 q 247 -224 267 -224 q 216 -242 227 -224 q 205 -286 206 -260 l 102 -286 q 138 -164 104 -208 q 233 -119 173 -119 q 303 -136 274 -119 q 357 -168 333 -152 q 404 -184 380 -184 q 447 -122 441 -184 l 548 -122 q 510 -245 546 -201 q 418 -290 475 -290 z "},"":{"ha":646,"x_min":54,"x_max":591,"o":"m 54 0 l 54 153 l 233 153 l 233 858 l 54 858 l 54 1010 l 591 1010 l 591 858 l 414 858 l 414 153 l 591 153 l 591 0 l 54 0 m 260 1107 l 123 1315 l 295 1315 l 389 1107 l 260 1107 z "},"":{"ha":646,"x_min":54,"x_max":591,"o":"m 54 0 l 54 153 l 233 153 l 233 858 l 54 858 l 54 1010 l 591 1010 l 591 858 l 414 858 l 414 153 l 591 153 l 591 0 l 54 0 m 256 1107 l 351 1315 l 522 1315 l 385 1107 l 256 1107 z "},"":{"ha":646,"x_min":54,"x_max":591,"o":"m 54 0 l 54 153 l 233 153 l 233 858 l 54 858 l 54 1010 l 591 1010 l 591 858 l 414 858 l 414 153 l 591 153 l 591 0 l 54 0 m 226 1116 l 68 1116 l 68 1121 l 252 1315 l 394 1315 l 578 1121 l 578 1116 l 419 1116 l 323 1232 l 226 1116 z "},"":{"ha":646,"x_min":54,"x_max":591,"o":"m 54 0 l 54 153 l 233 153 l 233 858 l 54 858 l 54 1010 l 591 1010 l 591 858 l 414 858 l 414 153 l 591 153 l 591 0 l 54 0 m 416 1128 q 345 1145 376 1128 q 289 1178 313 1162 q 245 1194 264 1194 q 214 1176 224 1194 q 203 1133 204 1158 l 100 1133 q 136 1254 102 1210 q 231 1299 171 1299 q 301 1282 272 1299 q 355 1250 331 1266 q 401 1234 378 1234 q 445 1296 439 1234 l 546 1296 q 508 1173 544 1217 q 416 1128 473 1128 z "},"":{"ha":646,"x_min":54,"x_max":591,"o":"m 54 0 l 54 153 l 233 153 l 233 858 l 54 858 l 54 1010 l 591 1010 l 591 858 l 414 858 l 414 153 l 591 153 l 591 0 l 54 0 m 516 1274 l 516 1155 l 129 1155 l 129 1274 l 516 1274 z "},"":{"ha":646,"x_min":54,"x_max":591,"o":"m 54 0 l 54 153 l 233 153 l 233 858 l 54 858 l 54 1010 l 591 1010 l 591 858 l 414 858 l 414 153 l 591 153 l 591 0 l 54 0 m 323 1108 q 210 1136 260 1108 q 131 1209 160 1163 q 101 1313 101 1255 l 210 1313 q 242 1240 210 1269 q 323 1212 274 1212 q 403 1240 371 1212 q 435 1313 435 1269 l 544 1313 q 515 1210 544 1256 q 435 1136 486 1163 q 323 1108 385 1108 z "},"":{"ha":646,"x_min":54,"x_max":629,"o":"m 54 0 l 54 153 l 233 153 l 233 858 l 54 858 l 54 1010 l 591 1010 l 591 858 l 414 858 l 414 153 l 591 153 l 591 0 l 54 0 m 493 -293 q 370 -257 418 -293 q 321 -154 321 -220 q 348 -63 321 -106 q 422 14 375 -20 l 591 0 q 510 -57 541 -27 q 479 -125 479 -87 q 531 -176 479 -176 q 561 -171 547 -176 q 587 -159 575 -166 l 629 -259 q 571 -283 606 -273 q 493 -293 535 -293 z "},"":{"ha":646,"x_min":54,"x_max":591,"o":"m 54 0 l 54 153 l 233 153 l 233 858 l 54 858 l 54 1010 l 591 1010 l 591 858 l 414 858 l 414 153 l 591 153 l 591 0 l 54 0 m 323 1118 q 251 1146 281 1118 q 220 1215 220 1174 q 251 1283 220 1255 q 323 1311 281 1311 q 396 1283 366 1311 q 426 1215 426 1255 q 396 1146 426 1174 q 323 1118 366 1118 z "},"":{"ha":646,"x_min":54,"x_max":591,"o":"m 54 0 l 54 153 l 233 153 l 233 858 l 54 858 l 54 1010 l 591 1010 l 591 858 l 414 858 l 414 153 l 591 153 l 591 0 l 54 0 m 226 1315 l 323 1198 l 419 1315 l 578 1315 l 578 1310 l 394 1116 l 252 1116 l 68 1310 l 68 1315 l 226 1315 z "},"":{"ha":646,"x_min":-17,"x_max":591,"o":"m 54 0 l 54 153 l 233 153 l 233 858 l 54 858 l 54 1010 l 591 1010 l 591 858 l 414 858 l 414 153 l 591 153 l 591 0 l 54 0 m 142 1107 l -17 1315 l 158 1315 l 273 1107 l 142 1107 m 375 1107 l 262 1315 l 429 1315 l 503 1107 l 375 1107 z "},"":{"ha":646,"x_min":54,"x_max":591,"o":"m 54 0 l 54 153 l 233 153 l 233 858 l 54 858 l 54 1010 l 591 1010 l 591 858 l 414 858 l 414 153 l 591 153 l 591 0 l 54 0 m 323 1328 q 440 1299 388 1328 q 521 1223 492 1271 q 551 1116 551 1175 l 441 1116 q 406 1192 441 1162 q 323 1222 371 1222 q 239 1192 275 1222 q 204 1116 204 1162 l 95 1116 q 125 1223 95 1175 q 206 1299 155 1271 q 323 1328 258 1328 z "},"":{"ha":646,"x_min":54,"x_max":591,"o":"m 54 0 l 54 153 l 233 153 l 233 858 l 54 858 l 54 1010 l 591 1010 l 591 858 l 414 858 l 414 153 l 591 153 l 591 0 l 54 0 m 372 1107 l 261 1107 l 312 1200 q 302 1219 321 1219 l 198 1219 l 198 1315 l 302 1315 q 403 1292 371 1315 q 436 1233 435 1268 q 410 1160 436 1197 l 372 1107 z "},"":{"ha":646,"x_min":54,"x_max":591,"o":"m 54 0 l 54 153 l 233 153 l 233 858 l 54 858 l 54 1010 l 591 1010 l 591 858 l 414 858 l 414 153 l 591 153 l 591 0 l 54 0 m 324 -300 q 252 -272 282 -300 q 222 -203 222 -244 q 252 -135 222 -163 q 324 -107 282 -107 q 397 -135 367 -107 q 427 -203 427 -163 q 397 -272 427 -244 q 324 -300 367 -300 z "},"":{"ha":939,"x_min":56,"x_max":884,"o":"m 347 0 l 347 153 l 526 153 l 526 858 l 347 858 l 347 1010 l 884 1010 l 884 858 l 707 858 l 707 153 l 884 153 l 884 0 l 347 0 m 85 810 l 76 810 l 76 863 l 85 863 q 156 908 156 863 q 88 948 156 948 l 56 948 l 56 1034 l 85 1034 q 258 923 258 1034 q 85 810 258 810 z "},"":{"ha":949,"x_min":56,"x_max":896,"o":"m 359 0 l 359 153 l 537 153 l 537 858 l 359 858 l 359 1010 l 896 1010 l 896 858 l 718 858 l 718 153 l 896 153 l 896 0 l 359 0 m 229 792 q 56 905 56 792 q 229 1017 56 1017 l 258 1017 l 258 930 l 226 930 q 158 890 158 930 q 229 846 158 846 l 238 846 l 238 792 l 229 792 z "},"":{"ha":1186,"x_min":56,"x_max":1133,"o":"m 595 0 l 595 153 l 774 153 l 774 858 l 595 858 l 595 1010 l 1133 1010 l 1133 858 l 955 858 l 955 153 l 1133 153 l 1133 0 l 595 0 m 85 792 l 76 792 l 76 846 l 85 846 q 156 890 156 846 q 88 930 156 930 l 56 930 l 56 1017 l 85 1017 q 258 905 258 1017 q 85 792 258 792 m 464 800 l 362 800 l 288 1010 l 443 1010 l 464 800 z "},"":{"ha":1208,"x_min":56,"x_max":1154,"o":"m 617 0 l 617 153 l 795 153 l 795 858 l 617 858 l 617 1010 l 1154 1010 l 1154 858 l 977 858 l 977 153 l 1154 153 l 1154 0 l 617 0 m 229 792 q 56 905 56 792 q 229 1017 56 1017 l 258 1017 l 258 930 l 226 930 q 158 890 158 930 q 229 846 158 846 l 238 846 l 238 792 l 229 792 m 486 800 l 385 800 l 310 1010 l 465 1010 l 486 800 z "},"":{"ha":1192,"x_min":56,"x_max":1138,"o":"m 601 0 l 601 153 l 779 153 l 779 858 l 601 858 l 601 1010 l 1138 1010 l 1138 858 l 960 858 l 960 153 l 1138 153 l 1138 0 l 601 0 m 85 792 l 76 792 l 76 846 l 85 846 q 156 890 156 846 q 88 930 156 930 l 56 930 l 56 1017 l 85 1017 q 258 905 258 1017 q 85 792 258 792 m 342 800 l 363 1010 l 518 1010 l 444 800 l 342 800 z "},"":{"ha":1207,"x_min":56,"x_max":1154,"o":"m 616 0 l 616 153 l 795 153 l 795 858 l 616 858 l 616 1010 l 1154 1010 l 1154 858 l 976 858 l 976 153 l 1154 153 l 1154 0 l 616 0 m 229 792 q 56 905 56 792 q 229 1017 56 1017 l 258 1017 l 258 930 l 226 930 q 158 890 158 930 q 229 846 158 846 l 238 846 l 238 792 l 229 792 m 353 800 l 375 1010 l 530 1010 l 455 800 l 353 800 z "},"":{"ha":1065,"x_min":56,"x_max":1011,"o":"m 474 0 l 474 153 l 652 153 l 652 858 l 474 858 l 474 1010 l 1011 1010 l 1011 858 l 833 858 l 833 153 l 1011 153 l 1011 0 l 474 0 m 372 1093 q 301 1109 332 1093 q 245 1140 270 1124 q 201 1156 221 1156 q 171 1139 181 1156 q 159 1097 161 1122 l 56 1097 q 93 1213 58 1171 q 187 1256 127 1256 q 258 1240 228 1256 q 311 1208 288 1224 q 357 1193 335 1193 q 401 1253 396 1193 l 503 1253 q 465 1136 500 1178 q 372 1093 429 1093 m 207 804 l 198 804 l 198 858 l 207 858 q 278 903 278 858 q 210 943 278 943 l 178 943 l 178 1029 l 207 1029 q 380 918 380 1029 q 207 804 380 804 z "},"":{"ha":1076,"x_min":56,"x_max":1022,"o":"m 485 0 l 485 153 l 663 153 l 663 858 l 485 858 l 485 1010 l 1022 1010 l 1022 858 l 844 858 l 844 153 l 1022 153 l 1022 0 l 485 0 m 372 1078 q 301 1094 332 1078 q 245 1125 270 1109 q 201 1141 221 1141 q 171 1124 181 1141 q 159 1082 161 1107 l 56 1082 q 93 1198 58 1156 q 187 1241 127 1241 q 258 1225 228 1241 q 311 1194 288 1209 q 357 1178 335 1178 q 401 1238 396 1178 l 503 1238 q 465 1121 500 1163 q 372 1078 429 1078 m 351 789 q 178 903 178 789 q 351 1014 178 1014 l 380 1014 l 380 928 l 348 928 q 280 888 280 928 q 351 843 280 843 l 360 843 l 360 789 l 351 789 z "},"":{"ha":646,"x_min":54,"x_max":591,"o":"m 54 0 l 54 153 l 233 153 l 233 858 l 54 858 l 54 1010 l 591 1010 l 591 858 l 414 858 l 414 153 l 591 153 l 591 0 l 54 0 m 323 1108 q 210 1136 260 1108 q 131 1209 160 1163 q 101 1313 101 1255 l 210 1313 q 242 1240 210 1269 q 323 1212 274 1212 q 403 1240 371 1212 q 435 1313 435 1269 l 544 1313 q 515 1210 544 1256 q 435 1136 486 1163 q 323 1108 385 1108 z "},"":{"ha":646,"x_min":54,"x_max":591,"o":"m 54 0 l 54 153 l 233 153 l 233 858 l 54 858 l 54 1010 l 591 1010 l 591 858 l 414 858 l 414 153 l 591 153 l 591 0 l 54 0 m 516 1274 l 516 1155 l 129 1155 l 129 1274 l 516 1274 z "},"":{"ha":833,"x_min":-115,"x_max":779,"o":"m 242 0 l 242 153 l 420 153 l 420 858 l 242 858 l 242 1010 l 779 1010 l 779 858 l 602 858 l 602 153 l 779 153 l 779 0 l 242 0 m 74 851 l -35 851 l -115 1059 l 51 1059 l 74 851 z "},"":{"ha":923,"x_min":56,"x_max":869,"o":"m 332 0 l 332 153 l 511 153 l 511 858 l 332 858 l 332 1010 l 869 1010 l 869 858 l 692 858 l 692 153 l 869 153 l 869 0 l 332 0 m 56 803 l 79 1010 l 245 1010 l 165 803 l 56 803 z "},"":{"ha":646,"x_min":54,"x_max":591,"o":"m 54 0 l 54 153 l 233 153 l 233 858 l 54 858 l 54 1010 l 591 1010 l 591 858 l 414 858 l 414 153 l 591 153 l 591 0 l 54 0 z "},"":{"ha":646,"x_min":54,"x_max":591,"o":"m 54 0 l 54 153 l 233 153 l 233 858 l 54 858 l 54 1010 l 591 1010 l 591 858 l 414 858 l 414 153 l 591 153 l 591 0 l 54 0 m 176 1122 q 109 1149 136 1122 q 81 1215 81 1176 q 109 1280 81 1253 q 176 1307 136 1307 q 242 1280 214 1307 q 270 1215 270 1253 q 242 1149 270 1176 q 176 1122 214 1122 m 471 1122 q 404 1149 432 1122 q 376 1215 376 1176 q 404 1280 376 1253 q 471 1307 432 1307 q 538 1280 510 1307 q 566 1215 566 1253 q 538 1149 566 1176 q 471 1122 510 1122 z "},"J":{"ha":805,"x_min":53,"x_max":704,"o":"m 380 -14 q 141 67 230 -14 q 53 298 53 149 l 53 356 l 234 356 l 234 297 q 274 176 234 217 q 380 136 313 136 q 485 177 446 136 q 524 297 524 218 l 524 1010 l 704 1010 l 704 299 q 616 67 704 149 q 380 -14 528 -14 z "},"Ĵ":{"ha":805,"x_min":53,"x_max":869,"o":"m 380 -14 q 141 67 230 -14 q 53 298 53 149 l 53 356 l 234 356 l 234 297 q 274 176 234 217 q 380 136 313 136 q 485 177 446 136 q 524 297 524 218 l 524 1010 l 704 1010 l 704 299 q 616 67 704 149 q 380 -14 528 -14 m 517 1116 l 359 1116 l 359 1121 l 543 1315 l 685 1315 l 869 1121 l 869 1116 l 710 1116 l 614 1232 l 517 1116 z "},"Ɉ":{"ha":860,"x_min":53,"x_max":848,"o":"m 380 -14 q 141 67 230 -14 q 53 298 53 149 l 53 356 l 234 356 l 234 297 q 274 176 234 217 q 380 136 313 136 q 485 177 446 136 q 524 297 524 218 l 524 1010 l 704 1010 l 704 299 q 616 67 704 149 q 380 -14 528 -14 m 377 557 l 377 642 l 848 642 l 848 557 l 377 557 z "},"Ϳ":{"ha":805,"x_min":53,"x_max":704,"o":"m 380 -14 q 141 67 230 -14 q 53 298 53 149 l 53 356 l 234 356 l 234 297 q 274 176 234 217 q 380 136 313 136 q 485 177 446 136 q 524 297 524 218 l 524 1010 l 704 1010 l 704 299 q 616 67 704 149 q 380 -14 528 -14 z "},"Ј":{"ha":805,"x_min":53,"x_max":704,"o":"m 380 -14 q 141 67 230 -14 q 53 298 53 149 l 53 356 l 234 356 l 234 297 q 274 176 234 217 q 380 136 313 136 q 485 177 446 136 q 524 297 524 218 l 524 1010 l 704 1010 l 704 299 q 616 67 704 149 q 380 -14 528 -14 z "},"K":{"ha":977,"x_min":102,"x_max":941,"o":"m 102 0 l 102 1010 l 283 1010 l 283 711 l 280 494 q 355 600 315 549 q 444 708 394 650 l 709 1010 l 934 1010 l 546 573 l 941 0 l 727 0 l 420 453 l 283 303 l 283 0 l 102 0 z "},"Ķ":{"ha":977,"x_min":102,"x_max":941,"o":"m 102 0 l 102 1010 l 283 1010 l 283 711 l 280 494 q 355 600 315 549 q 444 708 394 650 l 709 1010 l 934 1010 l 546 573 l 941 0 l 727 0 l 420 453 l 283 303 l 283 0 l 102 0 m 346 -328 l 405 -80 l 572 -80 l 473 -328 l 346 -328 z "},"Ǩ":{"ha":977,"x_min":102,"x_max":941,"o":"m 102 0 l 102 1010 l 283 1010 l 283 711 l 280 494 q 355 600 315 549 q 444 708 394 650 l 709 1010 l 934 1010 l 546 573 l 941 0 l 727 0 l 420 453 l 283 303 l 283 0 l 102 0 m 392 1315 l 489 1198 l 585 1315 l 744 1315 l 744 1310 l 560 1116 l 418 1116 l 234 1310 l 234 1315 l 392 1315 z "},"Ḱ":{"ha":977,"x_min":102,"x_max":941,"o":"m 102 0 l 102 1010 l 283 1010 l 283 711 l 280 494 q 355 600 315 549 q 444 708 394 650 l 709 1010 l 934 1010 l 546 573 l 941 0 l 727 0 l 420 453 l 283 303 l 283 0 l 102 0 m 422 1107 l 516 1315 l 687 1315 l 550 1107 l 422 1107 z "},"Ḳ":{"ha":977,"x_min":102,"x_max":941,"o":"m 102 0 l 102 1010 l 283 1010 l 283 711 l 280 494 q 355 600 315 549 q 444 708 394 650 l 709 1010 l 934 1010 l 546 573 l 941 0 l 727 0 l 420 453 l 283 303 l 283 0 l 102 0 m 490 -300 q 417 -272 448 -300 q 387 -203 387 -244 q 417 -135 387 -163 q 490 -107 448 -107 q 563 -135 532 -107 q 593 -203 593 -163 q 563 -272 593 -244 q 490 -300 532 -300 z "},"Ḵ":{"ha":977,"x_min":102,"x_max":941,"o":"m 102 0 l 102 1010 l 283 1010 l 283 711 l 280 494 q 355 600 315 549 q 444 708 394 650 l 709 1010 l 934 1010 l 546 573 l 941 0 l 727 0 l 420 453 l 283 303 l 283 0 l 102 0 m 682 -144 l 682 -263 l 295 -263 l 295 -144 l 682 -144 z "},"Ҡ":{"ha":1209,"x_min":56,"x_max":1173,"o":"m 334 0 l 334 861 l 56 861 l 56 1010 l 515 1010 l 515 590 l 640 590 l 941 1010 l 1156 1010 l 791 519 l 1173 0 l 958 0 l 642 440 l 515 440 l 515 0 l 334 0 z "},"Қ":{"ha":1031,"x_min":102,"x_max":1000,"o":"m 102 0 l 102 1010 l 283 1010 l 283 590 l 408 590 l 709 1010 l 924 1010 l 559 519 l 941 0 l 726 0 l 409 440 l 283 440 l 283 0 l 102 0 m 822 -217 l 822 0 l 766 0 l 766 145 l 1000 145 l 994 -217 l 822 -217 z "},"Ƙ":{"ha":986,"x_min":102,"x_max":976,"o":"m 102 0 l 102 1010 l 283 1010 l 283 552 l 296 552 l 652 935 q 807 1021 722 1010 q 976 980 892 1031 l 914 850 q 844 863 876 872 q 778 817 812 854 l 522 548 l 941 0 l 724 0 l 408 420 l 283 283 l 283 0 l 102 0 z "},"Κ":{"ha":977,"x_min":102,"x_max":941,"o":"m 102 0 l 102 1010 l 283 1010 l 283 711 l 280 494 q 355 600 315 549 q 444 708 394 650 l 709 1010 l 934 1010 l 546 573 l 941 0 l 727 0 l 420 453 l 283 303 l 283 0 l 102 0 z "},"L":{"ha":785,"x_min":102,"x_max":729,"o":"m 102 0 l 102 1010 l 283 1010 l 283 153 l 729 153 l 729 0 l 102 0 z "},"Ĺ":{"ha":785,"x_min":102,"x_max":729,"o":"m 102 0 l 102 1010 l 283 1010 l 283 153 l 729 153 l 729 0 l 102 0 m 124 1107 l 218 1315 l 389 1315 l 252 1107 l 124 1107 z "},"Ļ":{"ha":785,"x_min":102,"x_max":729,"o":"m 102 0 l 102 1010 l 283 1010 l 283 153 l 729 153 l 729 0 l 102 0 m 273 -328 l 332 -80 l 499 -80 l 399 -328 l 273 -328 z "},"Ľ":{"ha":785,"x_min":102,"x_max":729,"o":"m 102 0 l 102 1010 l 283 1010 l 283 153 l 729 153 l 729 0 l 102 0 m 441 802 l 441 1061 l 586 1061 l 550 802 l 441 802 z "},"Ḷ":{"ha":785,"x_min":102,"x_max":729,"o":"m 102 0 l 102 1010 l 283 1010 l 283 153 l 729 153 l 729 0 l 102 0 m 416 -300 q 344 -272 374 -300 q 314 -203 314 -244 q 344 -135 314 -163 q 416 -107 374 -107 q 489 -135 459 -107 q 519 -203 519 -163 q 489 -272 519 -244 q 416 -300 459 -300 z "},"Ḹ":{"ha":785,"x_min":-3,"x_max":729,"o":"m 102 0 l 102 1010 l 283 1010 l 283 153 l 729 153 l 729 0 l 102 0 m 416 -300 q 344 -272 374 -300 q 314 -203 314 -244 q 344 -135 314 -163 q 416 -107 374 -107 q 489 -135 459 -107 q 519 -203 519 -163 q 489 -272 519 -244 q 416 -300 459 -300 m 385 1274 l 385 1155 l -3 1155 l -3 1274 l 385 1274 z "},"Ḻ":{"ha":785,"x_min":102,"x_max":729,"o":"m 102 0 l 102 1010 l 283 1010 l 283 153 l 729 153 l 729 0 l 102 0 m 609 -144 l 609 -263 l 222 -263 l 222 -144 l 609 -144 z "},"Ḽ":{"ha":785,"x_min":102,"x_max":729,"o":"m 102 0 l 102 1010 l 283 1010 l 283 153 l 729 153 l 729 0 l 102 0 m 321 -303 l 163 -303 l 163 -298 l 347 -104 l 490 -104 l 673 -298 l 673 -303 l 515 -303 l 418 -187 l 321 -303 z "},"Ł":{"ha":836,"x_min":22,"x_max":779,"o":"m 152 0 l 152 1010 l 333 1010 l 333 153 l 779 153 l 779 0 l 152 0 m 22 304 l 22 466 l 574 784 l 574 623 l 22 304 z "},"Ƚ":{"ha":826,"x_min":14,"x_max":770,"o":"m 142 0 l 142 1010 l 323 1010 l 323 153 l 770 153 l 770 0 l 142 0 m 14 441 l 14 569 l 556 569 l 556 441 l 14 441 z "},"ǈ":{"ha":1149,"x_min":102,"x_max":1069,"o":"m 102 0 l 102 1010 l 283 1010 l 283 153 l 729 153 l 729 0 l 102 0 m 878 758 l 1055 758 l 1055 -44 q 986 -225 1055 -168 q 793 -283 917 -283 l 757 -283 l 757 -139 l 783 -139 q 856 -115 834 -139 q 878 -42 878 -90 l 878 758 m 966 865 q 894 893 924 865 q 864 962 864 922 q 894 1030 864 1002 q 966 1059 924 1059 q 1039 1030 1009 1059 q 1069 962 1069 1002 q 1039 893 1069 922 q 966 865 1009 865 z "},"M":{"ha":1281,"x_min":102,"x_max":1179,"o":"m 102 0 l 102 1010 l 374 1010 l 566 489 q 590 411 576 459 q 616 309 603 363 q 642 204 630 254 q 667 308 653 254 q 693 411 680 363 q 716 489 707 458 l 906 1010 l 1179 1010 l 1179 0 l 999 0 l 999 510 q 1000 604 999 548 q 1003 723 1001 660 q 1005 846 1004 786 q 969 717 988 781 q 933 598 950 652 q 904 510 916 544 l 718 0 l 564 0 l 374 510 q 346 595 362 543 q 310 712 329 648 q 273 841 292 776 q 276 722 274 784 q 278 604 277 660 q 279 510 279 549 l 279 0 l 102 0 z "},"Ḿ":{"ha":1281,"x_min":102,"x_max":1179,"o":"m 102 0 l 102 1010 l 374 1010 l 566 489 q 590 411 576 459 q 616 309 603 363 q 642 204 630 254 q 667 308 653 254 q 693 411 680 363 q 716 489 707 458 l 906 1010 l 1179 1010 l 1179 0 l 999 0 l 999 510 q 1000 604 999 548 q 1003 723 1001 660 q 1005 846 1004 786 q 969 717 988 781 q 933 598 950 652 q 904 510 916 544 l 718 0 l 564 0 l 374 510 q 346 595 362 543 q 310 712 329 648 q 273 841 292 776 q 276 722 274 784 q 278 604 277 660 q 279 510 279 549 l 279 0 l 102 0 m 572 1107 l 666 1315 l 837 1315 l 700 1107 l 572 1107 z "},"Ṁ":{"ha":1281,"x_min":102,"x_max":1179,"o":"m 102 0 l 102 1010 l 374 1010 l 566 489 q 590 411 576 459 q 616 309 603 363 q 642 204 630 254 q 667 308 653 254 q 693 411 680 363 q 716 489 707 458 l 906 1010 l 1179 1010 l 1179 0 l 999 0 l 999 510 q 1000 604 999 548 q 1003 723 1001 660 q 1005 846 1004 786 q 969 717 988 781 q 933 598 950 652 q 904 510 916 544 l 718 0 l 564 0 l 374 510 q 346 595 362 543 q 310 712 329 648 q 273 841 292 776 q 276 722 274 784 q 278 604 277 660 q 279 510 279 549 l 279 0 l 102 0 m 639 1118 q 567 1146 597 1118 q 536 1215 536 1174 q 567 1283 536 1255 q 639 1311 597 1311 q 712 1283 682 1311 q 742 1215 742 1255 q 712 1146 742 1174 q 639 1118 682 1118 z "},"Ṃ":{"ha":1281,"x_min":102,"x_max":1179,"o":"m 102 0 l 102 1010 l 374 1010 l 566 489 q 590 411 576 459 q 616 309 603 363 q 642 204 630 254 q 667 308 653 254 q 693 411 680 363 q 716 489 707 458 l 906 1010 l 1179 1010 l 1179 0 l 999 0 l 999 510 q 1000 604 999 548 q 1003 723 1001 660 q 1005 846 1004 786 q 969 717 988 781 q 933 598 950 652 q 904 510 916 544 l 718 0 l 564 0 l 374 510 q 346 595 362 543 q 310 712 329 648 q 273 841 292 776 q 276 722 274 784 q 278 604 277 660 q 279 510 279 549 l 279 0 l 102 0 m 640 -300 q 567 -272 597 -300 q 537 -203 537 -244 q 567 -135 537 -163 q 640 -107 597 -107 q 712 -135 682 -107 q 743 -203 743 -163 q 712 -272 743 -244 q 640 -300 682 -300 z "},"Ӎ":{"ha":1281,"x_min":102,"x_max":1308,"o":"m 102 0 l 102 1010 l 374 1010 l 566 489 q 590 411 576 459 q 616 309 603 363 q 642 204 630 254 q 667 308 653 254 q 693 411 680 363 q 716 489 707 458 l 906 1010 l 1179 1010 l 1179 0 l 999 0 l 999 510 q 1000 604 999 548 q 1003 723 1001 660 q 1005 846 1004 786 q 969 717 988 781 q 933 598 950 652 q 904 510 916 544 l 718 0 l 564 0 l 374 510 q 346 595 362 543 q 310 712 329 648 q 273 841 292 776 q 276 722 274 784 q 278 604 277 660 q 279 510 279 549 l 279 0 l 102 0 m 1029 -217 l 1096 0 l 1044 0 l 1044 145 l 1308 145 l 1196 -217 l 1029 -217 z "},"Μ":{"ha":1281,"x_min":102,"x_max":1179,"o":"m 102 0 l 102 1010 l 374 1010 l 566 489 q 590 411 576 459 q 616 309 603 363 q 642 204 630 254 q 667 308 653 254 q 693 411 680 363 q 716 489 707 458 l 906 1010 l 1179 1010 l 1179 0 l 999 0 l 999 510 q 1000 604 999 548 q 1003 723 1001 660 q 1005 846 1004 786 q 969 717 988 781 q 933 598 950 652 q 904 510 916 544 l 718 0 l 564 0 l 374 510 q 346 595 362 543 q 310 712 329 648 q 273 841 292 776 q 276 722 274 784 q 278 604 277 660 q 279 510 279 549 l 279 0 l 102 0 z "},"Ϻ":{"ha":1281,"x_min":102,"x_max":1179,"o":"m 102 0 l 102 1010 l 374 1010 l 566 489 q 590 411 576 459 q 616 309 603 363 q 642 204 630 254 q 667 308 653 254 q 693 411 680 363 q 716 489 707 458 l 906 1010 l 1179 1010 l 1179 0 l 999 0 l 999 510 q 1000 604 999 548 q 1003 723 1001 660 q 1005 846 1004 786 q 969 717 988 781 q 933 598 950 652 q 904 510 916 544 l 718 0 l 564 0 l 374 510 q 346 595 362 543 q 310 712 329 648 q 273 841 292 776 q 276 722 274 784 q 278 604 277 660 q 279 510 279 549 l 279 0 l 102 0 z "},"М":{"ha":1281,"x_min":102,"x_max":1179,"o":"m 102 0 l 102 1010 l 374 1010 l 566 489 q 590 411 576 459 q 616 309 603 363 q 642 204 630 254 q 667 308 653 254 q 693 411 680 363 q 716 489 707 458 l 906 1010 l 1179 1010 l 1179 0 l 999 0 l 999 510 q 1000 604 999 548 q 1003 723 1001 660 q 1005 846 1004 786 q 969 717 988 781 q 933 598 950 652 q 904 510 916 544 l 718 0 l 564 0 l 374 510 q 346 595 362 543 q 310 712 329 648 q 273 841 292 776 q 276 722 274 784 q 278 604 277 660 q 279 510 279 549 l 279 0 l 102 0 z "},"N":{"ha":1055,"x_min":102,"x_max":953,"o":"m 102 0 l 102 1010 l 307 1010 l 656 454 q 715 352 683 410 q 780 218 747 294 q 772 363 774 292 q 769 480 769 434 l 769 1010 l 953 1010 l 953 0 l 747 0 l 432 501 q 382 585 406 543 q 333 675 359 626 q 273 789 307 724 q 282 620 278 696 q 286 502 286 544 l 286 0 l 102 0 z "},"Ñ":{"ha":1055,"x_min":102,"x_max":953,"o":"m 102 0 l 102 1010 l 307 1010 l 656 454 q 715 352 683 410 q 780 218 747 294 q 772 363 774 292 q 769 480 769 434 l 769 1010 l 953 1010 l 953 0 l 747 0 l 432 501 q 382 585 406 543 q 333 675 359 626 q 273 789 307 724 q 282 620 278 696 q 286 502 286 544 l 286 0 l 102 0 m 621 1128 q 549 1145 581 1128 q 494 1178 518 1162 q 450 1194 469 1194 q 419 1176 429 1194 q 408 1133 409 1158 l 304 1133 q 341 1254 307 1210 q 435 1299 376 1299 q 506 1282 477 1299 q 559 1250 536 1266 q 606 1234 583 1234 q 650 1296 644 1234 l 751 1296 q 713 1173 749 1217 q 621 1128 677 1128 z "},"Ń":{"ha":1055,"x_min":102,"x_max":953,"o":"m 102 0 l 102 1010 l 307 1010 l 656 454 q 715 352 683 410 q 780 218 747 294 q 772 363 774 292 q 769 480 769 434 l 769 1010 l 953 1010 l 953 0 l 747 0 l 432 501 q 382 585 406 543 q 333 675 359 626 q 273 789 307 724 q 282 620 278 696 q 286 502 286 544 l 286 0 l 102 0 m 460 1107 l 555 1315 l 726 1315 l 589 1107 l 460 1107 z "},"Ņ":{"ha":1055,"x_min":102,"x_max":953,"o":"m 102 0 l 102 1010 l 307 1010 l 656 454 q 715 352 683 410 q 780 218 747 294 q 772 363 774 292 q 769 480 769 434 l 769 1010 l 953 1010 l 953 0 l 747 0 l 432 501 q 382 585 406 543 q 333 675 359 626 q 273 789 307 724 q 282 620 278 696 q 286 502 286 544 l 286 0 l 102 0 m 385 -328 l 444 -80 l 612 -80 l 512 -328 l 385 -328 z "},"Ň":{"ha":1055,"x_min":102,"x_max":953,"o":"m 102 0 l 102 1010 l 307 1010 l 656 454 q 715 352 683 410 q 780 218 747 294 q 772 363 774 292 q 769 480 769 434 l 769 1010 l 953 1010 l 953 0 l 747 0 l 432 501 q 382 585 406 543 q 333 675 359 626 q 273 789 307 724 q 282 620 278 696 q 286 502 286 544 l 286 0 l 102 0 m 431 1315 l 528 1198 l 624 1315 l 783 1315 l 783 1310 l 599 1116 l 456 1116 l 273 1310 l 273 1315 l 431 1315 z "},"Ǹ":{"ha":1055,"x_min":102,"x_max":953,"o":"m 102 0 l 102 1010 l 307 1010 l 656 454 q 715 352 683 410 q 780 218 747 294 q 772 363 774 292 q 769 480 769 434 l 769 1010 l 953 1010 l 953 0 l 747 0 l 432 501 q 382 585 406 543 q 333 675 359 626 q 273 789 307 724 q 282 620 278 696 q 286 502 286 544 l 286 0 l 102 0 m 465 1107 l 328 1315 l 499 1315 l 593 1107 l 465 1107 z "},"Ṅ":{"ha":1055,"x_min":102,"x_max":953,"o":"m 102 0 l 102 1010 l 307 1010 l 656 454 q 715 352 683 410 q 780 218 747 294 q 772 363 774 292 q 769 480 769 434 l 769 1010 l 953 1010 l 953 0 l 747 0 l 432 501 q 382 585 406 543 q 333 675 359 626 q 273 789 307 724 q 282 620 278 696 q 286 502 286 544 l 286 0 l 102 0 m 527 1118 q 455 1146 485 1118 q 425 1215 425 1174 q 455 1283 425 1255 q 527 1311 485 1311 q 600 1283 570 1311 q 630 1215 630 1255 q 600 1146 630 1174 q 527 1118 570 1118 z "},"Ṇ":{"ha":1055,"x_min":102,"x_max":953,"o":"m 102 0 l 102 1010 l 307 1010 l 656 454 q 715 352 683 410 q 780 218 747 294 q 772 363 774 292 q 769 480 769 434 l 769 1010 l 953 1010 l 953 0 l 747 0 l 432 501 q 382 585 406 543 q 333 675 359 626 q 273 789 307 724 q 282 620 278 696 q 286 502 286 544 l 286 0 l 102 0 m 528 -300 q 456 -272 486 -300 q 426 -203 426 -244 q 456 -135 426 -163 q 528 -107 486 -107 q 601 -135 571 -107 q 631 -203 631 -163 q 601 -272 631 -244 q 528 -300 571 -300 z "},"Ṉ":{"ha":1055,"x_min":102,"x_max":953,"o":"m 102 0 l 102 1010 l 307 1010 l 656 454 q 715 352 683 410 q 780 218 747 294 q 772 363 774 292 q 769 480 769 434 l 769 1010 l 953 1010 l 953 0 l 747 0 l 432 501 q 382 585 406 543 q 333 675 359 626 q 273 789 307 724 q 282 620 278 696 q 286 502 286 544 l 286 0 l 102 0 m 722 -144 l 722 -263 l 334 -263 l 334 -144 l 722 -144 z "},"Ṋ":{"ha":1055,"x_min":102,"x_max":953,"o":"m 102 0 l 102 1010 l 307 1010 l 656 454 q 715 352 683 410 q 780 218 747 294 q 772 363 774 292 q 769 480 769 434 l 769 1010 l 953 1010 l 953 0 l 747 0 l 432 501 q 382 585 406 543 q 333 675 359 626 q 273 789 307 724 q 282 620 278 696 q 286 502 286 544 l 286 0 l 102 0 m 433 -303 l 275 -303 l 275 -298 l 459 -104 l 602 -104 l 785 -298 l 785 -303 l 627 -303 l 530 -187 l 433 -303 z "},"Ɲ":{"ha":1055,"x_min":-41,"x_max":953,"o":"m -41 -283 l -41 -142 q 13 -146 -12 -146 q 83 -131 64 -146 q 102 -83 102 -116 l 102 1010 l 307 1010 l 656 454 q 715 352 683 410 q 780 218 747 294 q 772 363 774 292 q 769 480 769 434 l 769 1010 l 953 1010 l 953 0 l 747 0 l 432 501 q 382 585 406 543 q 333 675 359 626 q 273 789 307 724 q 282 620 278 696 q 286 502 286 544 l 286 0 l 283 0 l 283 -92 q 53 -293 283 -293 q -41 -283 -3 -293 z "},"Ŋ":{"ha":1055,"x_min":102,"x_max":958,"o":"m 634 -283 l 634 -142 q 688 -146 663 -146 q 758 -131 739 -146 q 777 -83 777 -116 l 777 0 l 747 0 l 432 501 q 382 585 406 543 q 333 675 359 626 q 273 789 307 724 q 282 620 278 696 q 286 502 286 544 l 286 0 l 102 0 l 102 1010 l 307 1010 l 656 454 q 715 352 683 410 q 780 218 747 294 q 772 363 774 292 q 769 480 769 434 l 769 1010 l 953 1010 l 953 87 l 958 87 l 958 -92 q 728 -293 958 -293 q 634 -283 671 -293 z "},"И":{"ha":1055,"x_min":102,"x_max":953,"o":"m 953 0 l 768 0 l 768 502 q 772 620 768 544 q 781 789 776 696 q 722 675 747 724 q 672 585 696 626 q 623 501 649 543 l 307 0 l 102 0 l 102 1010 l 286 1010 l 286 480 q 283 363 286 434 q 275 218 280 292 q 340 352 308 294 q 399 454 372 410 l 748 1010 l 953 1010 l 953 0 z "},"Ѝ":{"ha":1055,"x_min":102,"x_max":953,"o":"m 953 0 l 768 0 l 768 502 q 772 620 768 544 q 781 789 776 696 q 722 675 747 724 q 672 585 696 626 q 623 501 649 543 l 307 0 l 102 0 l 102 1010 l 286 1010 l 286 480 q 283 363 286 434 q 275 218 280 292 q 340 352 308 294 q 399 454 372 410 l 748 1010 l 953 1010 l 953 0 m 453 1107 l 316 1315 l 488 1315 l 582 1107 l 453 1107 z "},"Й":{"ha":1055,"x_min":102,"x_max":953,"o":"m 953 0 l 768 0 l 768 502 q 772 620 768 544 q 781 789 776 696 q 722 675 747 724 q 672 585 696 626 q 623 501 649 543 l 307 0 l 102 0 l 102 1010 l 286 1010 l 286 480 q 283 363 286 434 q 275 218 280 292 q 340 352 308 294 q 399 454 372 410 l 748 1010 l 953 1010 l 953 0 m 516 1108 q 404 1136 454 1108 q 324 1209 353 1163 q 294 1313 294 1255 l 404 1313 q 435 1240 404 1269 q 516 1212 467 1212 q 596 1240 564 1212 q 628 1313 628 1269 l 737 1313 q 708 1210 737 1256 q 629 1136 679 1163 q 516 1108 578 1108 z "},"Ӣ":{"ha":1055,"x_min":102,"x_max":953,"o":"m 953 0 l 768 0 l 768 502 q 772 620 768 544 q 781 789 776 696 q 722 675 747 724 q 672 585 696 626 q 623 501 649 543 l 307 0 l 102 0 l 102 1010 l 286 1010 l 286 480 q 283 363 286 434 q 275 218 280 292 q 340 352 308 294 q 399 454 372 410 l 748 1010 l 953 1010 l 953 0 m 709 1274 l 709 1155 l 322 1155 l 322 1274 l 709 1274 z "},"Ӥ":{"ha":1055,"x_min":102,"x_max":953,"o":"m 953 0 l 768 0 l 768 502 q 772 620 768 544 q 781 789 776 696 q 722 675 747 724 q 672 585 696 626 q 623 501 649 543 l 307 0 l 102 0 l 102 1010 l 286 1010 l 286 480 q 283 363 286 434 q 275 218 280 292 q 340 352 308 294 q 399 454 372 410 l 748 1010 l 953 1010 l 953 0 m 368 1122 q 301 1149 329 1122 q 274 1215 274 1176 q 301 1280 274 1253 q 368 1307 329 1307 q 435 1280 407 1307 q 463 1215 463 1253 q 435 1149 463 1176 q 368 1122 407 1122 m 664 1122 q 597 1149 625 1122 q 569 1215 569 1176 q 597 1280 569 1253 q 664 1307 625 1307 q 730 1280 703 1307 q 758 1215 758 1253 q 730 1149 758 1176 q 664 1122 703 1122 z "},"Ҋ":{"ha":1055,"x_min":102,"x_max":1059,"o":"m 953 0 l 768 0 l 768 502 q 772 620 768 544 q 781 789 776 696 q 722 675 747 724 q 672 585 696 626 q 623 501 649 543 l 307 0 l 102 0 l 102 1010 l 286 1010 l 286 480 q 283 363 286 434 q 275 218 280 292 q 340 352 308 294 q 399 454 372 410 l 748 1010 l 953 1010 l 953 0 m 516 1108 q 404 1136 454 1108 q 324 1209 353 1163 q 294 1313 294 1255 l 404 1313 q 435 1240 404 1269 q 516 1212 467 1212 q 596 1240 564 1212 q 628 1313 628 1269 l 737 1313 q 708 1210 737 1256 q 629 1136 679 1163 q 516 1108 578 1108 m 781 -217 l 848 0 l 796 0 l 796 145 l 1059 145 l 947 -217 l 781 -217 z "},"Ͷ":{"ha":1055,"x_min":102,"x_max":953,"o":"m 953 0 l 768 0 l 768 502 q 772 620 768 544 q 781 789 776 696 q 722 675 747 724 q 672 585 696 626 q 623 501 649 543 l 307 0 l 102 0 l 102 1010 l 286 1010 l 286 480 q 283 363 286 434 q 275 218 280 292 q 340 352 308 294 q 399 454 372 410 l 748 1010 l 953 1010 l 953 0 z "},"Ν":{"ha":1055,"x_min":102,"x_max":953,"o":"m 102 0 l 102 1010 l 307 1010 l 656 454 q 715 352 683 410 q 780 218 747 294 q 772 363 774 292 q 769 480 769 434 l 769 1010 l 953 1010 l 953 0 l 747 0 l 432 501 q 382 585 406 543 q 333 675 359 626 q 273 789 307 724 q 282 620 278 696 q 286 502 286 544 l 286 0 l 102 0 z "},"ǋ":{"ha":1417,"x_min":102,"x_max":1339,"o":"m 102 0 l 102 1010 l 307 1010 l 656 454 q 715 352 683 410 q 780 218 747 294 q 772 363 774 292 q 769 480 769 434 l 769 1010 l 953 1010 l 953 0 l 747 0 l 432 501 q 382 585 406 543 q 333 675 359 626 q 273 789 307 724 q 282 620 278 696 q 286 502 286 544 l 286 0 l 102 0 m 1147 758 l 1324 758 l 1324 -44 q 1255 -225 1324 -168 q 1062 -283 1186 -283 l 1026 -283 l 1026 -139 l 1052 -139 q 1125 -115 1103 -139 q 1147 -42 1147 -90 l 1147 758 m 1236 865 q 1163 893 1194 865 q 1133 962 1133 922 q 1163 1030 1133 1002 q 1236 1059 1194 1059 q 1309 1030 1278 1059 q 1339 962 1339 1002 q 1309 893 1339 922 q 1236 865 1278 865 z "},"O":{"ha":1067,"x_min":70,"x_max":998,"o":"m 534 -14 q 297 48 401 -14 q 131 226 192 110 q 70 505 70 342 q 131 784 70 668 q 297 962 192 901 q 534 1024 401 1024 q 771 962 667 1024 q 937 784 876 901 q 998 505 998 668 q 937 225 998 341 q 771 48 876 110 q 534 -14 667 -14 m 534 149 q 736 240 658 149 q 815 505 815 332 q 736 770 815 678 q 534 862 658 862 q 331 770 410 862 q 252 505 252 678 q 331 240 252 332 q 534 149 410 149 z "},"Ö":{"ha":1067,"x_min":70,"x_max":998,"o":"m 534 -14 q 297 48 401 -14 q 131 226 192 110 q 70 505 70 342 q 131 784 70 668 q 297 962 192 901 q 534 1024 401 1024 q 771 962 667 1024 q 937 784 876 901 q 998 505 998 668 q 937 225 998 341 q 771 48 876 110 q 534 -14 667 -14 m 534 149 q 736 240 658 149 q 815 505 815 332 q 736 770 815 678 q 534 862 658 862 q 331 770 410 862 q 252 505 252 678 q 331 240 252 332 q 534 149 410 149 m 387 1122 q 320 1149 347 1122 q 292 1215 292 1176 q 320 1280 292 1253 q 387 1307 347 1307 q 453 1280 425 1307 q 481 1215 481 1253 q 453 1149 481 1176 q 387 1122 425 1122 m 682 1122 q 615 1149 643 1122 q 587 1215 587 1176 q 615 1280 587 1253 q 682 1307 643 1307 q 749 1280 721 1307 q 777 1215 777 1253 q 749 1149 777 1176 q 682 1122 721 1122 z "},"Õ":{"ha":1067,"x_min":70,"x_max":998,"o":"m 534 -14 q 297 48 401 -14 q 131 226 192 110 q 70 505 70 342 q 131 784 70 668 q 297 962 192 901 q 534 1024 401 1024 q 771 962 667 1024 q 937 784 876 901 q 998 505 998 668 q 937 225 998 341 q 771 48 876 110 q 534 -14 667 -14 m 534 149 q 736 240 658 149 q 815 505 815 332 q 736 770 815 678 q 534 862 658 862 q 331 770 410 862 q 252 505 252 678 q 331 240 252 332 q 534 149 410 149 m 627 1128 q 555 1145 587 1128 q 500 1178 524 1162 q 456 1194 475 1194 q 425 1176 435 1194 q 414 1133 415 1158 l 311 1133 q 347 1254 313 1210 q 441 1299 382 1299 q 512 1282 483 1299 q 566 1250 542 1266 q 612 1234 589 1234 q 656 1296 650 1234 l 757 1296 q 719 1173 755 1217 q 627 1128 684 1128 z "},"Ø":{"ha":1067,"x_min":70,"x_max":998,"o":"m 534 -14 q 297 48 401 -14 q 131 226 192 110 q 70 505 70 342 q 131 784 70 668 q 297 962 192 901 q 534 1024 401 1024 q 771 962 667 1024 q 937 784 876 901 q 998 505 998 668 q 937 225 998 341 q 771 48 876 110 q 534 -14 667 -14 m 534 149 q 736 240 658 149 q 815 505 815 332 q 736 770 815 678 q 534 862 658 862 q 331 770 410 862 q 252 505 252 678 q 331 240 252 332 q 534 149 410 149 m 224 -39 l 128 27 l 844 1049 l 941 983 l 224 -39 z "},"Ơ":{"ha":1074,"x_min":70,"x_max":1000,"o":"m 534 -14 q 297 48 401 -14 q 131 226 192 110 q 70 505 70 342 q 131 784 70 668 q 297 962 192 901 q 534 1024 401 1024 q 537 1024 536 1024 l 537 1024 q 597 1022 573 1024 q 646 1017 621 1020 q 713 1013 672 1015 q 825 1010 754 1010 q 841 1026 841 1010 l 841 1152 l 1000 1152 l 1000 1022 q 963 924 1000 954 q 863 893 926 893 q 859 893 861 893 q 961 728 924 827 q 998 505 998 630 q 937 225 998 341 q 771 48 876 110 q 534 -14 667 -14 m 534 149 q 736 240 658 149 q 815 505 815 332 q 736 770 815 678 q 534 862 658 862 q 331 770 410 862 q 252 505 252 678 q 331 240 252 332 q 534 149 410 149 z "},"Ò":{"ha":1067,"x_min":70,"x_max":998,"o":"m 534 -14 q 297 48 401 -14 q 131 226 192 110 q 70 505 70 342 q 131 784 70 668 q 297 962 192 901 q 534 1024 401 1024 q 771 962 667 1024 q 937 784 876 901 q 998 505 998 668 q 937 225 998 341 q 771 48 876 110 q 534 -14 667 -14 m 534 149 q 736 240 658 149 q 815 505 815 332 q 736 770 815 678 q 534 862 658 862 q 331 770 410 862 q 252 505 252 678 q 331 240 252 332 q 534 149 410 149 m 471 1107 l 334 1315 l 506 1315 l 600 1107 l 471 1107 z "},"Ó":{"ha":1067,"x_min":70,"x_max":998,"o":"m 534 -14 q 297 48 401 -14 q 131 226 192 110 q 70 505 70 342 q 131 784 70 668 q 297 962 192 901 q 534 1024 401 1024 q 771 962 667 1024 q 937 784 876 901 q 998 505 998 668 q 937 225 998 341 q 771 48 876 110 q 534 -14 667 -14 m 534 149 q 736 240 658 149 q 815 505 815 332 q 736 770 815 678 q 534 862 658 862 q 331 770 410 862 q 252 505 252 678 q 331 240 252 332 q 534 149 410 149 m 467 1107 l 562 1315 l 732 1315 l 595 1107 l 467 1107 z "},"Ô":{"ha":1067,"x_min":70,"x_max":998,"o":"m 534 -14 q 297 48 401 -14 q 131 226 192 110 q 70 505 70 342 q 131 784 70 668 q 297 962 192 901 q 534 1024 401 1024 q 771 962 667 1024 q 937 784 876 901 q 998 505 998 668 q 937 225 998 341 q 771 48 876 110 q 534 -14 667 -14 m 534 149 q 736 240 658 149 q 815 505 815 332 q 736 770 815 678 q 534 862 658 862 q 331 770 410 862 q 252 505 252 678 q 331 240 252 332 q 534 149 410 149 m 437 1116 l 279 1116 l 279 1121 l 463 1315 l 606 1315 l 789 1121 l 789 1116 l 631 1116 l 534 1232 l 437 1116 z "},"Ō":{"ha":1067,"x_min":70,"x_max":998,"o":"m 534 -14 q 297 48 401 -14 q 131 226 192 110 q 70 505 70 342 q 131 784 70 668 q 297 962 192 901 q 534 1024 401 1024 q 771 962 667 1024 q 937 784 876 901 q 998 505 998 668 q 937 225 998 341 q 771 48 876 110 q 534 -14 667 -14 m 534 149 q 736 240 658 149 q 815 505 815 332 q 736 770 815 678 q 534 862 658 862 q 331 770 410 862 q 252 505 252 678 q 331 240 252 332 q 534 149 410 149 m 728 1274 l 728 1155 l 340 1155 l 340 1274 l 728 1274 z "},"Ŏ":{"ha":1067,"x_min":70,"x_max":998,"o":"m 534 -14 q 297 48 401 -14 q 131 226 192 110 q 70 505 70 342 q 131 784 70 668 q 297 962 192 901 q 534 1024 401 1024 q 771 962 667 1024 q 937 784 876 901 q 998 505 998 668 q 937 225 998 341 q 771 48 876 110 q 534 -14 667 -14 m 534 149 q 736 240 658 149 q 815 505 815 332 q 736 770 815 678 q 534 862 658 862 q 331 770 410 862 q 252 505 252 678 q 331 240 252 332 q 534 149 410 149 m 534 1108 q 422 1136 472 1108 q 342 1209 372 1163 q 313 1313 313 1255 l 422 1313 q 454 1240 422 1269 q 534 1212 486 1212 q 614 1240 583 1212 q 646 1313 646 1269 l 755 1313 q 726 1210 755 1256 q 647 1136 697 1163 q 534 1108 597 1108 z "},"Ő":{"ha":1067,"x_min":70,"x_max":998,"o":"m 534 -14 q 297 48 401 -14 q 131 226 192 110 q 70 505 70 342 q 131 784 70 668 q 297 962 192 901 q 534 1024 401 1024 q 771 962 667 1024 q 937 784 876 901 q 998 505 998 668 q 937 225 998 341 q 771 48 876 110 q 534 -14 667 -14 m 534 149 q 736 240 658 149 q 815 505 815 332 q 736 770 815 678 q 534 862 658 862 q 331 770 410 862 q 252 505 252 678 q 331 240 252 332 q 534 149 410 149 m 662 1107 l 532 1107 l 646 1315 l 821 1315 l 662 1107 m 429 1107 l 301 1107 l 376 1315 l 543 1315 l 429 1107 z "},"Ǒ":{"ha":1067,"x_min":70,"x_max":998,"o":"m 534 -14 q 297 48 401 -14 q 131 226 192 110 q 70 505 70 342 q 131 784 70 668 q 297 962 192 901 q 534 1024 401 1024 q 771 962 667 1024 q 937 784 876 901 q 998 505 998 668 q 937 225 998 341 q 771 48 876 110 q 534 -14 667 -14 m 534 149 q 736 240 658 149 q 815 505 815 332 q 736 770 815 678 q 534 862 658 862 q 331 770 410 862 q 252 505 252 678 q 331 240 252 332 q 534 149 410 149 m 437 1315 l 534 1198 l 631 1315 l 789 1315 l 789 1310 l 606 1116 l 463 1116 l 279 1310 l 279 1315 l 437 1315 z "},"Ǫ":{"ha":1067,"x_min":70,"x_max":998,"o":"m 534 -14 q 297 48 401 -14 q 131 226 192 110 q 70 505 70 342 q 131 784 70 668 q 297 962 192 901 q 534 1024 401 1024 q 771 962 667 1024 q 937 784 876 901 q 998 505 998 668 q 937 225 998 341 q 771 48 876 110 q 534 -14 667 -14 m 534 149 q 736 240 658 149 q 815 505 815 332 q 736 770 815 678 q 534 862 658 862 q 331 770 410 862 q 252 505 252 678 q 331 240 252 332 q 534 149 410 149 m 572 -293 q 449 -257 498 -293 q 400 -154 400 -220 q 430 -68 400 -103 q 507 -4 459 -33 q 613 53 555 24 q 729 117 671 81 q 835 204 787 153 q 912 328 883 255 q 941 505 941 401 l 998 505 q 966 287 998 375 q 884 142 934 199 q 778 49 834 85 q 672 -13 722 13 q 591 -64 623 -39 q 559 -125 559 -89 q 610 -176 559 -176 q 641 -171 627 -176 q 667 -159 654 -166 l 709 -259 q 650 -283 686 -273 q 572 -293 614 -293 z "},"Ǭ":{"ha":1067,"x_min":70,"x_max":998,"o":"m 534 -14 q 297 48 401 -14 q 131 226 192 110 q 70 505 70 342 q 131 784 70 668 q 297 962 192 901 q 534 1024 401 1024 q 771 962 667 1024 q 937 784 876 901 q 998 505 998 668 q 937 225 998 341 q 771 48 876 110 q 534 -14 667 -14 m 534 149 q 736 240 658 149 q 815 505 815 332 q 736 770 815 678 q 534 862 658 862 q 331 770 410 862 q 252 505 252 678 q 331 240 252 332 q 534 149 410 149 m 572 -293 q 449 -257 498 -293 q 400 -154 400 -220 q 430 -68 400 -103 q 507 -4 459 -33 q 613 53 555 24 q 729 117 671 81 q 835 204 787 153 q 912 328 883 255 q 941 505 941 401 l 998 505 q 966 287 998 375 q 884 142 934 199 q 778 49 834 85 q 672 -13 722 13 q 591 -64 623 -39 q 559 -125 559 -89 q 610 -176 559 -176 q 641 -171 627 -176 q 667 -159 654 -166 l 709 -259 q 650 -283 686 -273 q 572 -293 614 -293 m 728 1274 l 728 1155 l 340 1155 l 340 1274 l 728 1274 z "},"Ȍ":{"ha":1067,"x_min":70,"x_max":998,"o":"m 534 -14 q 297 48 401 -14 q 131 226 192 110 q 70 505 70 342 q 131 784 70 668 q 297 962 192 901 q 534 1024 401 1024 q 771 962 667 1024 q 937 784 876 901 q 998 505 998 668 q 937 225 998 341 q 771 48 876 110 q 534 -14 667 -14 m 534 149 q 736 240 658 149 q 815 505 815 332 q 736 770 815 678 q 534 862 658 862 q 331 770 410 862 q 252 505 252 678 q 331 240 252 332 q 534 149 410 149 m 354 1107 l 195 1315 l 370 1315 l 484 1107 l 354 1107 m 587 1107 l 473 1315 l 640 1315 l 715 1107 l 587 1107 z "},"Ȏ":{"ha":1067,"x_min":70,"x_max":998,"o":"m 534 -14 q 297 48 401 -14 q 131 226 192 110 q 70 505 70 342 q 131 784 70 668 q 297 962 192 901 q 534 1024 401 1024 q 771 962 667 1024 q 937 784 876 901 q 998 505 998 668 q 937 225 998 341 q 771 48 876 110 q 534 -14 667 -14 m 534 149 q 736 240 658 149 q 815 505 815 332 q 736 770 815 678 q 534 862 658 862 q 331 770 410 862 q 252 505 252 678 q 331 240 252 332 q 534 149 410 149 m 534 1328 q 651 1299 599 1328 q 732 1223 703 1271 q 762 1116 762 1175 l 652 1116 q 617 1192 652 1162 q 534 1222 582 1222 q 450 1192 486 1222 q 415 1116 415 1162 l 306 1116 q 336 1223 306 1175 q 417 1299 366 1271 q 534 1328 469 1328 z "},"Ȫ":{"ha":1067,"x_min":70,"x_max":998,"o":"m 534 -14 q 297 48 401 -14 q 131 226 192 110 q 70 505 70 342 q 131 784 70 668 q 297 962 192 901 q 534 1024 401 1024 q 771 962 667 1024 q 937 784 876 901 q 998 505 998 668 q 937 225 998 341 q 771 48 876 110 q 534 -14 667 -14 m 534 149 q 736 240 658 149 q 815 505 815 332 q 736 770 815 678 q 534 862 658 862 q 331 770 410 862 q 252 505 252 678 q 331 240 252 332 q 534 149 410 149 m 728 1479 l 728 1378 l 341 1378 l 341 1479 l 728 1479 m 389 1103 q 322 1131 349 1103 q 294 1196 294 1158 q 322 1261 294 1234 q 389 1289 349 1289 q 455 1261 427 1289 q 483 1196 483 1234 q 455 1131 483 1158 q 389 1103 427 1103 m 684 1103 q 617 1131 645 1103 q 589 1196 589 1158 q 617 1261 589 1234 q 684 1289 645 1289 q 751 1261 723 1289 q 779 1196 779 1234 q 751 1131 779 1158 q 684 1103 723 1103 z "},"Ȭ":{"ha":1067,"x_min":70,"x_max":998,"o":"m 534 -14 q 297 48 401 -14 q 131 226 192 110 q 70 505 70 342 q 131 784 70 668 q 297 962 192 901 q 534 1024 401 1024 q 771 962 667 1024 q 937 784 876 901 q 998 505 998 668 q 937 225 998 341 q 771 48 876 110 q 534 -14 667 -14 m 534 149 q 736 240 658 149 q 815 505 815 332 q 736 770 815 678 q 534 862 658 862 q 331 770 410 862 q 252 505 252 678 q 331 240 252 332 q 534 149 410 149 m 629 1112 q 558 1128 589 1112 q 503 1160 527 1144 q 458 1177 478 1177 q 428 1159 438 1177 q 416 1115 418 1141 l 313 1115 q 350 1237 315 1192 q 444 1281 385 1281 q 515 1265 486 1281 q 568 1232 545 1249 q 615 1216 592 1216 q 659 1278 653 1216 l 760 1278 q 722 1156 758 1200 q 629 1112 686 1112 m 729 1479 l 729 1378 l 342 1378 l 342 1479 l 729 1479 z "},"Ȯ":{"ha":1067,"x_min":70,"x_max":998,"o":"m 534 -14 q 297 48 401 -14 q 131 226 192 110 q 70 505 70 342 q 131 784 70 668 q 297 962 192 901 q 534 1024 401 1024 q 771 962 667 1024 q 937 784 876 901 q 998 505 998 668 q 937 225 998 341 q 771 48 876 110 q 534 -14 667 -14 m 534 149 q 736 240 658 149 q 815 505 815 332 q 736 770 815 678 q 534 862 658 862 q 331 770 410 862 q 252 505 252 678 q 331 240 252 332 q 534 149 410 149 m 534 1118 q 461 1146 492 1118 q 431 1215 431 1174 q 461 1283 431 1255 q 534 1311 492 1311 q 607 1283 576 1311 q 637 1215 637 1255 q 607 1146 637 1174 q 534 1118 576 1118 z "},"Ȱ":{"ha":1067,"x_min":70,"x_max":998,"o":"m 534 -14 q 297 48 401 -14 q 131 226 192 110 q 70 505 70 342 q 131 784 70 668 q 297 962 192 901 q 534 1024 401 1024 q 771 962 667 1024 q 937 784 876 901 q 998 505 998 668 q 937 225 998 341 q 771 48 876 110 q 534 -14 667 -14 m 534 149 q 736 240 658 149 q 815 505 815 332 q 736 770 815 678 q 534 862 658 862 q 331 770 410 862 q 252 505 252 678 q 331 240 252 332 q 534 149 410 149 m 728 1479 l 728 1378 l 341 1378 l 341 1479 l 728 1479 m 535 1100 q 463 1128 493 1100 q 433 1196 433 1156 q 463 1264 433 1236 q 535 1293 493 1293 q 608 1264 578 1293 q 638 1196 638 1236 q 608 1128 638 1156 q 535 1100 578 1100 z "},"Ṍ":{"ha":1067,"x_min":70,"x_max":998,"o":"m 534 -14 q 297 48 401 -14 q 131 226 192 110 q 70 505 70 342 q 131 784 70 668 q 297 962 192 901 q 534 1024 401 1024 q 771 962 667 1024 q 937 784 876 901 q 998 505 998 668 q 937 225 998 341 q 771 48 876 110 q 534 -14 667 -14 m 534 149 q 736 240 658 149 q 815 505 815 332 q 736 770 815 678 q 534 862 658 862 q 331 770 410 862 q 252 505 252 678 q 331 240 252 332 q 534 149 410 149 m 629 1112 q 558 1128 589 1112 q 503 1160 527 1144 q 458 1177 478 1177 q 428 1159 438 1177 q 416 1115 418 1141 l 313 1115 q 350 1237 315 1192 q 444 1281 385 1281 q 515 1265 486 1281 q 568 1232 545 1249 q 615 1216 592 1216 q 659 1278 653 1216 l 760 1278 q 722 1156 758 1200 q 629 1112 686 1112 m 471 1352 l 559 1535 l 713 1535 l 587 1352 l 471 1352 z "},"Ṏ":{"ha":1067,"x_min":70,"x_max":998,"o":"m 534 -14 q 297 48 401 -14 q 131 226 192 110 q 70 505 70 342 q 131 784 70 668 q 297 962 192 901 q 534 1024 401 1024 q 771 962 667 1024 q 937 784 876 901 q 998 505 998 668 q 937 225 998 341 q 771 48 876 110 q 534 -14 667 -14 m 534 149 q 736 240 658 149 q 815 505 815 332 q 736 770 815 678 q 534 862 658 862 q 331 770 410 862 q 252 505 252 678 q 331 240 252 332 q 534 149 410 149 m 629 1112 q 558 1128 589 1112 q 503 1160 527 1144 q 458 1177 478 1177 q 428 1159 438 1177 q 416 1115 418 1141 l 313 1115 q 350 1237 315 1192 q 444 1281 385 1281 q 515 1265 486 1281 q 568 1232 545 1249 q 615 1216 592 1216 q 659 1278 653 1216 l 760 1278 q 722 1156 758 1200 q 629 1112 686 1112 m 684 1343 q 618 1370 646 1343 q 590 1432 590 1396 q 618 1495 590 1469 q 684 1520 646 1520 q 751 1495 724 1520 q 779 1432 779 1469 q 751 1370 779 1396 q 684 1343 724 1343 m 389 1343 q 322 1370 350 1343 q 294 1432 294 1396 q 322 1495 294 1469 q 389 1520 350 1520 q 456 1495 428 1520 q 484 1432 484 1469 q 456 1370 484 1396 q 389 1343 428 1343 z "},"Ṑ":{"ha":1067,"x_min":70,"x_max":998,"o":"m 534 -14 q 297 48 401 -14 q 131 226 192 110 q 70 505 70 342 q 131 784 70 668 q 297 962 192 901 q 534 1024 401 1024 q 771 962 667 1024 q 937 784 876 901 q 998 505 998 668 q 937 225 998 341 q 771 48 876 110 q 534 -14 667 -14 m 534 149 q 736 240 658 149 q 815 505 815 332 q 736 770 815 678 q 534 862 658 862 q 331 770 410 862 q 252 505 252 678 q 331 240 252 332 q 534 149 410 149 m 728 1255 l 728 1137 l 341 1137 l 341 1255 l 728 1255 m 485 1352 l 358 1535 l 513 1535 l 600 1352 l 485 1352 z "},"Ṓ":{"ha":1067,"x_min":70,"x_max":998,"o":"m 534 -14 q 297 48 401 -14 q 131 226 192 110 q 70 505 70 342 q 131 784 70 668 q 297 962 192 901 q 534 1024 401 1024 q 771 962 667 1024 q 937 784 876 901 q 998 505 998 668 q 937 225 998 341 q 771 48 876 110 q 534 -14 667 -14 m 534 149 q 736 240 658 149 q 815 505 815 332 q 736 770 815 678 q 534 862 658 862 q 331 770 410 862 q 252 505 252 678 q 331 240 252 332 q 534 149 410 149 m 728 1255 l 728 1137 l 341 1137 l 341 1255 l 728 1255 m 478 1352 l 566 1535 l 721 1535 l 594 1352 l 478 1352 z "},"Ọ":{"ha":1067,"x_min":70,"x_max":998,"o":"m 534 -14 q 297 48 401 -14 q 131 226 192 110 q 70 505 70 342 q 131 784 70 668 q 297 962 192 901 q 534 1024 401 1024 q 771 962 667 1024 q 937 784 876 901 q 998 505 998 668 q 937 225 998 341 q 771 48 876 110 q 534 -14 667 -14 m 534 149 q 736 240 658 149 q 815 505 815 332 q 736 770 815 678 q 534 862 658 862 q 331 770 410 862 q 252 505 252 678 q 331 240 252 332 q 534 149 410 149 m 535 -300 q 463 -272 493 -300 q 433 -203 433 -244 q 463 -135 433 -163 q 535 -107 493 -107 q 608 -135 578 -107 q 638 -203 638 -163 q 608 -272 638 -244 q 535 -300 578 -300 z "},"Ỏ":{"ha":1067,"x_min":70,"x_max":998,"o":"m 534 -14 q 297 48 401 -14 q 131 226 192 110 q 70 505 70 342 q 131 784 70 668 q 297 962 192 901 q 534 1024 401 1024 q 771 962 667 1024 q 937 784 876 901 q 998 505 998 668 q 937 225 998 341 q 771 48 876 110 q 534 -14 667 -14 m 534 149 q 736 240 658 149 q 815 505 815 332 q 736 770 815 678 q 534 862 658 862 q 331 770 410 862 q 252 505 252 678 q 331 240 252 332 q 534 149 410 149 m 584 1107 l 473 1107 l 524 1200 q 513 1219 533 1219 l 410 1219 l 410 1315 l 513 1315 q 615 1292 583 1315 q 647 1233 647 1268 q 622 1160 648 1197 l 584 1107 z "},"Ố":{"ha":1067,"x_min":70,"x_max":998,"o":"m 534 -14 q 297 48 401 -14 q 131 226 192 110 q 70 505 70 342 q 131 784 70 668 q 297 962 192 901 q 534 1024 401 1024 q 771 962 667 1024 q 937 784 876 901 q 998 505 998 668 q 937 225 998 341 q 771 48 876 110 q 534 -14 667 -14 m 534 149 q 736 240 658 149 q 815 505 815 332 q 736 770 815 678 q 534 862 658 862 q 331 770 410 862 q 252 505 252 678 q 331 240 252 332 q 534 149 410 149 m 440 1097 l 282 1097 l 282 1102 l 466 1296 l 608 1296 l 792 1102 l 792 1097 l 633 1097 l 537 1213 l 440 1097 m 636 1352 l 724 1535 l 878 1535 l 751 1352 l 636 1352 z "},"Ồ":{"ha":1067,"x_min":70,"x_max":998,"o":"m 534 -14 q 297 48 401 -14 q 131 226 192 110 q 70 505 70 342 q 131 784 70 668 q 297 962 192 901 q 534 1024 401 1024 q 771 962 667 1024 q 937 784 876 901 q 998 505 998 668 q 937 225 998 341 q 771 48 876 110 q 534 -14 667 -14 m 534 149 q 736 240 658 149 q 815 505 815 332 q 736 770 815 678 q 534 862 658 862 q 331 770 410 862 q 252 505 252 678 q 331 240 252 332 q 534 149 410 149 m 440 1097 l 282 1097 l 282 1102 l 466 1296 l 608 1296 l 792 1102 l 792 1097 l 633 1097 l 537 1213 l 440 1097 m 687 1352 l 561 1535 l 715 1535 l 803 1352 l 687 1352 z "},"Ổ":{"ha":1067,"x_min":70,"x_max":998,"o":"m 534 -14 q 297 48 401 -14 q 131 226 192 110 q 70 505 70 342 q 131 784 70 668 q 297 962 192 901 q 534 1024 401 1024 q 771 962 667 1024 q 937 784 876 901 q 998 505 998 668 q 937 225 998 341 q 771 48 876 110 q 534 -14 667 -14 m 534 149 q 736 240 658 149 q 815 505 815 332 q 736 770 815 678 q 534 862 658 862 q 331 770 410 862 q 252 505 252 678 q 331 240 252 332 q 534 149 410 149 m 440 1097 l 282 1097 l 282 1102 l 466 1296 l 608 1296 l 792 1102 l 792 1097 l 633 1097 l 537 1213 l 440 1097 m 735 1352 l 635 1352 l 678 1430 q 667 1448 688 1448 l 573 1448 l 573 1535 l 667 1535 q 760 1514 730 1535 q 791 1460 790 1493 q 767 1394 791 1428 l 735 1352 z "},"Ỗ":{"ha":1067,"x_min":70,"x_max":998,"o":"m 534 -14 q 297 48 401 -14 q 131 226 192 110 q 70 505 70 342 q 131 784 70 668 q 297 962 192 901 q 534 1024 401 1024 q 771 962 667 1024 q 937 784 876 901 q 998 505 998 668 q 937 225 998 341 q 771 48 876 110 q 534 -14 667 -14 m 534 149 q 736 240 658 149 q 815 505 815 332 q 736 770 815 678 q 534 862 658 862 q 331 770 410 862 q 252 505 252 678 q 331 240 252 332 q 534 149 410 149 m 440 1097 l 282 1097 l 282 1102 l 466 1296 l 608 1296 l 792 1102 l 792 1097 l 633 1097 l 537 1213 l 440 1097 m 629 1362 q 558 1377 589 1362 q 503 1407 527 1392 q 458 1422 478 1422 q 428 1406 438 1422 q 416 1365 418 1389 l 313 1365 q 350 1478 315 1436 q 444 1519 384 1519 q 515 1504 485 1519 q 568 1473 545 1489 q 614 1458 592 1458 q 658 1516 653 1458 l 760 1516 q 722 1403 758 1444 q 629 1362 686 1362 z "},"Ộ":{"ha":1067,"x_min":70,"x_max":998,"o":"m 534 -14 q 297 48 401 -14 q 131 226 192 110 q 70 505 70 342 q 131 784 70 668 q 297 962 192 901 q 534 1024 401 1024 q 771 962 667 1024 q 937 784 876 901 q 998 505 998 668 q 937 225 998 341 q 771 48 876 110 q 534 -14 667 -14 m 534 149 q 736 240 658 149 q 815 505 815 332 q 736 770 815 678 q 534 862 658 862 q 331 770 410 862 q 252 505 252 678 q 331 240 252 332 q 534 149 410 149 m 437 1116 l 279 1116 l 279 1121 l 463 1315 l 606 1315 l 789 1121 l 789 1116 l 631 1116 l 534 1232 l 437 1116 m 535 -300 q 463 -272 493 -300 q 433 -203 433 -244 q 463 -135 433 -163 q 535 -107 493 -107 q 608 -135 578 -107 q 638 -203 638 -163 q 608 -272 638 -244 q 535 -300 578 -300 z "},"Ớ":{"ha":1074,"x_min":70,"x_max":1000,"o":"m 534 -14 q 297 48 401 -14 q 131 226 192 110 q 70 505 70 342 q 131 784 70 668 q 297 962 192 901 q 534 1024 401 1024 q 537 1024 536 1024 l 537 1024 q 597 1022 573 1024 q 646 1017 621 1020 q 713 1013 672 1015 q 825 1010 754 1010 q 841 1026 841 1010 l 841 1152 l 1000 1152 l 1000 1022 q 963 924 1000 954 q 863 893 926 893 q 859 893 861 893 q 961 728 924 827 q 998 505 998 630 q 937 225 998 341 q 771 48 876 110 q 534 -14 667 -14 m 534 149 q 736 240 658 149 q 815 505 815 332 q 736 770 815 678 q 534 862 658 862 q 331 770 410 862 q 252 505 252 678 q 331 240 252 332 q 534 149 410 149 m 467 1107 l 562 1315 l 732 1315 l 595 1107 l 467 1107 z "},"Ờ":{"ha":1074,"x_min":70,"x_max":1000,"o":"m 534 -14 q 297 48 401 -14 q 131 226 192 110 q 70 505 70 342 q 131 784 70 668 q 297 962 192 901 q 534 1024 401 1024 q 537 1024 536 1024 l 537 1024 q 597 1022 573 1024 q 646 1017 621 1020 q 713 1013 672 1015 q 825 1010 754 1010 q 841 1026 841 1010 l 841 1152 l 1000 1152 l 1000 1022 q 963 924 1000 954 q 863 893 926 893 q 859 893 861 893 q 961 728 924 827 q 998 505 998 630 q 937 225 998 341 q 771 48 876 110 q 534 -14 667 -14 m 534 149 q 736 240 658 149 q 815 505 815 332 q 736 770 815 678 q 534 862 658 862 q 331 770 410 862 q 252 505 252 678 q 331 240 252 332 q 534 149 410 149 m 471 1107 l 334 1315 l 506 1315 l 600 1107 l 471 1107 z "},"Ở":{"ha":1074,"x_min":70,"x_max":1000,"o":"m 534 -14 q 297 48 401 -14 q 131 226 192 110 q 70 505 70 342 q 131 784 70 668 q 297 962 192 901 q 534 1024 401 1024 q 537 1024 536 1024 l 537 1024 q 597 1022 573 1024 q 646 1017 621 1020 q 713 1013 672 1015 q 825 1010 754 1010 q 841 1026 841 1010 l 841 1152 l 1000 1152 l 1000 1022 q 963 924 1000 954 q 863 893 926 893 q 859 893 861 893 q 961 728 924 827 q 998 505 998 630 q 937 225 998 341 q 771 48 876 110 q 534 -14 667 -14 m 534 149 q 736 240 658 149 q 815 505 815 332 q 736 770 815 678 q 534 862 658 862 q 331 770 410 862 q 252 505 252 678 q 331 240 252 332 q 534 149 410 149 m 584 1107 l 473 1107 l 524 1200 q 513 1219 533 1219 l 410 1219 l 410 1315 l 513 1315 q 615 1292 583 1315 q 647 1233 647 1268 q 622 1160 648 1197 l 584 1107 z "},"Ỡ":{"ha":1074,"x_min":70,"x_max":1000,"o":"m 534 -14 q 297 48 401 -14 q 131 226 192 110 q 70 505 70 342 q 131 784 70 668 q 297 962 192 901 q 534 1024 401 1024 q 537 1024 536 1024 l 537 1024 q 597 1022 573 1024 q 646 1017 621 1020 q 713 1013 672 1015 q 825 1010 754 1010 q 841 1026 841 1010 l 841 1152 l 1000 1152 l 1000 1022 q 963 924 1000 954 q 863 893 926 893 q 859 893 861 893 q 961 728 924 827 q 998 505 998 630 q 937 225 998 341 q 771 48 876 110 q 534 -14 667 -14 m 534 149 q 736 240 658 149 q 815 505 815 332 q 736 770 815 678 q 534 862 658 862 q 331 770 410 862 q 252 505 252 678 q 331 240 252 332 q 534 149 410 149 m 627 1128 q 555 1145 587 1128 q 500 1178 524 1162 q 456 1194 475 1194 q 425 1176 435 1194 q 414 1133 415 1158 l 311 1133 q 347 1254 313 1210 q 441 1299 382 1299 q 512 1282 483 1299 q 566 1250 542 1266 q 612 1234 589 1234 q 656 1296 650 1234 l 757 1296 q 719 1173 755 1217 q 627 1128 684 1128 z "},"Ợ":{"ha":1074,"x_min":70,"x_max":1000,"o":"m 534 -14 q 297 48 401 -14 q 131 226 192 110 q 70 505 70 342 q 131 784 70 668 q 297 962 192 901 q 534 1024 401 1024 q 537 1024 536 1024 l 537 1024 q 597 1022 573 1024 q 646 1017 621 1020 q 713 1013 672 1015 q 825 1010 754 1010 q 841 1026 841 1010 l 841 1152 l 1000 1152 l 1000 1022 q 963 924 1000 954 q 863 893 926 893 q 859 893 861 893 q 961 728 924 827 q 998 505 998 630 q 937 225 998 341 q 771 48 876 110 q 534 -14 667 -14 m 534 149 q 736 240 658 149 q 815 505 815 332 q 736 770 815 678 q 534 862 658 862 q 331 770 410 862 q 252 505 252 678 q 331 240 252 332 q 534 149 410 149 m 535 -300 q 463 -272 493 -300 q 433 -203 433 -244 q 463 -135 433 -163 q 535 -107 493 -107 q 608 -135 578 -107 q 638 -203 638 -163 q 608 -272 638 -244 q 535 -300 578 -300 z "},"Ǿ":{"ha":1067,"x_min":70,"x_max":998,"o":"m 534 -14 q 297 48 401 -14 q 131 226 192 110 q 70 505 70 342 q 131 784 70 668 q 297 962 192 901 q 534 1024 401 1024 q 771 962 667 1024 q 937 784 876 901 q 998 505 998 668 q 937 225 998 341 q 771 48 876 110 q 534 -14 667 -14 m 534 149 q 736 240 658 149 q 815 505 815 332 q 736 770 815 678 q 534 862 658 862 q 331 770 410 862 q 252 505 252 678 q 331 240 252 332 q 534 149 410 149 m 224 -39 l 128 27 l 844 1049 l 941 983 l 224 -39 m 467 1107 l 562 1315 l 732 1315 l 595 1107 l 467 1107 z "},"Ο":{"ha":1067,"x_min":70,"x_max":998,"o":"m 534 -14 q 297 48 401 -14 q 131 226 192 110 q 70 505 70 342 q 131 784 70 668 q 297 962 192 901 q 534 1024 401 1024 q 771 962 667 1024 q 937 784 876 901 q 998 505 998 668 q 937 225 998 341 q 771 48 876 110 q 534 -14 667 -14 m 534 149 q 736 240 658 149 q 815 505 815 332 q 736 770 815 678 q 534 862 658 862 q 331 770 410 862 q 252 505 252 678 q 331 240 252 332 q 534 149 410 149 z "},"Ό":{"ha":1251,"x_min":56,"x_max":1172,"o":"m 709 -14 q 471 48 576 -14 q 305 226 366 110 q 244 505 244 342 q 305 784 244 668 q 471 962 366 901 q 709 1024 576 1024 q 946 962 841 1024 q 1111 784 1050 901 q 1172 505 1172 668 q 1111 225 1172 341 q 946 48 1050 110 q 709 -14 841 -14 m 709 149 q 911 240 832 149 q 989 505 989 332 q 911 770 989 678 q 709 862 832 862 q 505 770 585 862 q 426 505 426 678 q 505 240 426 332 q 709 149 585 149 m 56 803 l 79 1010 l 245 1010 l 165 803 l 56 803 z "},"Ὀ":{"ha":1267,"x_min":56,"x_max":1187,"o":"m 724 -14 q 486 48 591 -14 q 320 226 381 110 q 259 505 259 342 q 320 784 259 668 q 486 962 381 901 q 724 1024 591 1024 q 961 962 856 1024 q 1126 784 1065 901 q 1187 505 1187 668 q 1126 225 1187 341 q 961 48 1065 110 q 724 -14 856 -14 m 724 149 q 926 240 847 149 q 1004 505 1004 332 q 926 770 1004 678 q 724 862 847 862 q 520 770 600 862 q 441 505 441 678 q 520 240 441 332 q 724 149 600 149 m 85 810 l 76 810 l 76 863 l 85 863 q 156 908 156 863 q 88 948 156 948 l 56 948 l 56 1034 l 85 1034 q 258 923 258 1034 q 85 810 258 810 z "},"Ὁ":{"ha":1278,"x_min":56,"x_max":1198,"o":"m 735 -14 q 497 48 602 -14 q 332 226 393 110 q 271 505 271 342 q 332 784 271 668 q 497 962 393 901 q 735 1024 602 1024 q 972 962 867 1024 q 1138 784 1077 901 q 1198 505 1198 668 q 1138 225 1198 341 q 972 48 1077 110 q 735 -14 867 -14 m 735 149 q 937 240 859 149 q 1016 505 1016 332 q 937 770 1016 678 q 735 862 859 862 q 532 770 611 862 q 452 505 452 678 q 532 240 452 332 q 735 149 611 149 m 229 792 q 56 905 56 792 q 229 1017 56 1017 l 258 1017 l 258 930 l 226 930 q 158 890 158 930 q 229 846 158 846 l 238 846 l 238 792 l 229 792 z "},"Ὂ":{"ha":1515,"x_min":56,"x_max":1435,"o":"m 972 -14 q 734 48 839 -14 q 568 226 629 110 q 507 505 507 342 q 568 784 507 668 q 734 962 629 901 q 972 1024 839 1024 q 1209 962 1104 1024 q 1374 784 1314 901 q 1435 505 1435 668 q 1374 225 1435 341 q 1209 48 1314 110 q 972 -14 1104 -14 m 972 149 q 1174 240 1095 149 q 1253 505 1253 332 q 1174 770 1253 678 q 972 862 1095 862 q 768 770 848 862 q 689 505 689 678 q 768 240 689 332 q 972 149 848 149 m 85 792 l 76 792 l 76 846 l 85 846 q 156 890 156 846 q 88 930 156 930 l 56 930 l 56 1017 l 85 1017 q 258 905 258 1017 q 85 792 258 792 m 464 800 l 362 800 l 288 1010 l 443 1010 l 464 800 z "},"Ὃ":{"ha":1537,"x_min":56,"x_max":1457,"o":"m 994 -14 q 756 48 861 -14 q 591 226 652 110 q 530 505 530 342 q 591 784 530 668 q 756 962 652 901 q 994 1024 861 1024 q 1231 962 1126 1024 q 1397 784 1336 901 q 1457 505 1457 668 q 1397 225 1457 341 q 1231 48 1336 110 q 994 -14 1126 -14 m 994 149 q 1196 240 1118 149 q 1275 505 1275 332 q 1196 770 1275 678 q 994 862 1118 862 q 791 770 870 862 q 711 505 711 678 q 791 240 711 332 q 994 149 870 149 m 229 792 q 56 905 56 792 q 229 1017 56 1017 l 258 1017 l 258 930 l 226 930 q 158 890 158 930 q 229 846 158 846 l 238 846 l 238 792 l 229 792 m 486 800 l 385 800 l 310 1010 l 465 1010 l 486 800 z "},"Ὄ":{"ha":1520,"x_min":56,"x_max":1441,"o":"m 978 -14 q 740 48 845 -14 q 574 226 635 110 q 513 505 513 342 q 574 784 513 668 q 740 962 635 901 q 978 1024 845 1024 q 1215 962 1110 1024 q 1380 784 1320 901 q 1441 505 1441 668 q 1380 225 1441 341 q 1215 48 1320 110 q 978 -14 1110 -14 m 978 149 q 1180 240 1101 149 q 1259 505 1259 332 q 1180 770 1259 678 q 978 862 1101 862 q 774 770 854 862 q 695 505 695 678 q 774 240 695 332 q 978 149 854 149 m 85 792 l 76 792 l 76 846 l 85 846 q 156 890 156 846 q 88 930 156 930 l 56 930 l 56 1017 l 85 1017 q 258 905 258 1017 q 85 792 258 792 m 342 800 l 363 1010 l 518 1010 l 444 800 l 342 800 z "},"Ὅ":{"ha":1535,"x_min":56,"x_max":1456,"o":"m 993 -14 q 755 48 860 -14 q 589 226 650 110 q 528 505 528 342 q 589 784 528 668 q 755 962 650 901 q 993 1024 860 1024 q 1230 962 1125 1024 q 1395 784 1335 901 q 1456 505 1456 668 q 1395 225 1456 341 q 1230 48 1335 110 q 993 -14 1125 -14 m 993 149 q 1195 240 1116 149 q 1274 505 1274 332 q 1195 770 1274 678 q 993 862 1116 862 q 789 770 869 862 q 710 505 710 678 q 789 240 710 332 q 993 149 869 149 m 229 792 q 56 905 56 792 q 229 1017 56 1017 l 258 1017 l 258 930 l 226 930 q 158 890 158 930 q 229 846 158 846 l 238 846 l 238 792 l 229 792 m 353 800 l 375 1010 l 530 1010 l 455 800 l 353 800 z "},"Ὸ":{"ha":1067,"x_min":-199,"x_max":998,"o":"m 534 -14 q 297 48 401 -14 q 131 226 192 110 q 70 505 70 342 q 131 784 70 668 q 297 962 192 901 q 534 1024 401 1024 q 771 962 667 1024 q 937 784 876 901 q 998 505 998 668 q 937 225 998 341 q 771 48 876 110 q 534 -14 667 -14 m 534 149 q 736 240 658 149 q 815 505 815 332 q 736 770 815 678 q 534 862 658 862 q 331 770 410 862 q 252 505 252 678 q 331 240 252 332 q 534 149 410 149 m -11 851 l -120 851 l -199 1059 l -34 1059 l -11 851 z "},"ϴ":{"ha":1067,"x_min":70,"x_max":998,"o":"m 534 -14 q 297 48 401 -14 q 131 226 192 110 q 70 505 70 342 q 131 784 70 668 q 297 962 192 901 q 534 1024 401 1024 q 771 962 667 1024 q 937 784 876 901 q 998 505 998 668 q 937 225 998 341 q 771 48 876 110 q 534 -14 667 -14 m 255 568 l 812 568 q 722 787 798 711 q 534 862 646 862 q 346 787 422 862 q 255 568 270 711 m 534 149 q 722 224 646 149 q 812 441 798 299 l 255 441 q 346 224 270 299 q 534 149 422 149 z "},"Ό":{"ha":1251,"x_min":56,"x_max":1172,"o":"m 709 -14 q 471 48 576 -14 q 305 226 366 110 q 244 505 244 342 q 305 784 244 668 q 471 962 366 901 q 709 1024 576 1024 q 946 962 841 1024 q 1111 784 1050 901 q 1172 505 1172 668 q 1111 225 1172 341 q 946 48 1050 110 q 709 -14 841 -14 m 709 149 q 911 240 832 149 q 989 505 989 332 q 911 770 989 678 q 709 862 832 862 q 505 770 585 862 q 426 505 426 678 q 505 240 426 332 q 709 149 585 149 m 56 803 l 79 1010 l 245 1010 l 165 803 l 56 803 z "},"О":{"ha":1067,"x_min":70,"x_max":998,"o":"m 534 -14 q 297 48 401 -14 q 131 226 192 110 q 70 505 70 342 q 131 784 70 668 q 297 962 192 901 q 534 1024 401 1024 q 771 962 667 1024 q 937 784 876 901 q 998 505 998 668 q 937 225 998 341 q 771 48 876 110 q 534 -14 667 -14 m 534 149 q 736 240 658 149 q 815 505 815 332 q 736 770 815 678 q 534 862 658 862 q 331 770 410 862 q 252 505 252 678 q 331 240 252 332 q 534 149 410 149 z "},"Ӧ":{"ha":1067,"x_min":70,"x_max":998,"o":"m 534 -14 q 297 48 401 -14 q 131 226 192 110 q 70 505 70 342 q 131 784 70 668 q 297 962 192 901 q 534 1024 401 1024 q 771 962 667 1024 q 937 784 876 901 q 998 505 998 668 q 937 225 998 341 q 771 48 876 110 q 534 -14 667 -14 m 534 149 q 736 240 658 149 q 815 505 815 332 q 736 770 815 678 q 534 862 658 862 q 331 770 410 862 q 252 505 252 678 q 331 240 252 332 q 534 149 410 149 m 387 1122 q 320 1149 347 1122 q 292 1215 292 1176 q 320 1280 292 1253 q 387 1307 347 1307 q 453 1280 425 1307 q 481 1215 481 1253 q 453 1149 481 1176 q 387 1122 425 1122 m 682 1122 q 615 1149 643 1122 q 587 1215 587 1176 q 615 1280 587 1253 q 682 1307 643 1307 q 749 1280 721 1307 q 777 1215 777 1253 q 749 1149 777 1176 q 682 1122 721 1122 z "},"Ɵ":{"ha":1067,"x_min":70,"x_max":998,"o":"m 534 -14 q 297 48 401 -14 q 131 226 192 110 q 70 505 70 342 q 131 784 70 668 q 297 962 192 901 q 534 1024 401 1024 q 771 962 667 1024 q 937 784 876 901 q 998 505 998 668 q 937 225 998 341 q 771 48 876 110 q 534 -14 667 -14 m 255 568 l 812 568 q 722 787 798 711 q 534 862 646 862 q 346 787 422 862 q 255 568 270 711 m 534 149 q 722 224 646 149 q 812 441 798 299 l 255 441 q 346 224 270 299 q 534 149 422 149 z "},"Ө":{"ha":1067,"x_min":70,"x_max":998,"o":"m 534 -14 q 297 48 401 -14 q 131 226 192 110 q 70 505 70 342 q 131 784 70 668 q 297 962 192 901 q 534 1024 401 1024 q 771 962 667 1024 q 937 784 876 901 q 998 505 998 668 q 937 225 998 341 q 771 48 876 110 q 534 -14 667 -14 m 255 568 l 812 568 q 722 787 798 711 q 534 862 646 862 q 346 787 422 862 q 255 568 270 711 m 534 149 q 722 224 646 149 q 812 441 798 299 l 255 441 q 346 224 270 299 q 534 149 422 149 z "},"Ӫ":{"ha":1067,"x_min":70,"x_max":998,"o":"m 534 -14 q 297 48 401 -14 q 131 226 192 110 q 70 505 70 342 q 131 784 70 668 q 297 962 192 901 q 534 1024 401 1024 q 771 962 667 1024 q 937 784 876 901 q 998 505 998 668 q 937 225 998 341 q 771 48 876 110 q 534 -14 667 -14 m 255 568 l 812 568 q 722 787 798 711 q 534 862 646 862 q 346 787 422 862 q 255 568 270 711 m 534 149 q 722 224 646 149 q 812 441 798 299 l 255 441 q 346 224 270 299 q 534 149 422 149 m 387 1122 q 320 1149 347 1122 q 292 1215 292 1176 q 320 1280 292 1253 q 387 1307 347 1307 q 453 1280 425 1307 q 481 1215 481 1253 q 453 1149 481 1176 q 387 1122 425 1122 m 682 1122 q 615 1149 643 1122 q 587 1215 587 1176 q 615 1280 587 1253 q 682 1307 643 1307 q 749 1280 721 1307 q 777 1215 777 1253 q 749 1149 777 1176 q 682 1122 721 1122 z "},"Œ":{"ha":1408,"x_min":70,"x_max":1328,"o":"m 541 0 q 295 62 401 0 q 129 238 189 125 q 70 505 70 351 q 129 773 70 659 q 295 948 189 886 q 543 1010 401 1010 l 1325 1010 l 1325 858 l 850 858 l 850 585 l 1290 585 l 1290 435 l 850 435 l 850 153 l 1328 153 l 1328 0 l 541 0 m 669 157 l 669 854 l 548 854 q 330 765 411 854 q 250 505 250 677 q 330 245 250 334 q 545 157 410 157 l 669 157 z "},"P":{"ha":896,"x_min":102,"x_max":836,"o":"m 102 0 l 102 1010 l 479 1010 q 675 967 595 1010 q 795 848 754 924 q 836 676 836 772 q 794 504 836 579 q 673 385 753 428 q 477 342 593 342 l 283 342 l 283 0 l 102 0 m 283 491 l 453 491 q 603 543 555 491 q 650 676 650 595 q 603 808 650 757 q 452 859 555 859 l 283 859 l 283 491 z "},"Ṕ":{"ha":896,"x_min":102,"x_max":836,"o":"m 102 0 l 102 1010 l 479 1010 q 675 967 595 1010 q 795 848 754 924 q 836 676 836 772 q 794 504 836 579 q 673 385 753 428 q 477 342 593 342 l 283 342 l 283 0 l 102 0 m 283 491 l 453 491 q 603 543 555 491 q 650 676 650 595 q 603 808 650 757 q 452 859 555 859 l 283 859 l 283 491 m 377 1107 l 471 1315 l 642 1315 l 505 1107 l 377 1107 z "},"Ṗ":{"ha":896,"x_min":102,"x_max":836,"o":"m 102 0 l 102 1010 l 479 1010 q 675 967 595 1010 q 795 848 754 924 q 836 676 836 772 q 794 504 836 579 q 673 385 753 428 q 477 342 593 342 l 283 342 l 283 0 l 102 0 m 283 491 l 453 491 q 603 543 555 491 q 650 676 650 595 q 603 808 650 757 q 452 859 555 859 l 283 859 l 283 491 m 444 1118 q 371 1146 401 1118 q 341 1215 341 1174 q 371 1283 341 1255 q 444 1311 401 1311 q 516 1283 486 1311 q 547 1215 547 1255 q 516 1146 547 1174 q 444 1118 486 1118 z "},"Ҏ":{"ha":903,"x_min":104,"x_max":838,"o":"m 104 0 l 104 1010 l 483 1010 q 678 967 599 1010 q 798 848 757 924 q 838 676 838 772 q 803 515 838 587 q 701 399 768 444 l 765 300 l 675 243 l 601 357 q 479 342 545 342 l 286 342 l 286 0 l 104 0 m 533 658 l 607 544 q 653 676 653 592 q 606 808 653 757 q 455 859 558 859 l 286 859 l 286 491 l 456 491 q 511 496 485 491 l 443 600 l 533 658 z "},"Ƥ":{"ha":1135,"x_min":37,"x_max":1074,"o":"m 37 734 l 37 783 q 100 955 37 899 q 295 1010 163 1010 l 718 1010 q 913 967 834 1010 q 1034 848 993 924 q 1074 676 1074 772 q 1033 504 1074 579 q 912 385 992 428 q 715 342 832 342 l 522 342 l 522 0 l 340 0 l 340 859 l 292 859 q 200 772 200 859 l 200 734 l 37 734 m 522 491 l 692 491 q 842 543 794 491 q 889 676 889 595 q 842 808 889 757 q 690 859 794 859 l 522 859 l 522 491 z "},"Ρ":{"ha":896,"x_min":102,"x_max":836,"o":"m 102 0 l 102 1010 l 479 1010 q 675 967 595 1010 q 795 848 754 924 q 836 676 836 772 q 794 504 836 579 q 673 385 753 428 q 477 342 593 342 l 283 342 l 283 0 l 102 0 m 283 491 l 453 491 q 603 543 555 491 q 650 676 650 595 q 603 808 650 757 q 452 859 555 859 l 283 859 l 283 491 z "},"Ῥ":{"ha":1179,"x_min":56,"x_max":1118,"o":"m 385 0 l 385 1010 l 762 1010 q 958 967 878 1010 q 1078 848 1037 924 q 1118 676 1118 772 q 1077 504 1118 579 q 956 385 1036 428 q 760 342 876 342 l 566 342 l 566 0 l 385 0 m 566 491 l 736 491 q 886 543 838 491 q 933 676 933 595 q 886 808 933 757 q 734 859 838 859 l 566 859 l 566 491 m 229 792 q 56 905 56 792 q 229 1017 56 1017 l 258 1017 l 258 930 l 226 930 q 158 890 158 930 q 229 846 158 846 l 238 846 l 238 792 l 229 792 z "},"Q":{"ha":1074,"x_min":70,"x_max":998,"o":"m 534 -14 q 297 48 401 -14 q 131 226 192 110 q 70 505 70 342 q 131 784 70 668 q 297 962 192 901 q 534 1024 401 1024 q 771 962 667 1024 q 937 784 876 901 q 998 505 998 668 q 954 263 998 368 q 833 93 909 159 l 974 -87 l 800 -87 l 715 20 q 534 -14 632 -14 m 477 337 l 640 337 l 725 227 q 791 342 768 272 q 815 505 815 412 q 736 770 815 678 q 534 862 658 862 q 331 770 410 862 q 252 505 252 678 q 331 240 252 332 q 534 149 410 149 q 612 159 576 149 l 477 337 z "},"Ɋ":{"ha":1070,"x_min":70,"x_max":1116,"o":"m 968 1010 l 968 -92 q 990 -141 968 -126 q 1061 -155 1011 -155 q 1116 -151 1086 -155 l 1116 -283 q 1021 -293 1078 -293 q 793 -92 793 -293 l 793 153 l 785 153 q 672 31 747 77 q 495 -16 597 -16 q 324 24 402 -16 q 189 134 246 63 q 101 299 132 204 q 70 507 70 395 q 101 712 70 618 q 190 877 133 806 q 325 985 247 947 q 495 1024 403 1024 q 673 978 599 1024 q 785 860 748 932 l 793 860 l 793 1010 l 968 1010 m 523 149 q 677 194 617 149 q 765 321 736 240 q 793 507 793 401 q 764 690 793 610 q 674 817 734 771 q 524 863 614 863 q 380 819 440 863 q 287 694 319 774 q 254 507 254 614 q 327 243 254 338 q 523 149 401 149 z "},"R":{"ha":906,"x_min":102,"x_max":873,"o":"m 102 0 l 102 1010 l 479 1010 q 745 921 654 1010 q 836 687 836 831 q 789 511 836 585 q 654 401 743 437 l 873 0 l 670 0 l 471 371 l 283 371 l 283 0 l 102 0 m 283 521 l 453 521 q 603 564 555 521 q 650 687 650 607 q 603 813 650 768 q 452 859 555 859 l 283 859 l 283 521 z "},"Ŕ":{"ha":906,"x_min":102,"x_max":873,"o":"m 102 0 l 102 1010 l 479 1010 q 745 921 654 1010 q 836 687 836 831 q 789 511 836 585 q 654 401 743 437 l 873 0 l 670 0 l 471 371 l 283 371 l 283 0 l 102 0 m 283 521 l 453 521 q 603 564 555 521 q 650 687 650 607 q 603 813 650 768 q 452 859 555 859 l 283 859 l 283 521 m 380 1107 l 475 1315 l 646 1315 l 509 1107 l 380 1107 z "},"Ŗ":{"ha":906,"x_min":102,"x_max":873,"o":"m 102 0 l 102 1010 l 479 1010 q 745 921 654 1010 q 836 687 836 831 q 789 511 836 585 q 654 401 743 437 l 873 0 l 670 0 l 471 371 l 283 371 l 283 0 l 102 0 m 283 521 l 453 521 q 603 564 555 521 q 650 687 650 607 q 603 813 650 768 q 452 859 555 859 l 283 859 l 283 521 m 321 -328 l 380 -80 l 548 -80 l 448 -328 l 321 -328 z "},"Ř":{"ha":906,"x_min":102,"x_max":873,"o":"m 102 0 l 102 1010 l 479 1010 q 745 921 654 1010 q 836 687 836 831 q 789 511 836 585 q 654 401 743 437 l 873 0 l 670 0 l 471 371 l 283 371 l 283 0 l 102 0 m 283 521 l 453 521 q 603 564 555 521 q 650 687 650 607 q 603 813 650 768 q 452 859 555 859 l 283 859 l 283 521 m 350 1315 l 447 1198 l 543 1315 l 702 1315 l 702 1310 l 518 1116 l 376 1116 l 192 1310 l 192 1315 l 350 1315 z "},"Ȑ":{"ha":906,"x_min":102,"x_max":873,"o":"m 102 0 l 102 1010 l 479 1010 q 745 921 654 1010 q 836 687 836 831 q 789 511 836 585 q 654 401 743 437 l 873 0 l 670 0 l 471 371 l 283 371 l 283 0 l 102 0 m 283 521 l 453 521 q 603 564 555 521 q 650 687 650 607 q 603 813 650 768 q 452 859 555 859 l 283 859 l 283 521 m 267 1107 l 108 1315 l 283 1315 l 397 1107 l 267 1107 m 500 1107 l 387 1315 l 553 1315 l 628 1107 l 500 1107 z "},"Ȓ":{"ha":906,"x_min":102,"x_max":873,"o":"m 102 0 l 102 1010 l 479 1010 q 745 921 654 1010 q 836 687 836 831 q 789 511 836 585 q 654 401 743 437 l 873 0 l 670 0 l 471 371 l 283 371 l 283 0 l 102 0 m 283 521 l 453 521 q 603 564 555 521 q 650 687 650 607 q 603 813 650 768 q 452 859 555 859 l 283 859 l 283 521 m 447 1328 q 564 1299 512 1328 q 645 1223 616 1271 q 675 1116 675 1175 l 566 1116 q 530 1192 566 1162 q 447 1222 495 1222 q 363 1192 399 1222 q 328 1116 328 1162 l 219 1116 q 249 1223 219 1175 q 330 1299 279 1271 q 447 1328 382 1328 z "},"Ṙ":{"ha":906,"x_min":102,"x_max":873,"o":"m 102 0 l 102 1010 l 479 1010 q 745 921 654 1010 q 836 687 836 831 q 789 511 836 585 q 654 401 743 437 l 873 0 l 670 0 l 471 371 l 283 371 l 283 0 l 102 0 m 283 521 l 453 521 q 603 564 555 521 q 650 687 650 607 q 603 813 650 768 q 452 859 555 859 l 283 859 l 283 521 m 447 1118 q 375 1146 405 1118 q 345 1215 345 1174 q 375 1283 345 1255 q 447 1311 405 1311 q 520 1283 490 1311 q 550 1215 550 1255 q 520 1146 550 1174 q 447 1118 490 1118 z "},"Ṛ":{"ha":906,"x_min":102,"x_max":873,"o":"m 102 0 l 102 1010 l 479 1010 q 745 921 654 1010 q 836 687 836 831 q 789 511 836 585 q 654 401 743 437 l 873 0 l 670 0 l 471 371 l 283 371 l 283 0 l 102 0 m 283 521 l 453 521 q 603 564 555 521 q 650 687 650 607 q 603 813 650 768 q 452 859 555 859 l 283 859 l 283 521 m 465 -300 q 393 -272 423 -300 q 363 -203 363 -244 q 393 -135 363 -163 q 465 -107 423 -107 q 538 -135 508 -107 q 568 -203 568 -163 q 538 -272 568 -244 q 465 -300 508 -300 z "},"Ṝ":{"ha":906,"x_min":102,"x_max":873,"o":"m 102 0 l 102 1010 l 479 1010 q 745 921 654 1010 q 836 687 836 831 q 789 511 836 585 q 654 401 743 437 l 873 0 l 670 0 l 471 371 l 283 371 l 283 0 l 102 0 m 283 521 l 453 521 q 603 564 555 521 q 650 687 650 607 q 603 813 650 768 q 452 859 555 859 l 283 859 l 283 521 m 465 -300 q 393 -272 423 -300 q 363 -203 363 -244 q 393 -135 363 -163 q 465 -107 423 -107 q 538 -135 508 -107 q 568 -203 568 -163 q 538 -272 568 -244 q 465 -300 508 -300 m 641 1274 l 641 1155 l 254 1155 l 254 1274 l 641 1274 z "},"Ṟ":{"ha":906,"x_min":102,"x_max":873,"o":"m 102 0 l 102 1010 l 479 1010 q 745 921 654 1010 q 836 687 836 831 q 789 511 836 585 q 654 401 743 437 l 873 0 l 670 0 l 471 371 l 283 371 l 283 0 l 102 0 m 283 521 l 453 521 q 603 564 555 521 q 650 687 650 607 q 603 813 650 768 q 452 859 555 859 l 283 859 l 283 521 m 658 -144 l 658 -263 l 271 -263 l 271 -144 l 658 -144 z "},"℟":{"ha":907,"x_min":104,"x_max":875,"o":"m 658 1148 l 620 992 q 782 880 727 960 q 838 687 838 800 q 791 511 838 585 q 656 401 745 437 l 875 0 l 672 0 l 473 371 l 469 371 l 320 -245 l 241 -231 l 389 371 l 285 371 l 285 0 l 104 0 l 104 1010 l 481 1010 q 545 1007 514 1010 l 566 1097 l 351 1154 l 374 1227 l 658 1148 m 285 521 l 425 521 l 507 855 q 454 859 483 859 l 285 859 l 285 521 m 507 524 q 617 576 582 534 q 652 687 652 618 q 581 831 652 789 l 507 524 z "},"℞":{"ha":1025,"x_min":102,"x_max":966,"o":"m 102 1010 l 473 1010 q 674 970 595 1010 q 792 860 753 930 q 831 697 831 789 q 785 525 831 594 q 659 418 739 456 l 720 334 l 806 452 l 949 452 l 793 235 l 966 0 l 795 0 l 709 119 l 623 0 l 476 0 l 637 220 l 520 381 l 283 381 l 283 0 l 102 0 l 102 1010 m 283 534 l 467 534 q 608 577 564 534 q 652 694 652 620 q 612 810 652 762 q 473 859 572 859 l 283 859 l 283 534 z "},"Ɍ":{"ha":923,"x_min":14,"x_max":891,"o":"m 120 0 l 120 381 l 14 381 l 14 521 l 120 521 l 120 1010 l 498 1010 q 763 921 672 1010 q 854 687 854 831 q 808 511 854 585 q 672 401 762 437 l 891 0 l 688 0 l 490 371 l 301 371 l 301 0 l 120 0 m 301 521 l 471 521 q 621 564 574 521 q 669 687 669 607 q 621 813 669 768 q 471 859 574 859 l 301 859 l 301 521 z "},"S":{"ha":903,"x_min":64,"x_max":839,"o":"m 456 -16 q 175 66 280 -16 q 64 297 71 147 l 243 297 q 309 178 249 217 q 455 139 370 139 q 601 179 545 139 q 658 285 658 220 q 608 374 658 344 q 475 425 557 404 l 361 455 q 163 553 234 488 q 92 726 92 619 q 140 883 92 816 q 272 987 189 949 q 461 1024 355 1024 q 650 987 569 1024 q 777 884 731 949 q 825 734 823 818 l 650 734 q 592 834 643 798 q 458 870 541 870 q 324 832 373 870 q 275 737 275 795 q 301 668 275 694 q 367 625 328 641 q 448 598 407 608 l 542 574 q 685 521 616 555 q 796 429 753 487 q 839 283 839 372 q 793 127 839 195 q 663 22 748 60 q 456 -16 577 -16 z "},"Ś":{"ha":903,"x_min":64,"x_max":839,"o":"m 456 -16 q 175 66 280 -16 q 64 297 71 147 l 243 297 q 309 178 249 217 q 455 139 370 139 q 601 179 545 139 q 658 285 658 220 q 608 374 658 344 q 475 425 557 404 l 361 455 q 163 553 234 488 q 92 726 92 619 q 140 883 92 816 q 272 987 189 949 q 461 1024 355 1024 q 650 987 569 1024 q 777 884 731 949 q 825 734 823 818 l 650 734 q 592 834 643 798 q 458 870 541 870 q 324 832 373 870 q 275 737 275 795 q 301 668 275 694 q 367 625 328 641 q 448 598 407 608 l 542 574 q 685 521 616 555 q 796 429 753 487 q 839 283 839 372 q 793 127 839 195 q 663 22 748 60 q 456 -16 577 -16 m 385 1107 l 479 1315 l 650 1315 l 513 1107 l 385 1107 z "},"Ŝ":{"ha":903,"x_min":64,"x_max":839,"o":"m 456 -16 q 175 66 280 -16 q 64 297 71 147 l 243 297 q 309 178 249 217 q 455 139 370 139 q 601 179 545 139 q 658 285 658 220 q 608 374 658 344 q 475 425 557 404 l 361 455 q 163 553 234 488 q 92 726 92 619 q 140 883 92 816 q 272 987 189 949 q 461 1024 355 1024 q 650 987 569 1024 q 777 884 731 949 q 825 734 823 818 l 650 734 q 592 834 643 798 q 458 870 541 870 q 324 832 373 870 q 275 737 275 795 q 301 668 275 694 q 367 625 328 641 q 448 598 407 608 l 542 574 q 685 521 616 555 q 796 429 753 487 q 839 283 839 372 q 793 127 839 195 q 663 22 748 60 q 456 -16 577 -16 m 355 1116 l 197 1116 l 197 1121 l 380 1315 l 523 1315 l 707 1121 l 707 1116 l 548 1116 l 452 1232 l 355 1116 z "},"Ş":{"ha":903,"x_min":64,"x_max":839,"o":"m 456 -16 q 175 66 280 -16 q 64 297 71 147 l 243 297 q 309 178 249 217 q 455 139 370 139 q 601 179 545 139 q 658 285 658 220 q 608 374 658 344 q 475 425 557 404 l 361 455 q 163 553 234 488 q 92 726 92 619 q 140 883 92 816 q 272 987 189 949 q 461 1024 355 1024 q 650 987 569 1024 q 777 884 731 949 q 825 734 823 818 l 650 734 q 592 834 643 798 q 458 870 541 870 q 324 832 373 870 q 275 737 275 795 q 301 668 275 694 q 367 625 328 641 q 448 598 407 608 l 542 574 q 685 521 616 555 q 796 429 753 487 q 839 283 839 372 q 793 127 839 195 q 663 22 748 60 q 456 -16 577 -16 m 370 -283 l 370 -206 l 454 -206 q 503 -196 488 -206 q 517 -163 517 -186 q 503 -130 517 -140 q 454 -121 488 -121 l 395 -121 l 418 31 l 492 31 l 492 0 l 489 -59 q 621 -167 621 -57 q 583 -256 621 -229 q 460 -283 545 -283 l 370 -283 z "},"Š":{"ha":903,"x_min":64,"x_max":839,"o":"m 456 -16 q 175 66 280 -16 q 64 297 71 147 l 243 297 q 309 178 249 217 q 455 139 370 139 q 601 179 545 139 q 658 285 658 220 q 608 374 658 344 q 475 425 557 404 l 361 455 q 163 553 234 488 q 92 726 92 619 q 140 883 92 816 q 272 987 189 949 q 461 1024 355 1024 q 650 987 569 1024 q 777 884 731 949 q 825 734 823 818 l 650 734 q 592 834 643 798 q 458 870 541 870 q 324 832 373 870 q 275 737 275 795 q 301 668 275 694 q 367 625 328 641 q 448 598 407 608 l 542 574 q 685 521 616 555 q 796 429 753 487 q 839 283 839 372 q 793 127 839 195 q 663 22 748 60 q 456 -16 577 -16 m 355 1315 l 452 1198 l 548 1315 l 707 1315 l 707 1310 l 523 1116 l 380 1116 l 197 1310 l 197 1315 l 355 1315 z "},"Ș":{"ha":903,"x_min":64,"x_max":839,"o":"m 456 -16 q 175 66 280 -16 q 64 297 71 147 l 243 297 q 309 178 249 217 q 455 139 370 139 q 601 179 545 139 q 658 285 658 220 q 608 374 658 344 q 475 425 557 404 l 361 455 q 163 553 234 488 q 92 726 92 619 q 140 883 92 816 q 272 987 189 949 q 461 1024 355 1024 q 650 987 569 1024 q 777 884 731 949 q 825 734 823 818 l 650 734 q 592 834 643 798 q 458 870 541 870 q 324 832 373 870 q 275 737 275 795 q 301 668 275 694 q 367 625 328 641 q 448 598 407 608 l 542 574 q 685 521 616 555 q 796 429 753 487 q 839 283 839 372 q 793 127 839 195 q 663 22 748 60 q 456 -16 577 -16 m 311 -328 l 370 -80 l 538 -80 l 438 -328 l 311 -328 z "},"Ṡ":{"ha":903,"x_min":64,"x_max":839,"o":"m 456 -16 q 175 66 280 -16 q 64 297 71 147 l 243 297 q 309 178 249 217 q 455 139 370 139 q 601 179 545 139 q 658 285 658 220 q 608 374 658 344 q 475 425 557 404 l 361 455 q 163 553 234 488 q 92 726 92 619 q 140 883 92 816 q 272 987 189 949 q 461 1024 355 1024 q 650 987 569 1024 q 777 884 731 949 q 825 734 823 818 l 650 734 q 592 834 643 798 q 458 870 541 870 q 324 832 373 870 q 275 737 275 795 q 301 668 275 694 q 367 625 328 641 q 448 598 407 608 l 542 574 q 685 521 616 555 q 796 429 753 487 q 839 283 839 372 q 793 127 839 195 q 663 22 748 60 q 456 -16 577 -16 m 452 1118 q 379 1146 410 1118 q 349 1215 349 1174 q 379 1283 349 1255 q 452 1311 410 1311 q 525 1283 494 1311 q 555 1215 555 1255 q 525 1146 555 1174 q 452 1118 494 1118 z "},"Ṣ":{"ha":903,"x_min":64,"x_max":839,"o":"m 456 -16 q 175 66 280 -16 q 64 297 71 147 l 243 297 q 309 178 249 217 q 455 139 370 139 q 601 179 545 139 q 658 285 658 220 q 608 374 658 344 q 475 425 557 404 l 361 455 q 163 553 234 488 q 92 726 92 619 q 140 883 92 816 q 272 987 189 949 q 461 1024 355 1024 q 650 987 569 1024 q 777 884 731 949 q 825 734 823 818 l 650 734 q 592 834 643 798 q 458 870 541 870 q 324 832 373 870 q 275 737 275 795 q 301 668 275 694 q 367 625 328 641 q 448 598 407 608 l 542 574 q 685 521 616 555 q 796 429 753 487 q 839 283 839 372 q 793 127 839 195 q 663 22 748 60 q 456 -16 577 -16 m 455 -300 q 383 -272 413 -300 q 353 -203 353 -244 q 383 -135 353 -163 q 455 -107 413 -107 q 528 -135 498 -107 q 558 -203 558 -163 q 528 -272 558 -244 q 455 -300 498 -300 z "},"Ṥ":{"ha":903,"x_min":64,"x_max":839,"o":"m 456 -16 q 175 66 280 -16 q 64 297 71 147 l 243 297 q 309 178 249 217 q 455 139 370 139 q 601 179 545 139 q 658 285 658 220 q 608 374 658 344 q 475 425 557 404 l 361 455 q 163 553 234 488 q 92 726 92 619 q 140 883 92 816 q 272 987 189 949 q 461 1024 355 1024 q 650 987 569 1024 q 777 884 731 949 q 825 734 823 818 l 650 734 q 592 834 643 798 q 458 870 541 870 q 324 832 373 870 q 275 737 275 795 q 301 668 275 694 q 367 625 328 641 q 448 598 407 608 l 542 574 q 685 521 616 555 q 796 429 753 487 q 839 283 839 372 q 793 127 839 195 q 663 22 748 60 q 456 -16 577 -16 m 408 1105 l 506 1280 l 656 1280 l 517 1105 l 408 1105 m 247 1288 q 271 1343 247 1320 q 336 1366 296 1366 q 401 1343 378 1366 q 425 1288 425 1320 q 401 1232 425 1255 q 336 1209 378 1209 q 271 1232 295 1209 q 247 1288 247 1255 z "},"Ṧ":{"ha":903,"x_min":64,"x_max":839,"o":"m 456 -16 q 175 66 280 -16 q 64 297 71 147 l 243 297 q 309 178 249 217 q 455 139 370 139 q 601 179 545 139 q 658 285 658 220 q 608 374 658 344 q 475 425 557 404 l 361 455 q 163 553 234 488 q 92 726 92 619 q 140 883 92 816 q 272 987 189 949 q 461 1024 355 1024 q 650 987 569 1024 q 777 884 731 949 q 825 734 823 818 l 650 734 q 592 834 643 798 q 458 870 541 870 q 324 832 373 870 q 275 737 275 795 q 301 668 275 694 q 367 625 328 641 q 448 598 407 608 l 542 574 q 685 521 616 555 q 796 429 753 487 q 839 283 839 372 q 793 127 839 195 q 663 22 748 60 q 456 -16 577 -16 m 357 1297 l 454 1184 l 551 1297 l 709 1297 l 709 1292 l 526 1104 l 383 1104 l 199 1292 l 199 1297 l 357 1297 m 452 1343 q 385 1368 413 1343 q 357 1428 357 1393 q 385 1489 357 1464 q 452 1514 413 1514 q 520 1489 492 1514 q 549 1428 549 1464 q 520 1368 549 1393 q 452 1343 492 1343 z "},"Ṩ":{"ha":903,"x_min":64,"x_max":839,"o":"m 456 -16 q 175 66 280 -16 q 64 297 71 147 l 243 297 q 309 178 249 217 q 455 139 370 139 q 601 179 545 139 q 658 285 658 220 q 608 374 658 344 q 475 425 557 404 l 361 455 q 163 553 234 488 q 92 726 92 619 q 140 883 92 816 q 272 987 189 949 q 461 1024 355 1024 q 650 987 569 1024 q 777 884 731 949 q 825 734 823 818 l 650 734 q 592 834 643 798 q 458 870 541 870 q 324 832 373 870 q 275 737 275 795 q 301 668 275 694 q 367 625 328 641 q 448 598 407 608 l 542 574 q 685 521 616 555 q 796 429 753 487 q 839 283 839 372 q 793 127 839 195 q 663 22 748 60 q 456 -16 577 -16 m 455 -300 q 383 -272 413 -300 q 353 -203 353 -244 q 383 -135 353 -163 q 455 -107 413 -107 q 528 -135 498 -107 q 558 -203 558 -163 q 528 -272 558 -244 q 455 -300 498 -300 m 452 1118 q 379 1146 410 1118 q 349 1215 349 1174 q 379 1283 349 1255 q 452 1311 410 1311 q 525 1283 494 1311 q 555 1215 555 1255 q 525 1146 555 1174 q 452 1118 494 1118 z "},"Ѕ":{"ha":903,"x_min":64,"x_max":839,"o":"m 456 -16 q 175 66 280 -16 q 64 297 71 147 l 243 297 q 309 178 249 217 q 455 139 370 139 q 601 179 545 139 q 658 285 658 220 q 608 374 658 344 q 475 425 557 404 l 361 455 q 163 553 234 488 q 92 726 92 619 q 140 883 92 816 q 272 987 189 949 q 461 1024 355 1024 q 650 987 569 1024 q 777 884 731 949 q 825 734 823 818 l 650 734 q 592 834 643 798 q 458 870 541 870 q 324 832 373 870 q 275 737 275 795 q 301 668 275 694 q 367 625 328 641 q 448 598 407 608 l 542 574 q 685 521 616 555 q 796 429 753 487 q 839 283 839 372 q 793 127 839 195 q 663 22 748 60 q 456 -16 577 -16 z "},"Ƨ":{"ha":903,"x_min":64,"x_max":839,"o":"m 447 -16 q 241 22 326 -16 q 110 127 155 60 q 64 283 64 195 q 107 429 64 372 q 219 521 151 487 q 361 574 287 555 l 456 598 q 536 625 497 608 q 602 668 576 641 q 628 737 628 694 q 579 832 628 795 q 445 870 530 870 q 312 834 363 870 q 254 734 260 798 l 78 734 q 126 884 80 818 q 253 987 172 949 q 442 1024 334 1024 q 631 987 548 1024 q 763 883 715 949 q 811 726 811 816 q 740 553 811 619 q 543 455 669 488 l 428 425 q 296 374 346 404 q 245 285 245 344 q 302 179 245 220 q 448 139 359 139 q 594 178 534 139 q 661 297 654 217 l 839 297 q 728 66 833 147 q 447 -16 623 -16 z "},"ẞ":{"ha":1001,"x_min":102,"x_max":937,"o":"m 102 0 l 102 726 q 180 938 102 865 q 406 1010 259 1010 l 845 1010 l 845 866 l 597 562 q 773 544 697 570 q 893 457 850 517 q 937 303 937 396 q 891 142 937 210 q 764 37 846 74 q 568 0 681 0 l 424 0 l 424 148 l 568 148 q 705 188 657 148 q 753 303 753 227 q 705 420 753 379 q 568 461 657 461 l 447 461 l 447 574 l 667 859 l 406 859 q 286 742 286 859 l 286 0 l 102 0 z "},"T":{"ha":917,"x_min":56,"x_max":861,"o":"m 56 858 l 56 1010 l 861 1010 l 861 858 l 549 858 l 549 0 l 368 0 l 368 858 l 56 858 z "},"Ţ":{"ha":917,"x_min":56,"x_max":861,"o":"m 56 858 l 56 1010 l 861 1010 l 861 858 l 549 858 l 549 0 l 368 0 l 368 858 l 56 858 m 376 -283 l 376 -206 l 460 -206 q 509 -196 494 -206 q 523 -163 523 -186 q 509 -130 523 -140 q 460 -121 494 -121 l 401 -121 l 424 31 l 498 31 l 498 0 l 495 -59 q 627 -167 627 -57 q 589 -256 627 -229 q 467 -283 551 -283 l 376 -283 z "},"Ť":{"ha":917,"x_min":56,"x_max":861,"o":"m 56 858 l 56 1010 l 861 1010 l 861 858 l 549 858 l 549 0 l 368 0 l 368 858 l 56 858 m 362 1315 l 459 1198 l 555 1315 l 714 1315 l 714 1310 l 530 1116 l 388 1116 l 204 1310 l 204 1315 l 362 1315 z "},"Ț":{"ha":917,"x_min":56,"x_max":861,"o":"m 56 858 l 56 1010 l 861 1010 l 861 858 l 549 858 l 549 0 l 368 0 l 368 858 l 56 858 m 317 -328 l 376 -80 l 543 -80 l 444 -328 l 317 -328 z "},"Ṫ":{"ha":917,"x_min":56,"x_max":861,"o":"m 56 858 l 56 1010 l 861 1010 l 861 858 l 549 858 l 549 0 l 368 0 l 368 858 l 56 858 m 458 1118 q 386 1146 416 1118 q 356 1215 356 1174 q 386 1283 356 1255 q 458 1311 416 1311 q 531 1283 501 1311 q 562 1215 562 1255 q 531 1146 562 1174 q 458 1118 501 1118 z "},"Ṭ":{"ha":917,"x_min":56,"x_max":861,"o":"m 56 858 l 56 1010 l 861 1010 l 861 858 l 549 858 l 549 0 l 368 0 l 368 858 l 56 858 m 460 -300 q 388 -272 418 -300 q 357 -203 357 -244 q 388 -135 357 -163 q 460 -107 418 -107 q 533 -135 503 -107 q 563 -203 563 -163 q 533 -272 563 -244 q 460 -300 503 -300 z "},"Ṯ":{"ha":917,"x_min":56,"x_max":861,"o":"m 56 858 l 56 1010 l 861 1010 l 861 858 l 549 858 l 549 0 l 368 0 l 368 858 l 56 858 m 653 -144 l 653 -263 l 266 -263 l 266 -144 l 653 -144 z "},"Ṱ":{"ha":917,"x_min":56,"x_max":861,"o":"m 56 858 l 56 1010 l 861 1010 l 861 858 l 549 858 l 549 0 l 368 0 l 368 858 l 56 858 m 365 -303 l 207 -303 l 207 -298 l 391 -104 l 533 -104 l 717 -298 l 717 -303 l 558 -303 l 462 -187 l 365 -303 z "},"Ƭ":{"ha":969,"x_min":62,"x_max":913,"o":"m 62 734 l 62 783 q 125 955 62 899 q 321 1010 189 1010 l 913 1010 l 913 859 l 602 859 l 602 0 l 420 0 l 420 859 l 317 859 q 226 772 226 859 l 226 734 l 62 734 z "},"":{"ha":916,"x_min":313,"x_max":859,"o":"m 313 859 l 313 1010 l 859 1010 l 859 859 l 548 859 l 548 0 l 367 0 l 367 859 l 313 859 z "},"Ʈ":{"ha":917,"x_min":56,"x_max":861,"o":"m 597 -293 q 368 -92 368 -293 l 368 858 l 56 858 l 56 1010 l 861 1010 l 861 858 l 549 858 l 549 -90 q 571 -138 549 -124 q 642 -152 592 -152 q 696 -148 667 -152 l 696 -283 q 597 -293 659 -293 z "},"Ⱦ":{"ha":917,"x_min":56,"x_max":861,"o":"m 141 -142 l 368 399 l 368 858 l 56 858 l 56 1010 l 625 1010 l 685 1152 l 779 1152 l 719 1010 l 861 1010 l 861 858 l 655 858 l 549 608 l 549 0 l 368 0 l 368 177 l 234 -142 l 141 -142 m 549 829 l 562 858 l 549 858 l 549 829 z "},"Τ":{"ha":917,"x_min":56,"x_max":861,"o":"m 56 858 l 56 1010 l 861 1010 l 861 858 l 549 858 l 549 0 l 368 0 l 368 858 l 56 858 z "},"U":{"ha":1022,"x_min":102,"x_max":921,"o":"m 511 -15 q 296 32 388 -15 q 153 160 203 78 q 102 351 102 243 l 102 1010 l 283 1010 l 283 366 q 345 209 283 271 q 511 147 407 147 q 678 209 616 147 q 740 366 740 271 l 740 1010 l 921 1010 l 921 351 q 870 160 921 243 q 726 32 819 78 q 511 -15 634 -15 z "},"Ư":{"ha":1020,"x_min":102,"x_max":1040,"o":"m 511 -15 q 296 32 388 -15 q 153 160 203 78 q 102 351 102 243 l 102 1010 l 283 1010 l 283 366 q 345 209 283 271 q 511 147 407 147 q 678 209 616 147 q 740 366 740 271 l 740 1010 l 866 1010 q 882 1026 882 1010 l 882 1152 l 1040 1152 l 1040 1022 q 1008 926 1040 959 q 921 890 977 894 l 921 351 q 870 160 921 243 q 726 32 819 78 q 511 -15 634 -15 z "},"Ù":{"ha":1022,"x_min":102,"x_max":921,"o":"m 511 -15 q 296 32 388 -15 q 153 160 203 78 q 102 351 102 243 l 102 1010 l 283 1010 l 283 366 q 345 209 283 271 q 511 147 407 147 q 678 209 616 147 q 740 366 740 271 l 740 1010 l 921 1010 l 921 351 q 870 160 921 243 q 726 32 819 78 q 511 -15 634 -15 m 449 1107 l 312 1315 l 484 1315 l 578 1107 l 449 1107 z "},"Ú":{"ha":1022,"x_min":102,"x_max":921,"o":"m 511 -15 q 296 32 388 -15 q 153 160 203 78 q 102 351 102 243 l 102 1010 l 283 1010 l 283 366 q 345 209 283 271 q 511 147 407 147 q 678 209 616 147 q 740 366 740 271 l 740 1010 l 921 1010 l 921 351 q 870 160 921 243 q 726 32 819 78 q 511 -15 634 -15 m 444 1107 l 538 1315 l 709 1315 l 572 1107 l 444 1107 z "},"Û":{"ha":1022,"x_min":102,"x_max":921,"o":"m 511 -15 q 296 32 388 -15 q 153 160 203 78 q 102 351 102 243 l 102 1010 l 283 1010 l 283 366 q 345 209 283 271 q 511 147 407 147 q 678 209 616 147 q 740 366 740 271 l 740 1010 l 921 1010 l 921 351 q 870 160 921 243 q 726 32 819 78 q 511 -15 634 -15 m 414 1116 l 256 1116 l 256 1121 l 440 1315 l 583 1315 l 766 1121 l 766 1116 l 608 1116 l 511 1232 l 414 1116 z "},"Ü":{"ha":1022,"x_min":102,"x_max":921,"o":"m 511 -15 q 296 32 388 -15 q 153 160 203 78 q 102 351 102 243 l 102 1010 l 283 1010 l 283 366 q 345 209 283 271 q 511 147 407 147 q 678 209 616 147 q 740 366 740 271 l 740 1010 l 921 1010 l 921 351 q 870 160 921 243 q 726 32 819 78 q 511 -15 634 -15 m 363 1122 q 297 1149 324 1122 q 269 1215 269 1176 q 297 1280 269 1253 q 363 1307 324 1307 q 430 1280 402 1307 q 458 1215 458 1253 q 430 1149 458 1176 q 363 1122 402 1122 m 659 1122 q 592 1149 620 1122 q 564 1215 564 1176 q 592 1280 564 1253 q 659 1307 620 1307 q 726 1280 698 1307 q 753 1215 753 1253 q 726 1149 753 1176 q 659 1122 698 1122 z "},"Ũ":{"ha":1022,"x_min":102,"x_max":921,"o":"m 511 -15 q 296 32 388 -15 q 153 160 203 78 q 102 351 102 243 l 102 1010 l 283 1010 l 283 366 q 345 209 283 271 q 511 147 407 147 q 678 209 616 147 q 740 366 740 271 l 740 1010 l 921 1010 l 921 351 q 870 160 921 243 q 726 32 819 78 q 511 -15 634 -15 m 604 1128 q 533 1145 564 1128 q 477 1178 502 1162 q 433 1194 453 1194 q 403 1176 413 1194 q 391 1133 393 1158 l 288 1133 q 325 1254 290 1210 q 419 1299 359 1299 q 490 1282 460 1299 q 543 1250 519 1266 q 590 1234 567 1234 q 633 1296 628 1234 l 734 1296 q 697 1173 732 1217 q 604 1128 661 1128 z "},"Ū":{"ha":1022,"x_min":102,"x_max":921,"o":"m 511 -15 q 296 32 388 -15 q 153 160 203 78 q 102 351 102 243 l 102 1010 l 283 1010 l 283 366 q 345 209 283 271 q 511 147 407 147 q 678 209 616 147 q 740 366 740 271 l 740 1010 l 921 1010 l 921 351 q 870 160 921 243 q 726 32 819 78 q 511 -15 634 -15 m 705 1274 l 705 1155 l 317 1155 l 317 1274 l 705 1274 z "},"Ŭ":{"ha":1022,"x_min":102,"x_max":921,"o":"m 511 -15 q 296 32 388 -15 q 153 160 203 78 q 102 351 102 243 l 102 1010 l 283 1010 l 283 366 q 345 209 283 271 q 511 147 407 147 q 678 209 616 147 q 740 366 740 271 l 740 1010 l 921 1010 l 921 351 q 870 160 921 243 q 726 32 819 78 q 511 -15 634 -15 m 511 1108 q 399 1136 449 1108 q 319 1209 349 1163 q 290 1313 290 1255 l 399 1313 q 431 1240 399 1269 q 511 1212 463 1212 q 591 1240 559 1212 q 623 1313 623 1269 l 732 1313 q 703 1210 732 1256 q 624 1136 674 1163 q 511 1108 574 1108 z "},"Ů":{"ha":1022,"x_min":102,"x_max":921,"o":"m 511 -15 q 296 32 388 -15 q 153 160 203 78 q 102 351 102 243 l 102 1010 l 283 1010 l 283 366 q 345 209 283 271 q 511 147 407 147 q 678 209 616 147 q 740 366 740 271 l 740 1010 l 921 1010 l 921 351 q 870 160 921 243 q 726 32 819 78 q 511 -15 634 -15 m 511 1047 q 379 1096 431 1047 q 328 1215 328 1144 q 379 1333 328 1284 q 511 1381 431 1381 q 643 1333 591 1381 q 695 1215 695 1284 q 643 1096 695 1144 q 511 1047 591 1047 m 511 1135 q 569 1157 546 1135 q 593 1215 593 1180 q 570 1271 593 1249 q 511 1294 547 1294 q 452 1271 475 1294 q 429 1215 429 1249 q 453 1157 429 1180 q 511 1135 476 1135 z "},"Ű":{"ha":1022,"x_min":102,"x_max":921,"o":"m 511 -15 q 296 32 388 -15 q 153 160 203 78 q 102 351 102 243 l 102 1010 l 283 1010 l 283 366 q 345 209 283 271 q 511 147 407 147 q 678 209 616 147 q 740 366 740 271 l 740 1010 l 921 1010 l 921 351 q 870 160 921 243 q 726 32 819 78 q 511 -15 634 -15 m 639 1107 l 509 1107 l 623 1315 l 798 1315 l 639 1107 m 406 1107 l 278 1107 l 353 1315 l 519 1315 l 406 1107 z "},"Ų":{"ha":1022,"x_min":102,"x_max":921,"o":"m 511 -15 q 296 32 388 -15 q 153 160 203 78 q 102 351 102 243 l 102 1010 l 283 1010 l 283 366 q 345 209 283 271 q 511 147 407 147 q 678 209 616 147 q 740 366 740 271 l 740 1010 l 921 1010 l 921 351 q 870 160 921 243 q 726 32 819 78 q 511 -15 634 -15 m 557 -293 q 433 -257 482 -293 q 385 -154 385 -220 q 419 -62 385 -99 q 509 4 454 -25 q 625 61 564 33 q 741 126 686 90 q 830 217 795 163 q 865 351 865 271 l 921 351 q 894 203 921 263 q 824 101 867 142 q 732 32 781 60 q 641 -20 684 3 q 571 -67 598 -43 q 543 -125 543 -92 q 595 -176 543 -176 q 625 -171 611 -176 q 651 -159 639 -166 l 693 -259 q 634 -283 670 -273 q 557 -293 599 -293 z "},"Ǔ":{"ha":1022,"x_min":102,"x_max":921,"o":"m 511 -15 q 296 32 388 -15 q 153 160 203 78 q 102 351 102 243 l 102 1010 l 283 1010 l 283 366 q 345 209 283 271 q 511 147 407 147 q 678 209 616 147 q 740 366 740 271 l 740 1010 l 921 1010 l 921 351 q 870 160 921 243 q 726 32 819 78 q 511 -15 634 -15 m 414 1315 l 511 1198 l 608 1315 l 766 1315 l 766 1310 l 583 1116 l 440 1116 l 256 1310 l 256 1315 l 414 1315 z "},"Ǖ":{"ha":1022,"x_min":102,"x_max":921,"o":"m 511 -15 q 296 32 388 -15 q 153 160 203 78 q 102 351 102 243 l 102 1010 l 283 1010 l 283 366 q 345 209 283 271 q 511 147 407 147 q 678 209 616 147 q 740 366 740 271 l 740 1010 l 921 1010 l 921 351 q 870 160 921 243 q 726 32 819 78 q 511 -15 634 -15 m 705 1479 l 705 1378 l 319 1378 l 319 1479 l 705 1479 m 366 1103 q 299 1131 327 1103 q 272 1196 272 1158 q 299 1261 272 1234 q 366 1289 327 1289 q 433 1261 405 1289 q 460 1196 460 1234 q 433 1131 460 1158 q 366 1103 405 1103 m 662 1103 q 595 1131 623 1103 q 567 1196 567 1158 q 595 1261 567 1234 q 662 1289 623 1289 q 728 1261 701 1289 q 756 1196 756 1234 q 728 1131 756 1158 q 662 1103 701 1103 z "},"Ǘ":{"ha":1022,"x_min":102,"x_max":921,"o":"m 511 -15 q 296 32 388 -15 q 153 160 203 78 q 102 351 102 243 l 102 1010 l 283 1010 l 283 366 q 345 209 283 271 q 511 147 407 147 q 678 209 616 147 q 740 366 740 271 l 740 1010 l 921 1010 l 921 351 q 870 160 921 243 q 726 32 819 78 q 511 -15 634 -15 m 366 1103 q 299 1131 327 1103 q 272 1196 272 1158 q 299 1261 272 1234 q 366 1289 327 1289 q 433 1261 405 1289 q 460 1196 460 1234 q 433 1131 460 1158 q 366 1103 405 1103 m 662 1103 q 595 1131 623 1103 q 567 1196 567 1158 q 595 1261 567 1234 q 662 1289 623 1289 q 728 1261 701 1289 q 756 1196 756 1234 q 728 1131 756 1158 q 662 1103 701 1103 m 452 1352 l 540 1535 l 694 1535 l 568 1352 l 452 1352 z "},"Ǚ":{"ha":1022,"x_min":102,"x_max":921,"o":"m 511 -15 q 296 32 388 -15 q 153 160 203 78 q 102 351 102 243 l 102 1010 l 283 1010 l 283 366 q 345 209 283 271 q 511 147 407 147 q 678 209 616 147 q 740 366 740 271 l 740 1010 l 921 1010 l 921 351 q 870 160 921 243 q 726 32 819 78 q 511 -15 634 -15 m 422 1535 l 513 1427 l 602 1535 l 745 1535 l 745 1530 l 577 1352 l 448 1352 l 281 1530 l 281 1535 l 422 1535 m 366 1103 q 299 1131 327 1103 q 272 1196 272 1158 q 299 1261 272 1234 q 366 1289 327 1289 q 433 1261 405 1289 q 460 1196 460 1234 q 433 1131 460 1158 q 366 1103 405 1103 m 662 1103 q 595 1131 623 1103 q 567 1196 567 1158 q 595 1261 567 1234 q 662 1289 623 1289 q 728 1261 701 1289 q 756 1196 756 1234 q 728 1131 756 1158 q 662 1103 701 1103 z "},"Ǜ":{"ha":1022,"x_min":102,"x_max":921,"o":"m 511 -15 q 296 32 388 -15 q 153 160 203 78 q 102 351 102 243 l 102 1010 l 283 1010 l 283 366 q 345 209 283 271 q 511 147 407 147 q 678 209 616 147 q 740 366 740 271 l 740 1010 l 921 1010 l 921 351 q 870 160 921 243 q 726 32 819 78 q 511 -15 634 -15 m 366 1103 q 299 1131 327 1103 q 272 1196 272 1158 q 299 1261 272 1234 q 366 1289 327 1289 q 433 1261 405 1289 q 460 1196 460 1234 q 433 1131 460 1158 q 366 1103 405 1103 m 662 1103 q 595 1131 623 1103 q 567 1196 567 1158 q 595 1261 567 1234 q 662 1289 623 1289 q 728 1261 701 1289 q 756 1196 756 1234 q 728 1131 756 1158 q 662 1103 701 1103 m 450 1352 l 323 1535 l 478 1535 l 566 1352 l 450 1352 z "},"Ȕ":{"ha":1022,"x_min":102,"x_max":921,"o":"m 511 -15 q 296 32 388 -15 q 153 160 203 78 q 102 351 102 243 l 102 1010 l 283 1010 l 283 366 q 345 209 283 271 q 511 147 407 147 q 678 209 616 147 q 740 366 740 271 l 740 1010 l 921 1010 l 921 351 q 870 160 921 243 q 726 32 819 78 q 511 -15 634 -15 m 331 1107 l 172 1315 l 347 1315 l 461 1107 l 331 1107 m 564 1107 l 450 1315 l 617 1315 l 692 1107 l 564 1107 z "},"Ȗ":{"ha":1022,"x_min":102,"x_max":921,"o":"m 511 -15 q 296 32 388 -15 q 153 160 203 78 q 102 351 102 243 l 102 1010 l 283 1010 l 283 366 q 345 209 283 271 q 511 147 407 147 q 678 209 616 147 q 740 366 740 271 l 740 1010 l 921 1010 l 921 351 q 870 160 921 243 q 726 32 819 78 q 511 -15 634 -15 m 511 1328 q 628 1299 576 1328 q 710 1223 680 1271 q 739 1116 739 1175 l 630 1116 q 595 1192 630 1162 q 511 1222 559 1222 q 428 1192 463 1222 q 393 1116 393 1162 l 283 1116 q 313 1223 283 1175 q 395 1299 343 1271 q 511 1328 446 1328 z "},"Ṳ":{"ha":1022,"x_min":102,"x_max":921,"o":"m 511 -15 q 296 32 388 -15 q 153 160 203 78 q 102 351 102 243 l 102 1010 l 283 1010 l 283 366 q 345 209 283 271 q 511 147 407 147 q 678 209 616 147 q 740 366 740 271 l 740 1010 l 921 1010 l 921 351 q 870 160 921 243 q 726 32 819 78 q 511 -15 634 -15 m 363 -296 q 297 -269 324 -296 q 269 -203 269 -242 q 297 -138 269 -165 q 363 -111 324 -111 q 430 -138 402 -111 q 458 -203 458 -165 q 430 -269 458 -242 q 363 -296 402 -296 m 659 -296 q 592 -269 620 -296 q 564 -203 564 -242 q 592 -138 564 -165 q 659 -111 620 -111 q 726 -138 698 -111 q 753 -203 753 -165 q 726 -269 753 -242 q 659 -296 698 -296 z "},"Ṵ":{"ha":1022,"x_min":102,"x_max":921,"o":"m 511 -15 q 296 32 388 -15 q 153 160 203 78 q 102 351 102 243 l 102 1010 l 283 1010 l 283 366 q 345 209 283 271 q 511 147 407 147 q 678 209 616 147 q 740 366 740 271 l 740 1010 l 921 1010 l 921 351 q 870 160 921 243 q 726 32 819 78 q 511 -15 634 -15 m 606 -290 q 535 -273 566 -290 q 479 -240 504 -256 q 435 -224 455 -224 q 405 -242 415 -224 q 393 -286 395 -260 l 290 -286 q 327 -164 292 -208 q 421 -119 361 -119 q 492 -136 463 -119 q 545 -168 522 -152 q 592 -184 569 -184 q 635 -122 630 -184 l 736 -122 q 699 -245 734 -201 q 606 -290 663 -290 z "},"Ṷ":{"ha":1022,"x_min":102,"x_max":921,"o":"m 511 -15 q 296 32 388 -15 q 153 160 203 78 q 102 351 102 243 l 102 1010 l 283 1010 l 283 366 q 345 209 283 271 q 511 147 407 147 q 678 209 616 147 q 740 366 740 271 l 740 1010 l 921 1010 l 921 351 q 870 160 921 243 q 726 32 819 78 q 511 -15 634 -15 m 417 -303 l 259 -303 l 259 -298 l 443 -104 l 585 -104 l 769 -298 l 769 -303 l 610 -303 l 514 -187 l 417 -303 z "},"Ṹ":{"ha":1022,"x_min":102,"x_max":921,"o":"m 511 -15 q 296 32 388 -15 q 153 160 203 78 q 102 351 102 243 l 102 1010 l 283 1010 l 283 366 q 345 209 283 271 q 511 147 407 147 q 678 209 616 147 q 740 366 740 271 l 740 1010 l 921 1010 l 921 351 q 870 160 921 243 q 726 32 819 78 q 511 -15 634 -15 m 606 1112 q 535 1128 566 1112 q 479 1160 504 1144 q 435 1177 455 1177 q 405 1159 415 1177 q 393 1115 395 1141 l 290 1115 q 327 1237 292 1192 q 421 1281 361 1281 q 492 1265 463 1281 q 545 1232 522 1249 q 592 1216 569 1216 q 635 1278 630 1216 l 736 1278 q 699 1156 734 1200 q 606 1112 663 1112 m 448 1352 l 536 1535 l 690 1535 l 564 1352 l 448 1352 z "}}}
